NTSomic-Bold.ufo
<glyph name="exclam" format="2">
  <advance width="260"/>
  <unicode hex="0021"/>
  <outline>
    <component base="period" xOffset="20"/>
    <contour>
      <point x="73" y="204" type="line"/>
      <point x="187" y="204" type="line"/>
      <point x="199" y="700" type="line"/>
      <point x="61" y="700" type="line"/>
    </contour>
  </outline>
</glyph>
<glyph name="numbersign" format="2">
  <advance width="668"/>
  <unicode hex="0023"/>
  <outline>
    <contour>
      <point x="104" y="9" type="line"/>
      <point x="211" y="-6" type="line"/>
      <point x="327" y="689" type="line"/>
      <point x="220" y="704" type="line"/>
    </contour>
    <contour>
      <point x="338" y="9" type="line"/>
      <point x="445" y="-6" type="line"/>
      <point x="561" y="689" type="line"/>
      <point x="454" y="704" type="line"/>
    </contour>
    <contour>
      <point x="58" y="418" type="line"/>
      <point x="646" y="418" type="line"/>
      <point x="646" y="516" type="line"/>
      <point x="58" y="516" type="line"/>
    </contour>
    <contour>
      <point x="24" y="190" type="line"/>
      <point x="611" y="190" type="line"/>
      <point x="611" y="288" type="line"/>
      <point x="24" y="288" type="line"/>
    </contour>
  </outline>
</glyph>
<glyph name="dollar" format="2">
  <advance width="626"/>
  <unicode hex="0024"/>
  <outline>
    <contour>
      <point x="251" y="-100" type="line"/>
      <point x="381" y="-100" type="line"/>
      <point x="381" y="47" type="line"/>
      <point x="251" y="47" type="line"/>
    </contour>
    <contour>
      <point x="251" y="660" type="line"/>
      <point x="381" y="660" type="line"/>
      <point x="381" y="800" type="line"/>
      <point x="251" y="800" type="line"/>
    </contour>
    <contour>
      <point x="319" y="-16" type="curve" smooth="yes"/>
      <point x="486" y="-16"/>
      <point x="598" y="70"/>
      <point x="598" y="207" type="curve" smooth="yes"/>
      <point x="598" y="467"/>
      <point x="195" y="386"/>
      <point x="195" y="515" type="curve" smooth="yes"/>
      <point x="195" y="559"/>
      <point x="241" y="589"/>
      <point x="311" y="589" type="curve" smooth="yes"/>
      <point x="385" y="589"/>
      <point x="440" y="556"/>
      <point x="472" y="492" type="curve"/>
      <point x="589" y="560" type="line"/>
      <point x="531" y="664"/>
      <point x="440" y="716"/>
      <point x="314" y="716" type="curve" smooth="yes"/>
      <point x="154" y="716"/>
      <point x="51" y="633"/>
      <point x="51" y="504" type="curve" smooth="yes"/>
      <point x="51" y="249"/>
      <point x="453" y="331"/>
      <point x="453" y="196" type="curve" smooth="yes"/>
      <point x="453" y="147"/>
      <point x="399" y="113"/>
      <point x="320" y="113" type="curve" smooth="yes"/>
      <point x="235" y="113"/>
      <point x="173" y="152"/>
      <point x="136" y="229" type="curve"/>
      <point x="17" y="161" type="line"/>
      <point x="71" y="46"/>
      <point x="177" y="-16"/>
    </contour>
  </outline>
</glyph>
<glyph name="percent" format="2">
  <advance width="841"/>
  <unicode hex="0025"/>
  <outline>
    <contour>
      <point x="140" y="27" type="line"/>
      <point x="627" y="729" type="line"/>
      <point x="702" y="680" type="line"/>
      <point x="215" y="-22" type="line"/>
    </contour>
    <contour>
      <point x="210" y="354" type="curve" smooth="yes"/>
      <point x="312" y="354"/>
      <point x="376" y="433"/>
      <point x="376" y="533" type="curve" smooth="yes"/>
      <point x="376" y="633"/>
      <point x="312" y="712"/>
      <point x="210" y="712" type="curve" smooth="yes"/>
      <point x="108" y="712"/>
      <point x="44" y="633"/>
      <point x="44" y="533" type="curve" smooth="yes"/>
      <point x="44" y="433"/>
      <point x="108" y="354"/>
    </contour>
    <contour>
      <point x="210" y="450" type="curve" smooth="yes"/>
      <point x="170" y="450"/>
      <point x="144" y="483"/>
      <point x="144" y="533" type="curve" smooth="yes"/>
      <point x="144" y="583"/>
      <point x="170" y="616"/>
      <point x="210" y="616" type="curve" smooth="yes"/>
      <point x="250" y="616"/>
      <point x="276" y="583"/>
      <point x="276" y="533" type="curve" smooth="yes"/>
      <point x="276" y="483"/>
      <point x="250" y="450"/>
    </contour>
    <contour>
      <point x="631" y="-12" type="curve" smooth="yes"/>
      <point x="733" y="-12"/>
      <point x="797" y="67"/>
      <point x="797" y="167" type="curve" smooth="yes"/>
      <point x="797" y="267"/>
      <point x="733" y="346"/>
      <point x="631" y="346" type="curve" smooth="yes"/>
      <point x="529" y="346"/>
      <point x="465" y="267"/>
      <point x="465" y="167" type="curve" smooth="yes"/>
      <point x="465" y="67"/>
      <point x="529" y="-12"/>
    </contour>
    <contour>
      <point x="631" y="84" type="curve" smooth="yes"/>
      <point x="591" y="84"/>
      <point x="565" y="117"/>
      <point x="565" y="167" type="curve" smooth="yes"/>
      <point x="565" y="217"/>
      <point x="591" y="250"/>
      <point x="631" y="250" type="curve" smooth="yes"/>
      <point x="671" y="250"/>
      <point x="697" y="217"/>
      <point x="697" y="167" type="curve" smooth="yes"/>
      <point x="697" y="117"/>
      <point x="671" y="84"/>
    </contour>
  </outline>
</glyph>
<glyph name="ampersand" format="2">
  <advance width="680"/>
  <unicode hex="0026"/>
  <outline>
    <contour>
      <point x="318.384" y="716" type="curve" smooth="yes"/>
      <point x="182" y="716"/>
      <point x="113" y="627"/>
      <point x="113" y="541.563" type="curve" smooth="yes"/>
      <point x="113" y="479"/>
      <point x="150" y="420"/>
      <point x="189" y="378" type="curve" smooth="yes"/>
      <point x="562" y="-19" type="line"/>
      <point x="652" y="64" type="line"/>
      <point x="294" y="432" type="line" smooth="yes"/>
      <point x="252" y="476"/>
      <point x="237" y="503"/>
      <point x="237" y="534.48" type="curve" smooth="yes"/>
      <point x="237" y="579"/>
      <point x="267" y="610"/>
      <point x="315.543" y="610" type="curve" smooth="yes"/>
      <point x="360" y="610"/>
      <point x="395" y="584"/>
      <point x="395" y="541.601" type="curve" smooth="yes"/>
      <point x="395" y="406"/>
      <point x="37" y="434" name=".hr01"/>
      <point x="37" y="199.984" type="curve" smooth="yes"/>
      <point x="37" y="82"/>
      <point x="128" y="-16"/>
      <point x="299.621" y="-16" type="curve" smooth="yes"/>
      <point x="465" y="-16"/>
      <point x="576" y="75"/>
      <point x="660" y="289" type="curve"/>
      <point x="553" y="334" type="line"/>
      <point x="504" y="204"/>
      <point x="426" y="103"/>
      <point x="304.97" y="103" type="curve" smooth="yes"/>
      <point x="226" y="103"/>
      <point x="174" y="146"/>
      <point x="174" y="205.475" type="curve" smooth="yes"/>
      <point x="174" y="358"/>
      <point x="516" y="323"/>
      <point x="516" y="536.918" type="curve" smooth="yes"/>
      <point x="516" y="628"/>
      <point x="454" y="716"/>
    </contour>
  </outline>
</glyph>
<glyph name="quotesingle" format="2">
  <advance width="218"/>
  <unicode hex="0027"/>
  <outline>
    <contour>
      <point x="55" y="405" type="line"/>
      <point x="163" y="405" type="line"/>
      <point x="174" y="700" type="line"/>
      <point x="44" y="700" type="line"/>
    </contour>
  </outline>
  <guideline angle="0" x="0" y="653"/>
</glyph>
<glyph name="parenleft" format="2">
  <advance width="308"/>
  <unicode hex="0028"/>
  <outline>
    <contour>
      <point x="46" y="289" type="curve" smooth="yes"/>
      <point x="46" y="115"/>
      <point x="109" y="-60"/>
      <point x="205" y="-182" type="curve"/>
      <point x="304" y="-106" type="line"/>
      <point x="221" y="5"/>
      <point x="174" y="148"/>
      <point x="174" y="289" type="curve" smooth="yes"/>
      <point x="174" y="430"/>
      <point x="221" y="573"/>
      <point x="304" y="684" type="curve"/>
      <point x="205" y="760" type="line"/>
      <point x="109" y="638"/>
      <point x="46" y="463"/>
    </contour>
  </outline>
</glyph>
<glyph name="parenright" format="2">
  <advance width="308"/>
  <unicode hex="0029"/>
  <outline>
    <contour>
      <point x="262" y="289" type="curve" smooth="yes"/>
      <point x="262" y="463"/>
      <point x="201" y="638"/>
      <point x="105" y="760" type="curve"/>
      <point x="4" y="684" type="line"/>
      <point x="87" y="573"/>
      <point x="134" y="430"/>
      <point x="134" y="289" type="curve" smooth="yes"/>
      <point x="134" y="147"/>
      <point x="87" y="6"/>
      <point x="4" y="-106" type="curve"/>
      <point x="105" y="-182" type="line"/>
      <point x="201" y="-60"/>
      <point x="262" y="115"/>
    </contour>
  </outline>
</glyph>
<glyph name="asterisk" format="2">
  <advance width="436"/>
  <unicode hex="002A"/>
  <outline>
    <contour>
      <point x="172" y="346" type="line"/>
      <point x="262" y="346" type="line"/>
      <point x="251" y="523" type="line"/>
      <point x="262" y="700" type="line"/>
      <point x="172" y="700" type="line"/>
      <point x="183" y="523" type="line"/>
    </contour>
    <contour>
      <point x="90" y="395" type="line"/>
      <point x="217" y="488" type="line"/>
      <point x="217" y="558" type="line"/>
      <point x="160" y="534" type="line"/>
      <point x="41" y="468" type="line"/>
    </contour>
    <contour>
      <point x="393" y="579" type="line"/>
      <point x="344" y="652" type="line"/>
      <point x="217" y="558" type="line"/>
      <point x="217" y="488" type="line"/>
      <point x="274" y="513" type="line"/>
    </contour>
    <contour>
      <point x="41" y="579" type="line"/>
      <point x="160" y="513" type="line"/>
      <point x="217" y="488" type="line"/>
      <point x="217" y="558" type="line"/>
      <point x="90" y="652" type="line"/>
    </contour>
    <contour>
      <point x="344" y="395" type="line"/>
      <point x="393" y="468" type="line"/>
      <point x="274" y="534" type="line"/>
      <point x="217" y="558" type="line"/>
      <point x="217" y="488" type="line"/>
    </contour>
  </outline>
</glyph>
<glyph name="plus" format="2">
  <advance width="546"/>
  <unicode hex="002B"/>
  <outline>
    <contour>
      <point x="30" y="305" type="line"/>
      <point x="210" y="305" type="line"/>
      <point x="210" y="111" type="line"/>
      <point x="336" y="111" type="line"/>
      <point x="336" y="305" type="line"/>
      <point x="516" y="305" type="line"/>
      <point x="516" y="421" type="line"/>
      <point x="336" y="421" type="line"/>
      <point x="336" y="615" type="line"/>
      <point x="210" y="615" type="line"/>
      <point x="210" y="421" type="line"/>
      <point x="30" y="421" type="line"/>
    </contour>
  </outline>
</glyph>
<glyph name="comma" format="2">
  <advance width="228"/>
  <unicode hex="002C"/>
  <outline>
    <contour>
      <point x="106.75" y="-6" type="curve" smooth="yes"/>
      <point x="122" y="-6"/>
      <point x="132" y="-2"/>
      <point x="137" y="0" type="curve"/>
      <point x="118" y="7" type="line"/>
      <point x="106" y="-34"/>
      <point x="79" y="-71"/>
      <point x="32" y="-114" type="curve"/>
      <point x="87" y="-167" type="line"/>
      <point x="159" y="-104"/>
      <point x="200" y="-26"/>
      <point x="200" y="43.8011" type="curve" smooth="yes"/>
      <point x="200" y="111"/>
      <point x="162" y="154"/>
      <point x="110.127" y="154" type="curve" smooth="yes"/>
      <point x="64" y="154"/>
      <point x="28" y="120"/>
      <point x="28" y="74.0213" type="curve" smooth="yes"/>
      <point x="28" y="30"/>
      <point x="61" y="-6"/>
    </contour>
  </outline>
</glyph>
<glyph name="hyphen" format="2">
  <advance width="357"/>
  <unicode hex="002D"/>
  <outline>
    <contour>
      <point x="46" y="213" type="line"/>
      <point x="311" y="213" type="line"/>
      <point x="311" y="321" type="line"/>
      <point x="46" y="321" type="line"/>
    </contour>
  </outline>
</glyph>
<glyph name="period" format="2">
  <advance width="220"/>
  <unicode hex="002E"/>
  <outline>
    <contour>
      <point x="110" y="-8" type="curve" smooth="yes"/>
      <point x="156" y="-8"/>
      <point x="192" y="26"/>
      <point x="192" y="74" type="curve" smooth="yes"/>
      <point x="192" y="122"/>
      <point x="156" y="156"/>
      <point x="110" y="156" type="curve" smooth="yes"/>
      <point x="64" y="156"/>
      <point x="28" y="122"/>
      <point x="28" y="74" type="curve" smooth="yes"/>
      <point x="28" y="26"/>
      <point x="64" y="-8"/>
    </contour>
  </outline>
</glyph>
<glyph name="slash" format="2">
  <advance width="474"/>
  <unicode hex="002F"/>
  <outline>
    <contour>
      <point x="144" y="-187" type="line"/>
      <point x="458" y="736" type="line"/>
      <point x="332" y="772" type="line"/>
      <point x="18" y="-151" type="line"/>
    </contour>
  </outline>
</glyph>
<glyph name="zero" format="2">
  <advance width="708"/>
  <unicode hex="0030"/>
  <outline>
    <contour>
      <point x="354" y="-16" type="curve" smooth="yes"/>
      <point x="170" y="-16"/>
      <point x="52" y="129"/>
      <point x="52" y="350" type="curve" smooth="yes"/>
      <point x="52" y="572"/>
      <point x="170" y="716"/>
      <point x="354" y="716" type="curve" smooth="yes"/>
      <point x="538" y="716"/>
      <point x="656" y="572"/>
      <point x="656" y="350" type="curve" smooth="yes"/>
      <point x="656" y="129"/>
      <point x="538" y="-16"/>
    </contour>
    <contour>
      <point x="354" y="584" type="curve" smooth="yes"/>
      <point x="252" y="584"/>
      <point x="192" y="495"/>
      <point x="192" y="350" type="curve" smooth="yes"/>
      <point x="192" y="205"/>
      <point x="252" y="116"/>
      <point x="354" y="116" type="curve" smooth="yes"/>
      <point x="456" y="116"/>
      <point x="516" y="205"/>
      <point x="516" y="350" type="curve" smooth="yes"/>
      <point x="516" y="495"/>
      <point x="456" y="584"/>
    </contour>
  </outline>
</glyph>
<glyph name="one" format="2">
  <advance width="429"/>
  <unicode hex="0031"/>
  <outline>
    <contour>
      <point x="207" y="0" type="line"/>
      <point x="345" y="0" type="line"/>
      <point x="345" y="700" type="line"/>
      <point x="205" y="700" type="line"/>
      <point x="12" y="569" type="line"/>
      <point x="78" y="457" type="line"/>
      <point x="231" y="561" type="line"/>
      <point x="207" y="560" type="line"/>
    </contour>
  </outline>
</glyph>
<glyph name="two" format="2">
  <advance width="588"/>
  <unicode hex="0032"/>
  <outline>
    <contour>
      <point x="34" y="0" type="line"/>
      <point x="551" y="0" type="line"/>
      <point x="551" y="125" type="line"/>
      <point x="168" y="125" type="line"/>
      <point x="176" y="91" type="line"/>
      <point x="386" y="252" type="line" smooth="yes"/>
      <point x="491" y="333"/>
      <point x="538" y="407"/>
      <point x="538" y="497.835" type="curve" smooth="yes"/>
      <point x="538" y="629"/>
      <point x="440" y="716"/>
      <point x="289.762" y="716" type="curve" smooth="yes"/>
      <point x="155" y="716"/>
      <point x="61" y="646"/>
      <point x="24" y="519" type="curve"/>
      <point x="153" y="484" type="line"/>
      <point x="173" y="553"/>
      <point x="220" y="592"/>
      <point x="288.137" y="592" type="curve" smooth="yes"/>
      <point x="358" y="592"/>
      <point x="400" y="551"/>
      <point x="400" y="495.339" type="curve" smooth="yes"/>
      <point x="400" y="446"/>
      <point x="367" y="393"/>
      <point x="308" y="346" type="curve" smooth="yes"/>
      <point x="34" y="128" type="line"/>
    </contour>
  </outline>
</glyph>
<glyph name="three" format="2">
  <advance width="616"/>
  <unicode hex="0033"/>
  <outline>
    <contour>
      <point x="306.757" y="-16" type="curve" smooth="yes"/>
      <point x="469" y="-16"/>
      <point x="574" y="70"/>
      <point x="574" y="198.869" type="curve" smooth="yes"/>
      <point x="574" y="286"/>
      <point x="526" y="349"/>
      <point x="443" y="372" type="curve"/>
      <point x="444" y="354" type="line"/>
      <point x="517" y="376"/>
      <point x="559" y="433"/>
      <point x="559" y="512.826" type="curve" smooth="yes"/>
      <point x="559" y="636"/>
      <point x="459" y="716"/>
      <point x="308.111" y="716" type="curve" smooth="yes"/>
      <point x="183" y="716"/>
      <point x="95" y="661"/>
      <point x="42" y="555" type="curve"/>
      <point x="160" y="497" type="line"/>
      <point x="187" y="558"/>
      <point x="237" y="592"/>
      <point x="304.052" y="592" type="curve" smooth="yes"/>
      <point x="374" y="592"/>
      <point x="421" y="555"/>
      <point x="421" y="500.424" type="curve" smooth="yes"/>
      <point x="421" y="452"/>
      <point x="384" y="421"/>
      <point x="328" y="421" type="curve" smooth="yes"/>
      <point x="201" y="421" type="line"/>
      <point x="201" y="297" type="line"/>
      <point x="329" y="297" type="line" smooth="yes"/>
      <point x="398" y="297"/>
      <point x="436" y="264"/>
      <point x="436" y="211.272" type="curve" smooth="yes"/>
      <point x="436" y="149"/>
      <point x="383" y="110"/>
      <point x="302.513" y="110" type="curve" smooth="yes"/>
      <point x="221" y="110"/>
      <point x="171" y="150"/>
      <point x="143" y="224" type="curve"/>
      <point x="22" y="167" type="line"/>
      <point x="73" y="46"/>
      <point x="169" y="-16"/>
    </contour>
  </outline>
</glyph>
<glyph name="four" format="2">
  <advance width="651"/>
  <unicode hex="0034"/>
  <outline>
    <contour>
      <point x="377" y="0" type="line"/>
      <point x="507" y="0" type="line"/>
      <point x="507" y="156" type="line"/>
      <point x="603" y="156" type="line"/>
      <point x="603" y="274" type="line"/>
      <point x="507" y="274" type="line"/>
      <point x="507" y="700" type="line"/>
      <point x="355" y="700" type="line"/>
      <point x="38" y="298" type="line"/>
      <point x="38" y="156" type="line"/>
      <point x="377" y="156" type="line"/>
    </contour>
    <contour>
      <point x="118" y="218" type="line"/>
      <point x="424" y="606" type="line"/>
      <point x="377" y="608" type="line"/>
      <point x="377" y="274" type="line"/>
      <point x="117" y="274" type="line"/>
    </contour>
  </outline>
</glyph>
<glyph name="five" format="2">
  <advance width="609"/>
  <unicode hex="0035"/>
  <outline>
    <contour>
      <point x="288.294" y="-16" type="curve" smooth="yes"/>
      <point x="169" y="-16"/>
      <point x="81" y="33"/>
      <point x="28" y="129" type="curve"/>
      <point x="141" y="200" type="line"/>
      <point x="169" y="139"/>
      <point x="219" y="108"/>
      <point x="286.28" y="108" type="curve" smooth="yes"/>
      <point x="370" y="108"/>
      <point x="425" y="156"/>
      <point x="425" y="230.692" type="curve" smooth="yes"/>
      <point x="425" y="299"/>
      <point x="379" y="351"/>
      <point x="287.71" y="351" type="curve" smooth="yes"/>
      <point x="234" y="351"/>
      <point x="194" y="333"/>
      <point x="167" y="294" type="curve"/>
      <point x="63" y="347" type="line"/>
      <point x="81" y="700" type="line"/>
      <point x="525" y="700" type="line"/>
      <point x="525" y="577" type="line"/>
      <point x="198" y="577" type="line"/>
      <point x="189" y="401" type="line"/>
      <point x="164" y="420" type="line"/>
      <point x="197" y="454"/>
      <point x="250" y="472"/>
      <point x="314.2" y="472" type="curve" smooth="yes"/>
      <point x="464" y="472"/>
      <point x="561" y="374"/>
      <point x="561" y="230.543" type="curve" smooth="yes"/>
      <point x="561" y="82"/>
      <point x="457" y="-16"/>
    </contour>
  </outline>
</glyph>
<glyph name="six" format="2">
  <advance width="631"/>
  <unicode hex="0036"/>
  <outline>
    <contour>
      <point x="330" y="105" type="curve" smooth="yes"/>
      <point x="255" y="105"/>
      <point x="201" y="155"/>
      <point x="201" y="226" type="curve" smooth="yes"/>
      <point x="201" y="299"/>
      <point x="259" y="342"/>
      <point x="329" y="342" type="curve" smooth="yes"/>
      <point x="402" y="342"/>
      <point x="459" y="296"/>
      <point x="459" y="224" type="curve" smooth="yes"/>
      <point x="459" y="151"/>
      <point x="402" y="105"/>
    </contour>
    <contour>
      <point x="331" y="-16" type="curve" smooth="yes"/>
      <point x="489" y="-16"/>
      <point x="593" y="84"/>
      <point x="593" y="227" type="curve" smooth="yes"/>
      <point x="593" y="365"/>
      <point x="496" y="460"/>
      <point x="356" y="460" type="curve" smooth="yes"/>
      <point x="268" y="460"/>
      <point x="201" y="422"/>
      <point x="163" y="350" type="curve"/>
      <point x="185" y="350" type="line"/>
      <point x="185" y="363"/>
      <point x="183" y="381"/>
      <point x="183" y="403" type="curve" smooth="yes"/>
      <point x="183" y="522"/>
      <point x="244" y="595"/>
      <point x="343" y="595" type="curve" smooth="yes"/>
      <point x="407" y="595"/>
      <point x="455" y="564"/>
      <point x="482" y="512" type="curve"/>
      <point x="587" y="582" type="line"/>
      <point x="533" y="673"/>
      <point x="454" y="716"/>
      <point x="345" y="716" type="curve" smooth="yes"/>
      <point x="159" y="716"/>
      <point x="52" y="590"/>
      <point x="52" y="358" type="curve" smooth="yes"/>
      <point x="52" y="332" type="line" smooth="yes"/>
      <point x="52" y="109"/>
      <point x="155" y="-16"/>
    </contour>
  </outline>
</glyph>
<glyph name="seven" format="2">
  <advance width="560"/>
  <unicode hex="0037"/>
  <outline>
    <contour>
      <point x="111" y="0" type="line"/>
      <point x="265" y="0" type="line"/>
      <point x="526" y="560" type="line"/>
      <point x="526" y="700" type="line"/>
      <point x="38" y="700" type="line"/>
      <point x="38" y="570" type="line"/>
      <point x="376" y="570" type="line"/>
    </contour>
  </outline>
</glyph>
<glyph name="eight" format="2">
  <advance width="612"/>
  <unicode hex="0038"/>
  <outline>
    <contour>
      <point x="306" y="412" type="curve" smooth="yes"/>
      <point x="375" y="412"/>
      <point x="417" y="450"/>
      <point x="417" y="505" type="curve" smooth="yes"/>
      <point x="417" y="560"/>
      <point x="375" y="598"/>
      <point x="306" y="598" type="curve" smooth="yes"/>
      <point x="237" y="598"/>
      <point x="195" y="560"/>
      <point x="195" y="505" type="curve" smooth="yes"/>
      <point x="195" y="450"/>
      <point x="237" y="412"/>
    </contour>
    <contour>
      <point x="306" y="104" type="curve" smooth="yes"/>
      <point x="385" y="104"/>
      <point x="434" y="143"/>
      <point x="434" y="204" type="curve" smooth="yes"/>
      <point x="434" y="265"/>
      <point x="385" y="304"/>
      <point x="306" y="304" type="curve" smooth="yes"/>
      <point x="227" y="304"/>
      <point x="178" y="265"/>
      <point x="178" y="204" type="curve" smooth="yes"/>
      <point x="178" y="143"/>
      <point x="227" y="104"/>
    </contour>
    <contour>
      <point x="306" y="-16" type="curve" smooth="yes"/>
      <point x="149" y="-16"/>
      <point x="38" y="66"/>
      <point x="38" y="193" type="curve" smooth="yes"/>
      <point x="38" y="277"/>
      <point x="86" y="338"/>
      <point x="164" y="366" type="curve"/>
      <point x="164" y="355" type="line"/>
      <point x="91" y="387"/>
      <point x="55" y="445"/>
      <point x="55" y="516" type="curve" smooth="yes"/>
      <point x="55" y="635"/>
      <point x="158" y="716"/>
      <point x="306" y="716" type="curve" smooth="yes"/>
      <point x="454" y="716"/>
      <point x="557" y="635"/>
      <point x="557" y="516" type="curve" smooth="yes"/>
      <point x="557" y="445"/>
      <point x="521" y="387"/>
      <point x="448" y="355" type="curve"/>
      <point x="448" y="366" type="line"/>
      <point x="526" y="338"/>
      <point x="574" y="277"/>
      <point x="574" y="193" type="curve" smooth="yes"/>
      <point x="574" y="66"/>
      <point x="463" y="-16"/>
    </contour>
  </outline>
</glyph>
<glyph name="less" format="2">
  <advance width="535"/>
  <unicode hex="003C"/>
  <outline>
    <contour>
      <point x="54" y="294" type="line"/>
      <point x="460" y="90" type="line"/>
      <point x="505" y="206" type="line"/>
      <point x="177" y="362" type="line"/>
      <point x="177" y="352" type="line"/>
      <point x="505" y="504" type="line"/>
      <point x="460" y="616" type="line"/>
      <point x="54" y="416" type="line"/>
    </contour>
  </outline>
</glyph>
<glyph name="equal" format="2">
  <advance width="572"/>
  <unicode hex="003D"/>
  <outline>
    <contour>
      <point x="46" y="164" type="line"/>
      <point x="526" y="164" type="line"/>
      <point x="526" y="276" type="line"/>
      <point x="46" y="276" type="line"/>
    </contour>
    <contour>
      <point x="46" y="384" type="line"/>
      <point x="526" y="384" type="line"/>
      <point x="526" y="496" type="line"/>
      <point x="46" y="496" type="line"/>
    </contour>
  </outline>
</glyph>
<glyph name="greater" format="2">
  <advance width="535"/>
  <unicode hex="003E"/>
  <outline>
    <contour>
      <point x="481" y="294" type="line"/>
      <point x="481" y="416" type="line"/>
      <point x="75" y="616" type="line"/>
      <point x="30" y="504" type="line"/>
      <point x="358" y="352" type="line"/>
      <point x="358" y="362" type="line"/>
      <point x="30" y="206" type="line"/>
      <point x="75" y="90" type="line"/>
    </contour>
  </outline>
</glyph>
<glyph name="question" format="2">
  <advance width="556"/>
  <unicode hex="003F"/>
  <outline>
    <component base="period" xOffset="160"/>
    <contour>
      <point x="205" y="204" type="line"/>
      <point x="335" y="204" type="line"/>
      <point x="335" y="224" type="line" smooth="yes"/>
      <point x="335" y="303"/>
      <point x="377" y="323"/>
      <point x="427" y="355" type="curve" smooth="yes"/>
      <point x="497" y="399"/>
      <point x="528" y="452"/>
      <point x="528" y="519.035" type="curve" smooth="yes"/>
      <point x="528" y="637"/>
      <point x="432" y="716"/>
      <point x="285.172" y="716" type="curve" smooth="yes"/>
      <point x="145" y="716"/>
      <point x="46" y="644"/>
      <point x="12" y="520" type="curve"/>
      <point x="146" y="488" type="line"/>
      <point x="165" y="554"/>
      <point x="217" y="591"/>
      <point x="283.344" y="591" type="curve" smooth="yes"/>
      <point x="346" y="591"/>
      <point x="388" y="558"/>
      <point x="388" y="512.28" type="curve" smooth="yes"/>
      <point x="388" y="473"/>
      <point x="357" y="447"/>
      <point x="319" y="424" type="curve" smooth="yes"/>
      <point x="269" y="393"/>
      <point x="205" y="361"/>
      <point x="205" y="232" type="curve" smooth="yes"/>
    </contour>
  </outline>
</glyph>
<glyph name="at" format="2">
  <advance width="913"/>
  <unicode hex="0040"/>
  <outline>
    <contour>
      <point x="757" y="292.123" type="curve" smooth="yes"/>
      <point x="757" y="228"/>
      <point x="740" y="196"/>
      <point x="708.482" y="196" type="curve" smooth="yes"/>
      <point x="679" y="196"/>
      <point x="662" y="224"/>
      <point x="662" y="274" type="curve" smooth="yes"/>
      <point x="662" y="477" type="line"/>
      <point x="554" y="477" type="line"/>
      <point x="554" y="282" type="line"/>
      <point x="560" y="282" type="line"/>
      <point x="560" y="160"/>
      <point x="611" y="94"/>
      <point x="704.901" y="94" type="curve" smooth="yes"/>
      <point x="805" y="94"/>
      <point x="865" y="169"/>
      <point x="865" y="303.172" type="curve" smooth="yes"/>
      <point x="865" y="531"/>
      <point x="692" y="700"/>
      <point x="460.542" y="700" type="curve" smooth="yes"/>
      <point x="223" y="700"/>
      <point x="48" y="522"/>
      <point x="48" y="280" type="curve" smooth="yes"/>
      <point x="48" y="38"/>
      <point x="223" y="-140"/>
      <point x="463.834" y="-140" type="curve" smooth="yes"/>
      <point x="578" y="-140"/>
      <point x="682" y="-100"/>
      <point x="751" y="-30" type="curve"/>
      <point x="682" y="58" type="line"/>
      <point x="630" y="4"/>
      <point x="546" y="-28"/>
      <point x="460.663" y="-28" type="curve" smooth="yes"/>
      <point x="292" y="-28"/>
      <point x="162" y="97"/>
      <point x="162" y="280.366" type="curve" smooth="yes"/>
      <point x="162" y="458"/>
      <point x="284" y="588"/>
      <point x="460.763" y="588" type="curve" smooth="yes"/>
      <point x="632" y="588"/>
      <point x="757" y="466"/>
    </contour>
    <contour>
      <point x="249" y="281" type="curve" smooth="yes"/>
      <point x="249" y="163"/>
      <point x="331" y="81"/>
      <point x="433" y="81" type="curve" smooth="yes" name=".hr01"/>
      <point x="526" y="81"/>
      <point x="586" y="150"/>
      <point x="594" y="260" type="curve"/>
      <point x="586" y="282" type="line"/>
      <point x="584" y="398"/>
      <point x="533" y="483"/>
      <point x="432" y="483" type="curve" smooth="yes"/>
      <point x="330" y="483"/>
      <point x="249" y="397"/>
    </contour>
    <contour>
      <point x="357" y="282" type="curve" smooth="yes"/>
      <point x="357" y="346"/>
      <point x="398" y="385"/>
      <point x="455" y="385" type="curve" smooth="yes"/>
      <point x="512" y="385"/>
      <point x="554" y="346"/>
      <point x="554" y="282" type="curve" smooth="yes"/>
      <point x="554" y="218"/>
      <point x="512" y="179"/>
      <point x="455" y="179" type="curve" smooth="yes"/>
      <point x="398" y="179"/>
      <point x="357" y="218"/>
    </contour>
  </outline>
</glyph>
<glyph name="A" format="2">
  <advance width="690"/>
  <unicode hex="0041"/>
  <anchor x="345" y="700" name="top"/>
  <anchor x="672" y="0" name="bottom"/>
  <outline>
    <contour>
      <point x="167" y="149" type="line"/>
      <point x="531" y="149" type="line"/>
      <point x="531" y="272" type="line"/>
      <point x="167" y="272" type="line"/>
    </contour>
    <contour>
      <point x="18" y="0" type="line"/>
      <point x="164" y="0" type="line"/>
      <point x="367" y="606" type="line"/>
      <point x="319" y="606" type="line"/>
      <point x="522" y="0" type="line"/>
      <point x="672" y="0" type="line"/>
      <point x="419" y="700" type="line"/>
      <point x="271" y="700" type="line"/>
    </contour>
  </outline>
</glyph>
<glyph name="B" format="2">
  <advance width="651"/>
  <unicode hex="0042"/>
  <outline>
    <contour>
      <point x="78" y="700" type="line"/>
      <point x="78" y="0" type="line"/>
      <point x="388" y="0" type="line" smooth="yes"/>
      <point x="530" y="0"/>
      <point x="615" y="80"/>
      <point x="615" y="197" type="curve" smooth="yes"/>
      <point x="615" y="287"/>
      <point x="566" y="350"/>
      <point x="471" y="371" type="curve"/>
      <point x="470" y="361" type="line"/>
      <point x="544" y="382"/>
      <point x="587" y="440"/>
      <point x="587" y="518" type="curve" smooth="yes"/>
      <point x="587" y="628"/>
      <point x="502" y="700"/>
      <point x="373" y="700" type="curve" smooth="yes"/>
    </contour>
    <contour>
      <point x="216" y="418" type="line"/>
      <point x="216" y="578" type="line"/>
      <point x="361" y="578" type="line" smooth="yes"/>
      <point x="410" y="578"/>
      <point x="446" y="546"/>
      <point x="446" y="498" type="curve" smooth="yes"/>
      <point x="446" y="450"/>
      <point x="410" y="418"/>
      <point x="361" y="418" type="curve" smooth="yes"/>
    </contour>
    <contour>
      <point x="216" y="300" type="line"/>
      <point x="377" y="300" type="line" smooth="yes"/>
      <point x="434" y="300"/>
      <point x="473" y="265"/>
      <point x="473" y="211" type="curve" smooth="yes"/>
      <point x="473" y="157"/>
      <point x="434" y="122"/>
      <point x="377" y="122" type="curve" smooth="yes"/>
      <point x="216" y="122" type="line"/>
    </contour>
  </outline>
</glyph>
<glyph name="C" format="2">
  <advance width="760"/>
  <unicode hex="0043"/>
  <anchor x="409" y="700" name="top"/>
  <anchor x="417" y="0" name="bottom"/>
  <outline>
    <contour>
      <point x="412.961" y="-16" type="curve" smooth="yes"/>
      <point x="563" y="-16"/>
      <point x="681" y="60"/>
      <point x="733" y="187" type="curve"/>
      <point x="607" y="249" type="line"/>
      <point x="575" y="166"/>
      <point x="506" y="118"/>
      <point x="414.045" y="118" type="curve" smooth="yes"/>
      <point x="284" y="118"/>
      <point x="194" y="214"/>
      <point x="194" y="350" type="curve" smooth="yes"/>
      <point x="194" y="486"/>
      <point x="284" y="582"/>
      <point x="414.023" y="582" type="curve" smooth="yes"/>
      <point x="505" y="582"/>
      <point x="574" y="535"/>
      <point x="606" y="453" type="curve"/>
      <point x="731" y="518" type="line"/>
      <point x="678" y="642"/>
      <point x="561" y="716"/>
      <point x="412.954" y="716" type="curve" smooth="yes"/>
      <point x="198" y="716"/>
      <point x="48" y="560"/>
      <point x="48" y="350" type="curve" smooth="yes"/>
      <point x="48" y="140"/>
      <point x="198" y="-16"/>
    </contour>
  </outline>
</glyph>
<glyph name="D" format="2">
  <advance width="735"/>
  <unicode hex="0044"/>
  <outline>
    <contour>
      <point x="78" y="0" type="line"/>
      <point x="338" y="0" type="line" smooth="yes"/>
      <point x="540" y="0"/>
      <point x="687" y="150"/>
      <point x="687" y="350" type="curve" smooth="yes"/>
      <point x="687" y="550"/>
      <point x="540" y="700"/>
      <point x="338" y="700" type="curve" smooth="yes"/>
      <point x="78" y="700" type="line"/>
    </contour>
    <contour>
      <point x="321" y="570" type="line" smooth="yes"/>
      <point x="456" y="570"/>
      <point x="541" y="480"/>
      <point x="541" y="350" type="curve" smooth="yes"/>
      <point x="541" y="220"/>
      <point x="456" y="130"/>
      <point x="321" y="130" type="curve" smooth="yes"/>
      <point x="220" y="130" type="line"/>
      <point x="220" y="570" type="line"/>
    </contour>
  </outline>
</glyph>
<glyph name="E" format="2">
  <advance width="588"/>
  <unicode hex="0045"/>
  <outline>
    <contour>
      <point x="78" y="0" type="line"/>
      <point x="540" y="0" type="line"/>
      <point x="540" y="130" type="line"/>
      <point x="220" y="130" type="line"/>
      <point x="220" y="298" type="line"/>
      <point x="500" y="298" type="line"/>
      <point x="500" y="428" type="line"/>
      <point x="220" y="428" type="line"/>
      <point x="220" y="570" type="line"/>
      <point x="540" y="570" type="line"/>
      <point x="540" y="700" type="line"/>
      <point x="78" y="700" type="line"/>
    </contour>
  </outline>
</glyph>
<glyph name="F" format="2">
  <advance width="578"/>
  <unicode hex="0046"/>
  <outline>
    <contour>
      <point x="78" y="0" type="line"/>
      <point x="222" y="0" type="line"/>
      <point x="222" y="284" type="line"/>
      <point x="490" y="284" type="line"/>
      <point x="490" y="416" type="line"/>
      <point x="222" y="416" type="line"/>
      <point x="222" y="568" type="line"/>
      <point x="530" y="568" type="line"/>
      <point x="530" y="700" type="line"/>
      <point x="78" y="700" type="line"/>
    </contour>
  </outline>
</glyph>
<glyph name="G" format="2">
  <advance width="802"/>
  <unicode hex="0047"/>
  <outline>
    <contour>
      <point x="754" y="322" type="curve" smooth="yes"/>
      <point x="754" y="340"/>
      <point x="753" y="361"/>
      <point x="750" y="387" type="curve"/>
      <point x="354" y="387" type="line"/>
      <point x="354" y="261" type="line"/>
      <point x="628" y="261" type="line"/>
      <point x="613" y="281" type="line"/>
      <point x="604" y="179"/>
      <point x="528" y="114"/>
      <point x="417" y="114" type="curve" smooth="yes"/>
      <point x="283" y="114"/>
      <point x="190" y="209"/>
      <point x="190" y="350" type="curve" smooth="yes"/>
      <point x="190" y="489"/>
      <point x="281" y="586"/>
      <point x="412" y="586" type="curve" smooth="yes"/>
      <point x="499" y="586"/>
      <point x="566" y="543"/>
      <point x="604" y="466" type="curve"/>
      <point x="724" y="539" type="line"/>
      <point x="668" y="650"/>
      <point x="554" y="716"/>
      <point x="413" y="716" type="curve" smooth="yes"/>
      <point x="195" y="716"/>
      <point x="48" y="560"/>
      <point x="48" y="351" type="curve" smooth="yes"/>
      <point x="48" y="141"/>
      <point x="195" y="-16"/>
      <point x="415" y="-16" type="curve" smooth="yes"/>
      <point x="619" y="-16"/>
      <point x="754" y="119"/>
    </contour>
  </outline>
</glyph>
<glyph name="H" format="2">
  <advance width="744"/>
  <unicode hex="0048"/>
  <outline>
    <contour>
      <point x="78" y="0" type="line"/>
      <point x="220" y="0" type="line"/>
      <point x="220" y="306" type="line"/>
      <point x="524" y="306" type="line"/>
      <point x="524" y="0" type="line"/>
      <point x="666" y="0" type="line"/>
      <point x="666" y="700" type="line"/>
      <point x="524" y="700" type="line"/>
      <point x="524" y="436" type="line"/>
      <point x="220" y="436" type="line"/>
      <point x="220" y="700" type="line"/>
      <point x="78" y="700" type="line"/>
    </contour>
  </outline>
</glyph>
<glyph name="I" format="2">
  <advance width="298"/>
  <unicode hex="0049"/>
  <outline>
    <contour>
      <point x="78" y="0" type="line"/>
      <point x="220" y="0" type="line"/>
      <point x="220" y="700" type="line"/>
      <point x="78" y="700" type="line"/>
    </contour>
  </outline>
</glyph>
<glyph name="J" format="2">
  <advance width="626"/>
  <unicode hex="004A"/>
  <outline>
    <contour>
      <point x="300" y="122" type="curve" smooth="yes"/>
      <point x="366" y="122"/>
      <point x="408" y="168"/>
      <point x="408" y="239" type="curve" smooth="yes"/>
      <point x="408" y="700" type="line"/>
      <point x="550" y="700" type="line"/>
      <point x="550" y="234" type="line" smooth="yes"/>
      <point x="550" y="84"/>
      <point x="452" y="-14"/>
      <point x="300" y="-14" type="curve" smooth="yes"/>
      <point x="148" y="-14"/>
      <point x="50" y="84"/>
      <point x="50" y="234" type="curve" smooth="yes"/>
      <point x="50" y="260" type="line"/>
      <point x="192" y="274" type="line"/>
      <point x="192" y="239" type="line" smooth="yes"/>
      <point x="192" y="168"/>
      <point x="234" y="122"/>
    </contour>
  </outline>
</glyph>
<glyph name="K" format="2">
  <advance width="694"/>
  <unicode hex="004B"/>
  <outline>
    <contour>
      <point x="78" y="0" type="line"/>
      <point x="222" y="0" type="line"/>
      <point x="222" y="700" type="line"/>
      <point x="78" y="700" type="line"/>
    </contour>
    <contour>
      <point x="209" y="192" type="line"/>
      <point x="657" y="700" type="line"/>
      <point x="482" y="700" type="line"/>
      <point x="206" y="379" type="line"/>
    </contour>
    <contour>
      <point x="287" y="385" type="line"/>
      <point x="516" y="0" type="line"/>
      <point x="676" y="0" type="line"/>
      <point x="383" y="480" type="line"/>
    </contour>
  </outline>
</glyph>
<glyph name="L" format="2">
  <advance width="576"/>
  <unicode hex="004C"/>
  <outline>
    <contour>
      <point x="78" y="0" type="line"/>
      <point x="540" y="0" type="line"/>
      <point x="540" y="132" type="line"/>
      <point x="222" y="132" type="line"/>
      <point x="222" y="700" type="line"/>
      <point x="78" y="700" type="line"/>
    </contour>
  </outline>
</glyph>
<glyph name="M" format="2">
  <advance width="914"/>
  <unicode hex="004D"/>
  <outline>
    <contour>
      <point x="462" y="265" type="line"/>
      <point x="258" y="700" type="line"/>
      <point x="78" y="700" type="line"/>
      <point x="78" y="0" type="line"/>
      <point x="214" y="0" type="line"/>
      <point x="214" y="505" type="line"/>
      <point x="209" y="507" type="line"/>
      <point x="412" y="93" type="line"/>
      <point x="502" y="93" type="line"/>
      <point x="705" y="507" type="line"/>
      <point x="700" y="505" type="line"/>
      <point x="700" y="0" type="line"/>
      <point x="836" y="0" type="line"/>
      <point x="836" y="700" type="line"/>
      <point x="660" y="700" type="line"/>
      <point x="456" y="265" type="line"/>
    </contour>
  </outline>
</glyph>
<glyph name="N" format="2">
  <advance width="746"/>
  <unicode hex="004E"/>
  <outline>
    <contour>
      <point x="78" y="0" type="line"/>
      <point x="214" y="0" type="line"/>
      <point x="214" y="488" type="line"/>
      <point x="208" y="486" type="line"/>
      <point x="518" y="0" type="line"/>
      <point x="668" y="0" type="line"/>
      <point x="668" y="700" type="line"/>
      <point x="532" y="700" type="line"/>
      <point x="532" y="212" type="line"/>
      <point x="538" y="214" type="line"/>
      <point x="228" y="700" type="line"/>
      <point x="78" y="700" type="line"/>
    </contour>
  </outline>
</glyph>
<glyph name="O" format="2">
  <advance width="828"/>
  <unicode hex="004F"/>
  <anchor x="414" y="700" name="top"/>
  <outline>
    <contour>
      <point x="414" y="-16" type="curve" smooth="yes"/>
      <point x="628" y="-16"/>
      <point x="780" y="140"/>
      <point x="780" y="350" type="curve" smooth="yes"/>
      <point x="780" y="560"/>
      <point x="628" y="716"/>
      <point x="414" y="716" type="curve" smooth="yes"/>
      <point x="200" y="716"/>
      <point x="48" y="560"/>
      <point x="48" y="350" type="curve" smooth="yes"/>
      <point x="48" y="140"/>
      <point x="200" y="-16"/>
    </contour>
    <contour>
      <point x="414" y="118" type="curve" smooth="yes"/>
      <point x="284" y="118"/>
      <point x="194" y="217"/>
      <point x="194" y="350" type="curve" smooth="yes"/>
      <point x="194" y="483"/>
      <point x="284" y="582"/>
      <point x="414" y="582" type="curve" smooth="yes"/>
      <point x="544" y="582"/>
      <point x="634" y="483"/>
      <point x="634" y="350" type="curve" smooth="yes"/>
      <point x="634" y="217"/>
      <point x="544" y="118"/>
    </contour>
  </outline>
</glyph>
<glyph name="P" format="2">
  <advance width="639"/>
  <unicode hex="0050"/>
  <outline>
    <contour>
      <point x="78" y="0" type="line"/>
      <point x="218" y="0" type="line"/>
      <point x="218" y="232" type="line"/>
      <point x="360" y="232" type="line" smooth="yes"/>
      <point x="504" y="232"/>
      <point x="603" y="324"/>
      <point x="603" y="466" type="curve" smooth="yes"/>
      <point x="603" y="607"/>
      <point x="504" y="700"/>
      <point x="360" y="700" type="curve" smooth="yes"/>
      <point x="78" y="700" type="line"/>
    </contour>
    <contour>
      <point x="218" y="360" type="line"/>
      <point x="218" y="572" type="line"/>
      <point x="351" y="572" type="line" smooth="yes"/>
      <point x="417" y="572"/>
      <point x="460" y="527"/>
      <point x="460" y="466" type="curve" smooth="yes"/>
      <point x="460" y="405"/>
      <point x="417" y="360"/>
      <point x="351" y="360" type="curve" smooth="yes"/>
    </contour>
  </outline>
</glyph>
<glyph name="Q" format="2">
  <advance width="840"/>
  <unicode hex="0051"/>
  <outline>
    <contour>
      <point x="773" y="36" type="line"/>
      <point x="526" y="322" type="line"/>
      <point x="437" y="245" type="line"/>
      <point x="684" y="-41" type="line"/>
    </contour>
    <contour>
      <point x="421" y="-16" type="curve" smooth="yes"/>
      <point x="634" y="-16"/>
      <point x="786" y="140"/>
      <point x="786" y="350" type="curve" smooth="yes"/>
      <point x="786" y="560"/>
      <point x="634" y="716"/>
      <point x="421" y="716" type="curve" smooth="yes"/>
      <point x="206" y="716"/>
      <point x="54" y="560"/>
      <point x="54" y="350" type="curve" smooth="yes"/>
      <point x="54" y="140"/>
      <point x="206" y="-16"/>
    </contour>
    <contour>
      <point x="421" y="120" type="curve" smooth="yes"/>
      <point x="290" y="120"/>
      <point x="200" y="219"/>
      <point x="200" y="350" type="curve" smooth="yes"/>
      <point x="200" y="481"/>
      <point x="290" y="580"/>
      <point x="421" y="580" type="curve" smooth="yes"/>
      <point x="550" y="580"/>
      <point x="640" y="481"/>
      <point x="640" y="350" type="curve" smooth="yes"/>
      <point x="640" y="219"/>
      <point x="550" y="120"/>
    </contour>
  </outline>
</glyph>
<glyph name="R" format="2">
  <advance width="660"/>
  <unicode hex="0052"/>
  <outline>
    <contour>
      <point x="78" y="0" type="line"/>
      <point x="216" y="0" type="line"/>
      <point x="216" y="238" type="line"/>
      <point x="362" y="238" type="line" smooth="yes"/>
      <point x="506" y="238"/>
      <point x="603" y="325"/>
      <point x="603" y="467" type="curve" smooth="yes"/>
      <point x="603" y="609"/>
      <point x="506" y="700"/>
      <point x="362" y="700" type="curve" smooth="yes"/>
      <point x="78" y="700" type="line"/>
    </contour>
    <contour>
      <point x="216" y="366" type="line"/>
      <point x="216" y="572" type="line"/>
      <point x="359" y="572" type="line" smooth="yes"/>
      <point x="413" y="572"/>
      <point x="460" y="530"/>
      <point x="460" y="467" type="curve" smooth="yes"/>
      <point x="460" y="404"/>
      <point x="413" y="366"/>
      <point x="359" y="366" type="curve" smooth="yes"/>
    </contour>
    <contour>
      <point x="325" y="263" type="line"/>
      <point x="488" y="0" type="line"/>
      <point x="642" y="0" type="line"/>
      <point x="430" y="329" type="line"/>
    </contour>
  </outline>
</glyph>
<glyph name="S" format="2">
  <advance width="650"/>
  <unicode hex="0053"/>
  <outline>
    <contour>
      <point x="333" y="-16" type="curve" smooth="yes"/>
      <point x="505" y="-16"/>
      <point x="614" y="71"/>
      <point x="614" y="206" type="curve" smooth="yes"/>
      <point x="614" y="470"/>
      <point x="202" y="389"/>
      <point x="202" y="514" type="curve" smooth="yes"/>
      <point x="202" y="554"/>
      <point x="245" y="590"/>
      <point x="320" y="590" type="curve" smooth="yes"/>
      <point x="398" y="590"/>
      <point x="458" y="553"/>
      <point x="488" y="489" type="curve"/>
      <point x="607" y="551" type="line"/>
      <point x="550" y="661"/>
      <point x="447" y="716"/>
      <point x="319" y="716" type="curve" smooth="yes"/>
      <point x="161" y="716"/>
      <point x="60" y="631"/>
      <point x="60" y="506" type="curve" smooth="yes"/>
      <point x="60" y="253"/>
      <point x="470" y="337"/>
      <point x="470" y="197" type="curve" smooth="yes"/>
      <point x="470" y="145"/>
      <point x="413" y="112"/>
      <point x="336" y="112" type="curve" smooth="yes"/>
      <point x="247" y="112"/>
      <point x="186" y="156"/>
      <point x="148" y="236" type="curve"/>
      <point x="26" y="176" type="line"/>
      <point x="83" y="48"/>
      <point x="185" y="-16"/>
    </contour>
  </outline>
</glyph>
<glyph name="T" format="2">
  <advance width="620"/>
  <unicode hex="0054"/>
  <outline>
    <contour>
      <point x="32" y="700" type="line"/>
      <point x="32" y="568" type="line"/>
      <point x="238" y="568" type="line"/>
      <point x="238" y="0" type="line"/>
      <point x="382" y="0" type="line"/>
      <point x="382" y="568" type="line"/>
      <point x="588" y="568" type="line"/>
      <point x="588" y="700" type="line"/>
    </contour>
  </outline>
</glyph>
<glyph name="U" format="2">
  <advance width="734"/>
  <unicode hex="0055"/>
  <outline>
    <contour>
      <point x="367" y="-16" type="curve" smooth="yes"/>
      <point x="534" y="-16"/>
      <point x="658" y="86"/>
      <point x="658" y="273" type="curve" smooth="yes"/>
      <point x="658" y="700" type="line"/>
      <point x="516" y="700" type="line"/>
      <point x="516" y="284" type="line" smooth="yes"/>
      <point x="516" y="174"/>
      <point x="457" y="118"/>
      <point x="368" y="118" type="curve" smooth="yes"/>
      <point x="277" y="118"/>
      <point x="218" y="174"/>
      <point x="218" y="284" type="curve" smooth="yes"/>
      <point x="218" y="700" type="line"/>
      <point x="76" y="700" type="line"/>
      <point x="76" y="273" type="line" smooth="yes"/>
      <point x="76" y="86"/>
      <point x="200" y="-16"/>
    </contour>
  </outline>
</glyph>
<glyph name="V" format="2">
  <advance width="690"/>
  <unicode hex="0056"/>
  <outline>
    <contour>
      <point x="269" y="0" type="line"/>
      <point x="421" y="0" type="line"/>
      <point x="672" y="700" type="line"/>
      <point x="517" y="700" type="line"/>
      <point x="339" y="162" type="line"/>
      <point x="353" y="162" type="line"/>
      <point x="175" y="700" type="line"/>
      <point x="18" y="700" type="line"/>
    </contour>
  </outline>
</glyph>
<glyph name="W" format="2">
  <advance width="1022"/>
  <unicode hex="0057"/>
  <outline>
    <contour>
      <point x="213" y="0" type="line"/>
      <point x="370" y="0" type="line"/>
      <point x="515" y="531" type="line"/>
      <point x="507" y="531" type="line"/>
      <point x="652" y="0" type="line"/>
      <point x="809" y="0" type="line"/>
      <point x="1004" y="700" type="line"/>
      <point x="847" y="700" type="line"/>
      <point x="718" y="193" type="line"/>
      <point x="730" y="193" type="line"/>
      <point x="592" y="700" type="line"/>
      <point x="430" y="700" type="line"/>
      <point x="293" y="195" type="line"/>
      <point x="304" y="195" type="line"/>
      <point x="175" y="700" type="line"/>
      <point x="18" y="700" type="line"/>
    </contour>
  </outline>
</glyph>
<glyph name="X" format="2">
  <advance width="656"/>
  <unicode hex="0058"/>
  <outline>
    <contour>
      <point x="237" y="359" type="line"/>
      <point x="419" y="359" type="line"/>
      <point x="623" y="700" type="line"/>
      <point x="467" y="700" type="line"/>
      <point x="313" y="438" type="line"/>
      <point x="345" y="438" type="line"/>
      <point x="191" y="700" type="line"/>
      <point x="33" y="700" type="line"/>
    </contour>
    <contour>
      <point x="18" y="0" type="line"/>
      <point x="180" y="0" type="line"/>
      <point x="343" y="282" type="line"/>
      <point x="311" y="282" type="line"/>
      <point x="474" y="0" type="line"/>
      <point x="638" y="0" type="line"/>
      <point x="419" y="362" type="line"/>
      <point x="237" y="362" type="line"/>
    </contour>
  </outline>
</glyph>
<glyph name="Y" format="2">
  <advance width="658"/>
  <unicode hex="0059"/>
  <anchor x="329" y="700" name="top"/>
  <outline>
    <contour>
      <point x="257" y="0" type="line"/>
      <point x="401" y="0" type="line"/>
      <point x="401" y="247" type="line"/>
      <point x="640" y="700" type="line"/>
      <point x="485" y="700" type="line"/>
      <point x="325" y="386" type="line"/>
      <point x="335" y="386" type="line"/>
      <point x="175" y="700" type="line"/>
      <point x="18" y="700" type="line"/>
      <point x="257" y="247" type="line"/>
    </contour>
  </outline>
</glyph>
<glyph name="Z" format="2">
  <advance width="667"/>
  <unicode hex="005A"/>
  <outline>
    <contour>
      <point x="79" y="570" type="line"/>
      <point x="449" y="570" type="line"/>
      <point x="58" y="140" type="line"/>
      <point x="58" y="0" type="line"/>
      <point x="609" y="0" type="line"/>
      <point x="609" y="130" type="line"/>
      <point x="218" y="130" type="line"/>
      <point x="609" y="561" type="line"/>
      <point x="609" y="700" type="line"/>
      <point x="79" y="700" type="line"/>
    </contour>
  </outline>
</glyph>
<glyph name="bracketleft" format="2">
  <advance width="345"/>
  <unicode hex="005B"/>
  <outline>
    <contour>
      <point x="66" y="-172" type="line"/>
      <point x="319" y="-172" type="line"/>
      <point x="319" y="-50" type="line"/>
      <point x="194" y="-50" type="line"/>
      <point x="194" y="628" type="line"/>
      <point x="319" y="628" type="line"/>
      <point x="319" y="750" type="line"/>
      <point x="66" y="750" type="line"/>
    </contour>
  </outline>
</glyph>
<glyph name="bracketright" format="2">
  <advance width="345"/>
  <unicode hex="005D"/>
  <outline>
    <contour>
      <point x="279" y="-172" type="line"/>
      <point x="279" y="750" type="line"/>
      <point x="26" y="750" type="line"/>
      <point x="26" y="628" type="line"/>
      <point x="151" y="628" type="line"/>
      <point x="151" y="-50" type="line"/>
      <point x="26" y="-50" type="line"/>
      <point x="26" y="-172" type="line"/>
    </contour>
  </outline>
</glyph>
<glyph name="asciicircum" format="2">
  <advance width="450"/>
  <unicode hex="005E"/>
  <outline>
    <contour>
      <point x="143" y="384" type="line"/>
      <point x="225" y="570" type="line"/>
      <point x="307" y="384" type="line"/>
      <point x="438" y="384" type="line"/>
      <point x="287" y="700" type="line"/>
      <point x="163" y="700" type="line"/>
      <point x="12" y="384" type="line"/>
    </contour>
  </outline>
</glyph>
<glyph name="underscore" format="2">
  <advance width="567"/>
  <unicode hex="005F"/>
  <outline>
    <contour>
      <point x="43" y="-131" type="line"/>
      <point x="524" y="-131" type="line"/>
      <point x="524" y="-19" type="line"/>
      <point x="43" y="-19" type="line"/>
    </contour>
  </outline>
</glyph>
<glyph name="grave" format="2">
  <advance width="306"/>
  <unicode hex="0060"/>
  <anchor x="153" y="500" name="_top"/>
  <outline>
    <contour>
      <point x="238" y="546" type="line"/>
      <point x="296" y="635" type="line"/>
      <point x="70" y="778" type="line"/>
      <point x="10" y="687" type="line"/>
    </contour>
  </outline>
</glyph>
<glyph name="a" format="2">
  <advance width="550"/>
  <unicode hex="0061"/>
  <outline>
    <contour>
      <point x="32" y="140" type="curve" smooth="yes"/>
      <point x="32" y="54"/>
      <point x="94" y="-14"/>
      <point x="203" y="-14" type="curve" smooth="yes"/>
      <point x="324" y="-14"/>
      <point x="403" y="69"/>
      <point x="403" y="214" type="curve"/>
      <point x="366" y="220" type="line"/>
      <point x="366" y="142"/>
      <point x="312" y="90"/>
      <point x="238" y="90" type="curve" smooth="yes"/>
      <point x="190" y="90"/>
      <point x="158" y="113"/>
      <point x="158" y="149" type="curve" smooth="yes"/>
      <point x="158" y="184"/>
      <point x="188" y="213"/>
      <point x="281" y="217" type="curve" smooth="yes" name=".hr01"/>
      <point x="426" y="223" type="line"/>
      <point x="426" y="313" type="line"/>
      <point x="259" y="307" type="line" smooth="yes"/>
      <point x="109" y="302"/>
      <point x="32" y="238"/>
    </contour>
    <contour>
      <point x="366" y="0" type="line"/>
      <point x="490" y="0" type="line"/>
      <point x="490" y="308" type="line" smooth="yes"/>
      <point x="490" y="435"/>
      <point x="406" y="514"/>
      <point x="266" y="514" type="curve" smooth="yes"/>
      <point x="157" y="514"/>
      <point x="83" y="466"/>
      <point x="46" y="387" type="curve"/>
      <point x="146" y="337" type="line"/>
      <point x="168" y="384"/>
      <point x="208" y="410"/>
      <point x="262" y="410" type="curve" smooth="yes"/>
      <point x="327" y="410"/>
      <point x="366" y="371"/>
      <point x="366" y="315" type="curve" smooth="yes"/>
    </contour>
  </outline>
</glyph>
<glyph name="b" format="2">
  <advance width="624"/>
  <unicode hex="0062"/>
  <outline>
    <contour>
      <point x="60" y="0" type="line"/>
      <point x="188" y="0" type="line"/>
      <point x="188" y="722" type="line"/>
      <point x="60" y="722" type="line"/>
    </contour>
    <contour>
      <point x="357" y="-14" type="curve" smooth="yes"/>
      <point x="494" y="-14"/>
      <point x="588" y="99" name=".hr01"/>
      <point x="588" y="250" type="curve" smooth="yes"/>
      <point x="588" y="401"/>
      <point x="494" y="514"/>
      <point x="357" y="514" type="curve" smooth="yes"/>
      <point x="220" y="514"/>
      <point x="144" y="401"/>
      <point x="144" y="250" type="curve" smooth="yes"/>
      <point x="144" y="99"/>
      <point x="220" y="-14"/>
    </contour>
    <contour>
      <point x="322" y="106" type="curve" smooth="yes"/>
      <point x="245" y="106"/>
      <point x="188" y="167"/>
      <point x="188" y="251" type="curve" smooth="yes"/>
      <point x="188" y="335"/>
      <point x="245" y="394"/>
      <point x="322" y="394" type="curve" smooth="yes"/>
      <point x="399" y="394"/>
      <point x="456" y="335"/>
      <point x="456" y="251" type="curve" smooth="yes"/>
      <point x="456" y="167"/>
      <point x="399" y="106"/>
    </contour>
  </outline>
</glyph>
<glyph name="c" format="2">
  <advance width="566"/>
  <unicode hex="0063"/>
  <outline>
    <contour>
      <point x="36" y="250" type="curve" smooth="yes"/>
      <point x="36" y="96"/>
      <point x="147" y="-14"/>
      <point x="302.237" y="-14" type="curve" smooth="yes"/>
      <point x="413" y="-14"/>
      <point x="500" y="42"/>
      <point x="537" y="137" type="curve"/>
      <point x="424" y="191" type="line"/>
      <point x="403" y="136"/>
      <point x="358" y="106"/>
      <point x="302.081" y="106" type="curve" smooth="yes"/>
      <point x="223" y="106"/>
      <point x="168" y="166"/>
      <point x="168" y="250" type="curve" smooth="yes"/>
      <point x="168" y="334"/>
      <point x="223" y="394"/>
      <point x="303" y="394" type="curve" smooth="yes"/>
      <point x="358" y="394"/>
      <point x="402" y="365"/>
      <point x="424" y="312" type="curve"/>
      <point x="536" y="369" type="line"/>
      <point x="498" y="460"/>
      <point x="412" y="514"/>
      <point x="302.823" y="514" type="curve" smooth="yes"/>
      <point x="147" y="514"/>
      <point x="36" y="404"/>
    </contour>
  </outline>
</glyph>
<glyph name="d" format="2">
  <advance width="624"/>
  <unicode hex="0064"/>
  <outline>
    <contour>
      <point x="436" y="0" type="line"/>
      <point x="564" y="0" type="line"/>
      <point x="564" y="722" type="line"/>
      <point x="436" y="722" type="line"/>
    </contour>
    <contour>
      <point x="267" y="-14" type="curve" smooth="yes"/>
      <point x="404" y="-14"/>
      <point x="480" y="99"/>
      <point x="480" y="250" type="curve" smooth="yes"/>
      <point x="480" y="401"/>
      <point x="404" y="514"/>
      <point x="267" y="514" type="curve" smooth="yes"/>
      <point x="130" y="514"/>
      <point x="36" y="401"/>
      <point x="36" y="250" type="curve" smooth="yes"/>
      <point x="36" y="99"/>
      <point x="130" y="-14"/>
    </contour>
    <contour>
      <point x="302" y="106" type="curve" smooth="yes"/>
      <point x="225" y="106"/>
      <point x="168" y="167"/>
      <point x="168" y="251" type="curve" smooth="yes"/>
      <point x="168" y="335"/>
      <point x="225" y="394"/>
      <point x="302" y="394" type="curve" smooth="yes"/>
      <point x="379" y="394"/>
      <point x="436" y="335"/>
      <point x="436" y="251" type="curve" smooth="yes"/>
      <point x="436" y="167"/>
      <point x="379" y="106"/>
    </contour>
  </outline>
</glyph>
<glyph name="e" format="2">
  <advance width="585"/>
  <unicode hex="0065"/>
  <outline>
    <contour>
      <point x="305.704" y="-14" type="curve" smooth="yes"/>
      <point x="146" y="-14"/>
      <point x="36" y="95"/>
      <point x="36" y="250.795" type="curve" smooth="yes"/>
      <point x="36" y="408"/>
      <point x="148" y="514"/>
      <point x="300.824" y="514" type="curve" smooth="yes"/>
      <point x="450" y="514"/>
      <point x="549" y="413"/>
      <point x="549" y="266" type="curve" smooth="yes"/>
      <point x="549" y="251"/>
      <point x="548" y="234"/>
      <point x="545" y="214" type="curve"/>
      <point x="144" y="214" type="line"/>
      <point x="144" y="306" type="line"/>
      <point x="440" y="306" type="line"/>
      <point x="421" y="289" type="line"/>
      <point x="417" y="360"/>
      <point x="370" y="406"/>
      <point x="297.959" y="406" type="curve" smooth="yes"/>
      <point x="215" y="406"/>
      <point x="160" y="345"/>
      <point x="160" y="252.83" type="curve" smooth="yes"/>
      <point x="160" y="159"/>
      <point x="217" y="98"/>
      <point x="306.722" y="98" type="curve" smooth="yes"/>
      <point x="363" y="98"/>
      <point x="408" y="122"/>
      <point x="435" y="168" type="curve"/>
      <point x="526" y="96" type="line"/>
      <point x="476" y="24"/>
      <point x="400" y="-14"/>
    </contour>
  </outline>
</glyph>
<glyph name="f" format="2">
  <advance width="376"/>
  <unicode hex="0066"/>
  <outline>
    <contour>
      <point x="14" y="500" type="line"/>
      <point x="14" y="384" type="line"/>
      <point x="348" y="384" type="line"/>
      <point x="348" y="500" type="line"/>
    </contour>
    <contour>
      <point x="223" y="513" type="line" smooth="yes"/>
      <point x="223" y="582"/>
      <point x="247" y="610"/>
      <point x="310" y="610" type="curve" smooth="yes"/>
      <point x="344" y="610" type="line"/>
      <point x="344" y="728" type="line"/>
      <point x="300" y="728" type="line" smooth="yes"/>
      <point x="161" y="728"/>
      <point x="93" y="659"/>
      <point x="93" y="516" type="curve" smooth="yes"/>
      <point x="93" y="0" type="line"/>
      <point x="223" y="0" type="line"/>
    </contour>
  </outline>
</glyph>
<glyph name="g" format="2">
  <advance width="546"/>
  <unicode hex="0067"/>
  <outline>
    <contour>
      <point x="122" y="221" type="line"/>
      <point x="86" y="189"/>
      <point x="67" y="162"/>
      <point x="67" y="126" type="curve" smooth="yes"/>
      <point x="67" y="91"/>
      <point x="85" y="62"/>
      <point x="123" y="37" type="curve"/>
      <point x="125" y="49" type="line"/>
      <point x="57" y="32"/>
      <point x="18" y="-11"/>
      <point x="18" y="-72" type="curve" smooth="yes"/>
      <point x="18" y="-163"/>
      <point x="104" y="-214"/>
      <point x="258" y="-214" type="curve" smooth="yes"/>
      <point x="429" y="-214"/>
      <point x="534" y="-151"/>
      <point x="534" y="-46" type="curve" smooth="yes"/>
      <point x="534" y="51"/>
      <point x="443" y="104"/>
      <point x="277" y="105" type="curve" smooth="yes"/>
      <point x="198" y="106"/>
      <point x="169" y="118"/>
      <point x="169" y="143" type="curve" smooth="yes"/>
      <point x="169" y="159"/>
      <point x="180" y="171"/>
      <point x="196" y="179" type="curve"/>
    </contour>
    <contour>
      <point x="47" y="339" type="curve" smooth="yes"/>
      <point x="47" y="220"/>
      <point x="152" y="164"/>
      <point x="263" y="164" type="curve" smooth="yes"/>
      <point x="392" y="164"/>
      <point x="478" y="237"/>
      <point x="478" y="339" type="curve" smooth="yes"/>
      <point x="478" y="441"/>
      <point x="394" y="514"/>
      <point x="263" y="514" type="curve" smooth="yes"/>
      <point x="132" y="514"/>
      <point x="47" y="441"/>
    </contour>
    <contour>
      <point x="167" y="339" type="curve" smooth="yes"/>
      <point x="167" y="382"/>
      <point x="204" y="413"/>
      <point x="263" y="413" type="curve" smooth="yes"/>
      <point x="322" y="413"/>
      <point x="358" y="382"/>
      <point x="358" y="339" type="curve" smooth="yes"/>
      <point x="358" y="296"/>
      <point x="322" y="265"/>
      <point x="263" y="265" type="curve" smooth="yes"/>
      <point x="204" y="265"/>
      <point x="167" y="296"/>
    </contour>
    <contour>
      <point x="138" y="-55" type="curve" smooth="yes"/>
      <point x="138" y="-19"/>
      <point x="187" y="0"/>
      <point x="273" y="0" type="curve" smooth="yes"/>
      <point x="355" y="0"/>
      <point x="402" y="-17"/>
      <point x="402" y="-50" type="curve" smooth="yes"/>
      <point x="402" y="-86"/>
      <point x="345" y="-109"/>
      <point x="261" y="-109" type="curve" smooth="yes"/>
      <point x="184" y="-109"/>
      <point x="138" y="-90"/>
    </contour>
    <contour>
      <point x="438" y="422" type="line"/>
      <point x="525" y="505" type="line"/>
      <point x="459" y="569" type="line"/>
      <point x="373" y="477" type="line"/>
    </contour>
  </outline>
</glyph>
<glyph name="h" format="2">
  <advance width="575"/>
  <unicode hex="0068"/>
  <outline>
    <contour>
      <point x="389" y="0" type="line"/>
      <point x="517" y="0" type="line"/>
      <point x="517" y="319" type="line" smooth="yes"/>
      <point x="517" y="435"/>
      <point x="442" y="514"/>
      <point x="332" y="514" type="curve" smooth="yes"/>
      <point x="257" y="514"/>
      <point x="204" y="478"/>
      <point x="175" y="407" type="curve"/>
      <point x="188" y="283" type="line"/>
      <point x="188" y="350"/>
      <point x="233" y="396"/>
      <point x="296" y="396" type="curve" smooth="yes"/>
      <point x="357" y="396"/>
      <point x="389" y="353"/>
      <point x="389" y="283" type="curve" smooth="yes"/>
    </contour>
    <contour>
      <point x="60" y="0" type="line"/>
      <point x="188" y="0" type="line"/>
      <point x="188" y="722" type="line"/>
      <point x="60" y="722" type="line"/>
    </contour>
  </outline>
</glyph>
<glyph name="i" format="2">
  <advance width="250"/>
  <unicode hex="0069"/>
  <outline>
    <contour>
      <point x="60" y="500" type="line"/>
      <point x="190" y="500" type="line"/>
      <point x="190" y="0" type="line"/>
      <point x="60" y="0" type="line"/>
    </contour>
    <contour>
      <point x="126" y="573" type="line" smooth="yes"/>
      <point x="170" y="573"/>
      <point x="205" y="607"/>
      <point x="205" y="653" type="curve" smooth="yes"/>
      <point x="205" y="699"/>
      <point x="170" y="733"/>
      <point x="126" y="733" type="curve" smooth="yes"/>
      <point x="124" y="733" type="line" smooth="yes"/>
      <point x="80" y="733"/>
      <point x="45" y="699"/>
      <point x="45" y="653" type="curve" smooth="yes"/>
      <point x="45" y="607"/>
      <point x="80" y="573"/>
      <point x="124" y="573" type="curve" smooth="yes"/>
    </contour>
  </outline>
</glyph>
<glyph name="j" format="2">
  <advance width="248"/>
  <unicode hex="006A"/>
  <outline>
    <contour>
      <point x="60" y="19" type="line" smooth="yes"/>
      <point x="60" y="-49"/>
      <point x="40" y="-84"/>
      <point x="-24" y="-84" type="curve" smooth="yes"/>
      <point x="-44" y="-84" type="line"/>
      <point x="-44" y="-206" type="line"/>
      <point x="-8" y="-206" type="line" smooth="yes"/>
      <point x="119" y="-206"/>
      <point x="188" y="-132"/>
      <point x="188" y="3" type="curve" smooth="yes"/>
      <point x="188" y="500" type="line"/>
      <point x="60" y="500" type="line"/>
    </contour>
    <contour>
      <point x="48" y="661" type="curve" smooth="yes"/>
      <point x="48" y="705"/>
      <point x="82" y="737"/>
      <point x="125" y="737" type="curve" smooth="yes"/>
      <point x="168" y="737"/>
      <point x="200" y="705"/>
      <point x="200" y="661" type="curve" smooth="yes"/>
      <point x="200" y="617"/>
      <point x="168" y="585"/>
      <point x="125" y="585" type="curve" smooth="yes"/>
      <point x="82" y="585"/>
      <point x="48" y="617"/>
    </contour>
  </outline>
</glyph>
<glyph name="k" format="2">
  <advance width="548"/>
  <unicode hex="006B"/>
  <outline>
    <contour>
      <point x="188" y="700" type="line"/>
      <point x="60" y="700" type="line"/>
      <point x="60" y="0" type="line"/>
      <point x="188" y="0" type="line"/>
    </contour>
    <contour>
      <point x="388" y="0" type="line"/>
      <point x="532" y="0" type="line"/>
      <point x="329" y="301" type="line"/>
      <point x="235" y="241" type="line"/>
    </contour>
    <contour>
      <point x="367" y="500" type="line"/>
      <point x="170" y="289" type="line"/>
      <point x="170" y="133" type="line"/>
      <point x="524" y="500" type="line"/>
    </contour>
  </outline>
</glyph>
<glyph name="m" format="2">
  <advance width="856"/>
  <unicode hex="006D"/>
  <outline>
    <contour>
      <point x="365" y="0" type="line"/>
      <point x="493" y="0" type="line"/>
      <point x="493" y="293" type="line" smooth="yes"/>
      <point x="493" y="356"/>
      <point x="529" y="396"/>
      <point x="585" y="396" type="curve" smooth="yes"/>
      <point x="639" y="396"/>
      <point x="670" y="358"/>
      <point x="670" y="293" type="curve" smooth="yes"/>
      <point x="670" y="0" type="line"/>
      <point x="798" y="0" type="line"/>
      <point x="798" y="323" type="line" smooth="yes"/>
      <point x="798" y="436"/>
      <point x="727" y="514"/>
      <point x="618" y="514" type="curve" smooth="yes"/>
      <point x="546" y="514"/>
      <point x="491" y="479"/>
      <point x="464" y="416" type="curve"/>
      <point x="474" y="417" type="line"/>
      <point x="448" y="477"/>
      <point x="395" y="514"/>
      <point x="325" y="514" type="curve" smooth="yes"/>
      <point x="256" y="514"/>
      <point x="202" y="478"/>
      <point x="175" y="410" type="curve"/>
      <point x="188" y="293" type="line"/>
      <point x="188" y="356"/>
      <point x="224" y="396"/>
      <point x="280" y="396" type="curve" smooth="yes"/>
      <point x="334" y="396"/>
      <point x="365" y="358"/>
      <point x="365" y="293" type="curve" smooth="yes"/>
    </contour>
    <contour>
      <point x="60" y="0" type="line"/>
      <point x="188" y="0" type="line"/>
      <point x="188" y="500" type="line"/>
      <point x="60" y="500" type="line"/>
    </contour>
  </outline>
</glyph>
<glyph name="n" format="2">
  <advance width="576"/>
  <unicode hex="006E"/>
  <outline>
    <contour>
      <point x="390" y="0" type="line"/>
      <point x="520" y="0" type="line"/>
      <point x="520" y="319" type="line" smooth="yes"/>
      <point x="520" y="435"/>
      <point x="444" y="514"/>
      <point x="333" y="514" type="curve" smooth="yes"/>
      <point x="261" y="514"/>
      <point x="208" y="480"/>
      <point x="172" y="410" type="curve"/>
      <point x="190" y="410" type="line"/>
      <point x="190" y="500" type="line"/>
      <point x="60" y="500" type="line"/>
      <point x="60" y="0" type="line"/>
      <point x="190" y="0" type="line"/>
      <point x="190" y="273" type="line" smooth="yes"/>
      <point x="190" y="351"/>
      <point x="234" y="394"/>
      <point x="297" y="394" type="curve" smooth="yes"/>
      <point x="359" y="394"/>
      <point x="390" y="353"/>
      <point x="390" y="282" type="curve" smooth="yes"/>
    </contour>
  </outline>
</glyph>
<glyph name="o" format="2">
  <advance width="604"/>
  <unicode hex="006F"/>
  <anchor x="302" y="500" name="top"/>
  <outline>
    <contour>
      <point x="302" y="-14" type="curve" smooth="yes"/>
      <point x="458" y="-14"/>
      <point x="568" y="98"/>
      <point x="568" y="250" type="curve" smooth="yes"/>
      <point x="568" y="402"/>
      <point x="458" y="514"/>
      <point x="302" y="514" type="curve" smooth="yes"/>
      <point x="146" y="514"/>
      <point x="36" y="402"/>
      <point x="36" y="250" type="curve" smooth="yes"/>
      <point x="36" y="98"/>
      <point x="146" y="-14"/>
    </contour>
    <contour>
      <point x="302" y="106" type="curve" smooth="yes"/>
      <point x="225" y="106"/>
      <point x="168" y="166"/>
      <point x="168" y="250" type="curve" smooth="yes"/>
      <point x="168" y="334"/>
      <point x="225" y="394"/>
      <point x="302" y="394" type="curve" smooth="yes"/>
      <point x="379" y="394"/>
      <point x="436" y="334"/>
      <point x="436" y="250" type="curve" smooth="yes"/>
      <point x="436" y="166"/>
      <point x="379" y="106"/>
    </contour>
  </outline>
</glyph>
<glyph name="p" format="2">
  <advance width="624"/>
  <unicode hex="0070"/>
  <outline>
    <contour>
      <point x="60" y="-200" type="line"/>
      <point x="188" y="-200" type="line"/>
      <point x="188" y="500" type="line"/>
      <point x="60" y="500" type="line"/>
    </contour>
    <contour>
      <point x="357" y="-14" type="curve" smooth="yes"/>
      <point x="494" y="-14"/>
      <point x="588" y="99"/>
      <point x="588" y="250" type="curve" smooth="yes"/>
      <point x="588" y="401"/>
      <point x="494" y="514"/>
      <point x="357" y="514" type="curve" smooth="yes"/>
      <point x="220" y="514"/>
      <point x="144" y="401"/>
      <point x="144" y="250" type="curve" smooth="yes"/>
      <point x="144" y="99"/>
      <point x="220" y="-14"/>
    </contour>
    <contour>
      <point x="322" y="106" type="curve" smooth="yes"/>
      <point x="245" y="106"/>
      <point x="188" y="167"/>
      <point x="188" y="251" type="curve" smooth="yes"/>
      <point x="188" y="335"/>
      <point x="245" y="394"/>
      <point x="322" y="394" type="curve" smooth="yes"/>
      <point x="399" y="394"/>
      <point x="456" y="335"/>
      <point x="456" y="251" type="curve" smooth="yes"/>
      <point x="456" y="167"/>
      <point x="399" y="106"/>
    </contour>
  </outline>
</glyph>
<glyph name="q" format="2">
  <advance width="622"/>
  <unicode hex="0071"/>
  <outline>
    <contour>
      <point x="432" y="-200" type="line"/>
      <point x="562" y="-200" type="line"/>
      <point x="562" y="500" type="line"/>
      <point x="432" y="500" type="line"/>
    </contour>
    <contour>
      <point x="268.194" y="-14" type="curve" smooth="yes"/>
      <point x="397" y="-14"/>
      <point x="483" y="87"/>
      <point x="483" y="250.477" type="curve" smooth="yes"/>
      <point x="483" y="413"/>
      <point x="398" y="514"/>
      <point x="269.194" y="514" type="curve" smooth="yes"/>
      <point x="136" y="514"/>
      <point x="36" y="406"/>
      <point x="36" y="249.608" type="curve" smooth="yes"/>
      <point x="36" y="94"/>
      <point x="135" y="-14"/>
    </contour>
    <contour>
      <point x="299" y="106" type="curve" smooth="yes"/>
      <point x="224" y="106"/>
      <point x="168" y="166"/>
      <point x="168" y="250" type="curve" smooth="yes"/>
      <point x="168" y="334"/>
      <point x="224" y="394"/>
      <point x="299" y="394" type="curve" smooth="yes"/>
      <point x="376" y="394"/>
      <point x="432" y="334"/>
      <point x="432" y="250" type="curve" smooth="yes"/>
      <point x="432" y="166"/>
      <point x="376" y="106"/>
    </contour>
  </outline>
</glyph>
<glyph name="r" format="2">
  <advance width="378"/>
  <unicode hex="0072"/>
  <outline>
    <contour>
      <point x="60" y="0" type="line"/>
      <point x="190" y="0" type="line"/>
      <point x="190" y="245" type="line" smooth="yes"/>
      <point x="190" y="354"/>
      <point x="244" y="388"/>
      <point x="329" y="388" type="curve" smooth="yes"/>
      <point x="358" y="388" type="line"/>
      <point x="358" y="506" type="line"/>
      <point x="326" y="506" type="line" smooth="yes"/>
      <point x="255" y="506"/>
      <point x="209" y="475"/>
      <point x="183" y="410" type="curve"/>
      <point x="190" y="410" type="line"/>
      <point x="190" y="500" type="line"/>
      <point x="60" y="500" type="line"/>
    </contour>
  </outline>
</glyph>
<glyph name="s" format="2">
  <advance width="503"/>
  <unicode hex="0073"/>
  <outline>
    <contour>
      <point x="258.744" y="-14" type="curve" smooth="yes"/>
      <point x="389" y="-14"/>
      <point x="473" y="52"/>
      <point x="473" y="151.076" type="curve" smooth="yes"/>
      <point x="473" y="338"/>
      <point x="174" y="286"/>
      <point x="174" y="362.103" type="curve" smooth="yes"/>
      <point x="174" y="387"/>
      <point x="206" y="406"/>
      <point x="253.972" y="406" type="curve" smooth="yes"/>
      <point x="309" y="406"/>
      <point x="349" y="381"/>
      <point x="371" y="338" type="curve"/>
      <point x="467" y="399" type="line"/>
      <point x="425" y="475"/>
      <point x="353" y="514"/>
      <point x="255.675" y="514" type="curve" smooth="yes"/>
      <point x="131" y="514"/>
      <point x="52" y="450"/>
      <point x="52" y="355.408" type="curve" smooth="yes"/>
      <point x="52" y="172"/>
      <point x="349" y="227"/>
      <point x="349" y="143.622" type="curve" smooth="yes"/>
      <point x="349" y="115"/>
      <point x="314" y="96"/>
      <point x="262.109" y="96" type="curve" smooth="yes"/>
      <point x="198" y="96"/>
      <point x="149" y="125"/>
      <point x="122" y="178" type="curve"/>
      <point x="26" y="119" type="line"/>
      <point x="70" y="32"/>
      <point x="150" y="-14"/>
    </contour>
  </outline>
</glyph>
<glyph name="t" format="2">
  <advance width="386"/>
  <unicode hex="0074"/>
  <outline>
    <contour>
      <point x="14" y="384" type="line"/>
      <point x="354" y="384" type="line"/>
      <point x="354" y="500" type="line"/>
      <point x="14" y="500" type="line"/>
    </contour>
    <contour>
      <point x="226" y="216" type="curve" smooth="yes"/>
      <point x="226" y="640" type="line"/>
      <point x="98" y="640" type="line"/>
      <point x="98" y="206" type="line" smooth="yes"/>
      <point x="98" y="61"/>
      <point x="164" y="-6"/>
      <point x="307" y="-6" type="curve" smooth="yes"/>
      <point x="358" y="-6" type="line"/>
      <point x="358" y="116" type="line"/>
      <point x="324" y="116" type="line" smooth="yes"/>
      <point x="255" y="116"/>
      <point x="226" y="144"/>
    </contour>
  </outline>
</glyph>
<glyph name="v" format="2">
  <advance width="550"/>
  <unicode hex="0076"/>
  <outline>
    <contour>
      <point x="208" y="0" type="line"/>
      <point x="342" y="0" type="line"/>
      <point x="534" y="500" type="line"/>
      <point x="395" y="500" type="line"/>
      <point x="267" y="136" type="line"/>
      <point x="285" y="136" type="line"/>
      <point x="157" y="500" type="line"/>
      <point x="16" y="500" type="line"/>
    </contour>
  </outline>
</glyph>
<glyph name="w" format="2">
  <advance width="818"/>
  <unicode hex="0077"/>
  <outline>
    <contour>
      <point x="178" y="0" type="line"/>
      <point x="303" y="0" type="line"/>
      <point x="414" y="349" type="line"/>
      <point x="404" y="349" type="line"/>
      <point x="515" y="0" type="line"/>
      <point x="640" y="0" type="line"/>
      <point x="796" y="500" type="line"/>
      <point x="666" y="500" type="line"/>
      <point x="567" y="158" type="line"/>
      <point x="576" y="159" type="line"/>
      <point x="469" y="500" type="line"/>
      <point x="353" y="500" type="line"/>
      <point x="246" y="159" type="line"/>
      <point x="255" y="158" type="line"/>
      <point x="156" y="500" type="line"/>
      <point x="22" y="500" type="line"/>
    </contour>
  </outline>
</glyph>
<glyph name="x" format="2">
  <advance width="540"/>
  <unicode hex="0078"/>
  <outline>
    <contour>
      <point x="16" y="0" type="line"/>
      <point x="160" y="0" type="line"/>
      <point x="272" y="179" type="line"/>
      <point x="264" y="179" type="line"/>
      <point x="376" y="0" type="line"/>
      <point x="524" y="0" type="line"/>
      <point x="339" y="268" type="line"/>
      <point x="201" y="268" type="line"/>
    </contour>
    <contour>
      <point x="201" y="244" type="line"/>
      <point x="339" y="244" type="line"/>
      <point x="514" y="500" type="line"/>
      <point x="374" y="500" type="line"/>
      <point x="268" y="330" type="line"/>
      <point x="276" y="330" type="line"/>
      <point x="170" y="500" type="line"/>
      <point x="26" y="500" type="line"/>
    </contour>
  </outline>
</glyph>
<glyph name="y" format="2">
  <advance width="550"/>
  <unicode hex="0079"/>
  <outline>
    <contour>
      <point x="135" y="-200" type="line"/>
      <point x="261" y="-200" type="line"/>
      <point x="534" y="500" type="line"/>
      <point x="400" y="500" type="line"/>
      <point x="277" y="156" type="line"/>
      <point x="150" y="500" type="line"/>
      <point x="16" y="500" type="line"/>
      <point x="215" y="5" type="line"/>
    </contour>
  </outline>
</glyph>
<glyph name="z" format="2">
  <advance width="491"/>
  <unicode hex="007A"/>
  <outline>
    <contour>
      <point x="40" y="0" type="line"/>
      <point x="451" y="0" type="line"/>
      <point x="451" y="116" type="line"/>
      <point x="191" y="116" type="line"/>
      <point x="449" y="380" type="line"/>
      <point x="449" y="500" type="line"/>
      <point x="52" y="500" type="line"/>
      <point x="52" y="384" type="line"/>
      <point x="298" y="384" type="line"/>
      <point x="40" y="120" type="line"/>
    </contour>
  </outline>
</glyph>
<glyph name="braceleft" format="2">
  <advance width="422"/>
  <unicode hex="007B"/>
  <outline>
    <contour>
      <point x="396" y="-172" type="line"/>
      <point x="354" y="-172" type="line" smooth="yes"/>
      <point x="206" y="-172"/>
      <point x="135" y="-99"/>
      <point x="135" y="54" type="curve" smooth="yes"/>
      <point x="135" y="154" type="line" smooth="yes"/>
      <point x="135" y="201"/>
      <point x="107" y="230"/>
      <point x="58" y="230" type="curve" smooth="yes"/>
      <point x="44" y="230" type="line"/>
      <point x="44" y="348" type="line"/>
      <point x="58" y="348" type="line" smooth="yes"/>
      <point x="107" y="348"/>
      <point x="135" y="376"/>
      <point x="135" y="423" type="curve" smooth="yes"/>
      <point x="135" y="523" type="line" smooth="yes"/>
      <point x="135" y="676"/>
      <point x="206" y="750"/>
      <point x="354" y="750" type="curve" smooth="yes"/>
      <point x="396" y="750" type="line"/>
      <point x="396" y="628" type="line"/>
      <point x="360" y="628" type="line" smooth="yes"/>
      <point x="287" y="628"/>
      <point x="263" y="588"/>
      <point x="263" y="505" type="curve" smooth="yes"/>
      <point x="263" y="399" type="line" smooth="yes"/>
      <point x="263" y="344"/>
      <point x="227" y="300"/>
      <point x="174" y="289" type="curve"/>
      <point x="227" y="278"/>
      <point x="263" y="234"/>
      <point x="263" y="179" type="curve" smooth="yes"/>
      <point x="263" y="74" type="line" smooth="yes"/>
      <point x="263" y="-9"/>
      <point x="287" y="-50"/>
      <point x="360" y="-50" type="curve" smooth="yes"/>
      <point x="396" y="-50" type="line"/>
    </contour>
  </outline>
</glyph>
<glyph name="bar" format="2">
  <advance width="304"/>
  <unicode hex="007C"/>
  <outline>
    <contour>
      <point x="218" y="-172" type="line"/>
      <point x="218" y="750" type="line"/>
      <point x="86" y="750" type="line"/>
      <point x="86" y="-172" type="line"/>
    </contour>
  </outline>
</glyph>
<glyph name="braceright" format="2">
  <advance width="422"/>
  <unicode hex="007D"/>
  <outline>
    <contour>
      <point x="26" y="-172" type="line"/>
      <point x="26" y="-50" type="line"/>
      <point x="62" y="-50" type="line" smooth="yes"/>
      <point x="135" y="-50"/>
      <point x="159" y="-9"/>
      <point x="159" y="74" type="curve" smooth="yes"/>
      <point x="159" y="179" type="line" smooth="yes"/>
      <point x="159" y="234"/>
      <point x="195" y="278"/>
      <point x="248" y="289" type="curve"/>
      <point x="195" y="300"/>
      <point x="159" y="344"/>
      <point x="159" y="399" type="curve" smooth="yes"/>
      <point x="159" y="505" type="line" smooth="yes"/>
      <point x="159" y="588"/>
      <point x="135" y="628"/>
      <point x="62" y="628" type="curve" smooth="yes"/>
      <point x="26" y="628" type="line"/>
      <point x="26" y="750" type="line"/>
      <point x="68" y="750" type="line" smooth="yes"/>
      <point x="216" y="750"/>
      <point x="287" y="676"/>
      <point x="287" y="523" type="curve" smooth="yes"/>
      <point x="287" y="423" type="line" smooth="yes"/>
      <point x="287" y="376"/>
      <point x="315" y="348"/>
      <point x="364" y="348" type="curve" smooth="yes"/>
      <point x="378" y="348" type="line"/>
      <point x="378" y="230" type="line"/>
      <point x="364" y="230" type="line" smooth="yes"/>
      <point x="315" y="230"/>
      <point x="287" y="201"/>
      <point x="287" y="154" type="curve" smooth="yes"/>
      <point x="287" y="54" type="line" smooth="yes"/>
      <point x="287" y="-99"/>
      <point x="216" y="-172"/>
      <point x="68" y="-172" type="curve" smooth="yes"/>
    </contour>
  </outline>
</glyph>
<glyph name="asciitilde" format="2">
  <advance width="616"/>
  <unicode hex="007E"/>
  <outline>
    <contour>
      <point x="34" y="315" type="curve"/>
      <point x="121" y="253" type="line"/>
      <point x="139" y="289"/>
      <point x="170" y="313"/>
      <point x="210" y="313" type="curve" smooth="yes"/>
      <point x="282" y="313"/>
      <point x="317" y="246" name=".hr01"/>
      <point x="411" y="246" type="curve" smooth="yes"/>
      <point x="479" y="246"/>
      <point x="537" y="279"/>
      <point x="582" y="356" type="curve"/>
      <point x="494" y="419" type="line"/>
      <point x="479" y="384"/>
      <point x="440" y="358"/>
      <point x="399" y="358" type="curve" smooth="yes"/>
      <point x="331" y="358"/>
      <point x="300" y="425" name=".hr02"/>
      <point x="206" y="425" type="curve" smooth="yes"/>
      <point x="140" y="425"/>
      <point x="79" y="393"/>
    </contour>
  </outline>
</glyph>
<glyph name="cent" format="2">
  <advance width="566"/>
  <unicode hex="00A2"/>
  <outline>
    <contour>
      <point x="240" y="467" type="line"/>
      <point x="366" y="467" type="line"/>
      <point x="366" y="672" type="line"/>
      <point x="240" y="672" type="line"/>
    </contour>
    <contour>
      <point x="240" y="-168" type="line"/>
      <point x="366" y="-168" type="line"/>
      <point x="366" y="37" type="line"/>
      <point x="240" y="37" type="line"/>
    </contour>
    <contour>
      <point x="302.233" y="-14" type="curve" smooth="yes"/>
      <point x="412" y="-14"/>
      <point x="498" y="41"/>
      <point x="536" y="134" type="curve"/>
      <point x="423" y="190" type="line"/>
      <point x="401" y="136"/>
      <point x="358" y="106"/>
      <point x="302" y="106" type="curve" smooth="yes"/>
      <point x="223" y="106"/>
      <point x="168" y="166"/>
      <point x="168" y="250" type="curve" smooth="yes"/>
      <point x="168" y="334"/>
      <point x="223" y="394"/>
      <point x="302" y="394" type="curve" smooth="yes"/>
      <point x="358" y="394"/>
      <point x="401" y="364"/>
      <point x="423" y="310" type="curve"/>
      <point x="536" y="366" type="line"/>
      <point x="498" y="459"/>
      <point x="412" y="514"/>
      <point x="302.233" y="514" type="curve" smooth="yes"/>
      <point x="147" y="514"/>
      <point x="36" y="404"/>
      <point x="36" y="250" type="curve" smooth="yes"/>
      <point x="36" y="96"/>
      <point x="147" y="-14"/>
    </contour>
  </outline>
</glyph>
<glyph name="sterling" format="2">
  <advance width="599"/>
  <unicode hex="00A3"/>
  <outline>
    <contour>
      <point x="168" y="96" type="line"/>
      <point x="220" y="131"/>
      <point x="250" y="183"/>
      <point x="250" y="257.226" type="curve" smooth="yes"/>
      <point x="250" y="344"/>
      <point x="209" y="398"/>
      <point x="209" y="472.873" type="curve" smooth="yes"/>
      <point x="209" y="544"/>
      <point x="246" y="592"/>
      <point x="325.272" y="592" type="curve" smooth="yes"/>
      <point x="391" y="592"/>
      <point x="433" y="559"/>
      <point x="451" y="500" type="curve"/>
      <point x="572" y="541" type="line"/>
      <point x="534" y="655"/>
      <point x="448" y="716"/>
      <point x="324.279" y="716" type="curve" smooth="yes"/>
      <point x="174" y="716"/>
      <point x="75" y="626"/>
      <point x="75" y="487.984" type="curve" smooth="yes"/>
      <point x="75" y="387"/>
      <point x="128" y="345"/>
      <point x="128" y="248.772" type="curve" smooth="yes"/>
      <point x="128" y="174"/>
      <point x="96" y="130"/>
      <point x="26" y="108" type="curve"/>
    </contour>
    <contour>
      <point x="575" y="0" type="line"/>
      <point x="575" y="128" type="line"/>
      <point x="127" y="128" type="line"/>
      <point x="26" y="108" type="line"/>
      <point x="26" y="0" type="line"/>
    </contour>
    <contour>
      <point x="26" y="281" type="line"/>
      <point x="460" y="281" type="line"/>
      <point x="460" y="393" type="line"/>
      <point x="26" y="393" type="line"/>
    </contour>
  </outline>
</glyph>
<glyph name="yen" format="2">
  <advance width="614"/>
  <unicode hex="00A5"/>
  <outline>
    <contour>
      <point x="249" y="0" type="line"/>
      <point x="365" y="0" type="line"/>
      <point x="365" y="288" type="line"/>
      <point x="596" y="700" type="line"/>
      <point x="460" y="700" type="line"/>
      <point x="292" y="365" type="line"/>
      <point x="324" y="365" type="line"/>
      <point x="156" y="700" type="line"/>
      <point x="18" y="700" type="line"/>
      <point x="249" y="288" type="line"/>
    </contour>
    <contour>
      <point x="67" y="96" type="line"/>
      <point x="547" y="96" type="line"/>
      <point x="547" y="192" type="line"/>
      <point x="67" y="192" type="line"/>
    </contour>
    <contour>
      <point x="67" y="261" type="line"/>
      <point x="547" y="261" type="line"/>
      <point x="547" y="357" type="line"/>
      <point x="67" y="357" type="line"/>
    </contour>
  </outline>
</glyph>
<glyph name="section" format="2">
  <advance width="513"/>
  <unicode hex="00A7"/>
  <outline>
    <contour>
      <point x="379" y="227" type="line"/>
      <point x="446" y="257"/>
      <point x="480" y="298"/>
      <point x="480" y="357.41" type="curve" smooth="yes"/>
      <point x="480" y="533"/>
      <point x="183" y="492"/>
      <point x="183" y="565.029" type="curve" smooth="yes"/>
      <point x="183" y="589"/>
      <point x="215" y="608"/>
      <point x="262.009" y="608" type="curve" smooth="yes"/>
      <point x="317" y="608"/>
      <point x="362" y="582"/>
      <point x="383" y="540" type="curve"/>
      <point x="474" y="601" type="line"/>
      <point x="432" y="676"/>
      <point x="359" y="716"/>
      <point x="262.726" y="716" type="curve" smooth="yes"/>
      <point x="140" y="716"/>
      <point x="59" y="651"/>
      <point x="59" y="557.239" type="curve" smooth="yes"/>
      <point x="59" y="375"/>
      <point x="365" y="442"/>
      <point x="365" y="341.341" type="curve" smooth="yes"/>
      <point x="365" y="312"/>
      <point x="339" y="289"/>
      <point x="286" y="271" type="curve"/>
    </contour>
    <contour>
      <point x="263.742" y="-16" type="curve" smooth="yes"/>
      <point x="391" y="-16"/>
      <point x="474" y="47"/>
      <point x="474" y="140.833" type="curve" smooth="yes"/>
      <point x="474" y="321"/>
      <point x="168" y="265"/>
      <point x="168" y="367.513" type="curve" smooth="yes"/>
      <point x="168" y="395"/>
      <point x="190" y="415"/>
      <point x="244" y="433" type="curve"/>
      <point x="158" y="487" type="line"/>
      <point x="86" y="441"/>
      <point x="53" y="400"/>
      <point x="53" y="343.5" type="curve" smooth="yes"/>
      <point x="53" y="174"/>
      <point x="350" y="209"/>
      <point x="350" y="133.57" type="curve" smooth="yes"/>
      <point x="350" y="110"/>
      <point x="321" y="93"/>
      <point x="269.463" y="93" type="curve" smooth="yes"/>
      <point x="201" y="93"/>
      <point x="147" y="123"/>
      <point x="120" y="177" type="curve"/>
      <point x="27" y="117" type="line"/>
      <point x="71" y="30"/>
      <point x="155" y="-16"/>
    </contour>
  </outline>
</glyph>
<glyph name="dieresis" format="2">
  <advance width="430"/>
  <unicode hex="00A8"/>
  <outline>
    <contour>
      <point x="30" y="661" type="curve" smooth="yes"/>
      <point x="30" y="705"/>
      <point x="63" y="737"/>
      <point x="106" y="737" type="curve" smooth="yes"/>
      <point x="149" y="737"/>
      <point x="182" y="705"/>
      <point x="182" y="661" type="curve" smooth="yes"/>
      <point x="182" y="617"/>
      <point x="149" y="585"/>
      <point x="106" y="585" type="curve" smooth="yes"/>
      <point x="63" y="585"/>
      <point x="30" y="617"/>
    </contour>
    <contour>
      <point x="250" y="661" type="curve" smooth="yes"/>
      <point x="250" y="705"/>
      <point x="284" y="737"/>
      <point x="327" y="737" type="curve" smooth="yes"/>
      <point x="370" y="737"/>
      <point x="402" y="705"/>
      <point x="402" y="661" type="curve" smooth="yes"/>
      <point x="402" y="617"/>
      <point x="370" y="585"/>
      <point x="327" y="585" type="curve" smooth="yes"/>
      <point x="284" y="585"/>
      <point x="250" y="617"/>
    </contour>
  </outline>
</glyph>
<glyph name="copyright" format="2">
  <advance width="928"/>
  <unicode hex="00A9"/>
  <outline>
    <contour>
      <point x="464" y="-25" type="curve" smooth="yes"/>
      <point x="291" y="-25"/>
      <point x="167" y="105"/>
      <point x="167" y="280" type="curve" smooth="yes"/>
      <point x="167" y="455"/>
      <point x="291" y="585"/>
      <point x="464" y="585" type="curve" smooth="yes"/>
      <point x="637" y="585"/>
      <point x="761" y="455"/>
      <point x="761" y="280" type="curve" smooth="yes"/>
      <point x="761" y="105"/>
      <point x="637" y="-25"/>
    </contour>
    <contour>
      <point x="464" y="670" type="curve" smooth="yes"/>
      <point x="241" y="670"/>
      <point x="78" y="504"/>
      <point x="78" y="280" type="curve" smooth="yes"/>
      <point x="78" y="56"/>
      <point x="241" y="-110"/>
      <point x="464" y="-110" type="curve" smooth="yes"/>
      <point x="687" y="-110"/>
      <point x="850" y="56"/>
      <point x="850" y="280" type="curve" smooth="yes"/>
      <point x="850" y="504"/>
      <point x="687" y="670"/>
    </contour>
    <contour>
      <point x="467.276" y="70" type="curve" smooth="yes"/>
      <point x="554" y="70"/>
      <point x="619" y="115"/>
      <point x="652" y="187" type="curve"/>
      <point x="560" y="232" type="line"/>
      <point x="543" y="192"/>
      <point x="511" y="170"/>
      <point x="467" y="170" type="curve" smooth="yes"/>
      <point x="407" y="170"/>
      <point x="364" y="218"/>
      <point x="364" y="280" type="curve" smooth="yes"/>
      <point x="364" y="342"/>
      <point x="407" y="390"/>
      <point x="467" y="390" type="curve" smooth="yes"/>
      <point x="511" y="390"/>
      <point x="543" y="368"/>
      <point x="560" y="328" type="curve"/>
      <point x="652" y="373" type="line"/>
      <point x="619" y="445"/>
      <point x="554" y="490"/>
      <point x="467.276" y="490" type="curve" smooth="yes"/>
      <point x="346" y="490"/>
      <point x="259" y="402"/>
      <point x="259" y="280" type="curve" smooth="yes"/>
      <point x="259" y="158"/>
      <point x="346" y="70"/>
    </contour>
  </outline>
</glyph>
<glyph name="ordfeminine" format="2">
  <advance width="318"/>
  <unicode hex="00AA"/>
  <outline>
    <contour>
      <point x="36" y="424" type="curve" smooth="yes"/>
      <point x="36" y="372"/>
      <point x="75" y="337"/>
      <point x="134" y="337" type="curve" smooth="yes"/>
      <point x="202" y="337"/>
      <point x="244" y="384"/>
      <point x="246" y="461" type="curve"/>
      <point x="227" y="468" type="line"/>
      <point x="227" y="429"/>
      <point x="196" y="401"/>
      <point x="154" y="401" type="curve" smooth="yes"/>
      <point x="129" y="401"/>
      <point x="111" y="411"/>
      <point x="111" y="433" type="curve" smooth="yes"/>
      <point x="111" y="456"/>
      <point x="131" y="467"/>
      <point x="171" y="469" type="curve" smooth="yes"/>
      <point x="250" y="472" type="line"/>
      <point x="250" y="525" type="line"/>
      <point x="168" y="522" type="line" smooth="yes"/>
      <point x="85" y="519"/>
      <point x="36" y="483"/>
    </contour>
    <contour>
      <point x="227" y="346" type="line"/>
      <point x="300" y="346" type="line"/>
      <point x="300" y="521" type="line" smooth="yes"/>
      <point x="300" y="594"/>
      <point x="252" y="640"/>
      <point x="172" y="640" type="curve" smooth="yes"/>
      <point x="112" y="640"/>
      <point x="69" y="614"/>
      <point x="45" y="567" type="curve"/>
      <point x="105" y="537" type="line"/>
      <point x="117" y="562"/>
      <point x="139" y="575"/>
      <point x="167" y="575" type="curve" smooth="yes"/>
      <point x="202" y="575"/>
      <point x="227" y="554"/>
      <point x="227" y="518" type="curve" smooth="yes"/>
    </contour>
  </outline>
</glyph>
<glyph name="guillemotleft" format="2">
  <advance width="615"/>
  <unicode hex="00AB"/>
  <outline>
    <contour>
      <point x="274" y="250" type="line"/>
      <point x="486" y="515" type="line"/>
      <point x="579" y="447" type="line"/>
      <point x="419" y="250" type="line"/>
      <point x="579" y="53" type="line"/>
      <point x="486" y="-15" type="line"/>
    </contour>
    <contour>
      <point x="32" y="250" type="line"/>
      <point x="244" y="515" type="line"/>
      <point x="337" y="447" type="line"/>
      <point x="177" y="250" type="line"/>
      <point x="337" y="53" type="line"/>
      <point x="244" y="-15" type="line"/>
    </contour>
  </outline>
</glyph>
<glyph name="macron" format="2">
  <advance width="364"/>
  <unicode hex="00AF"/>
  <anchor x="182" y="501" name="_top"/>
  <outline>
    <contour>
      <point x="20" y="576" type="line"/>
      <point x="344" y="576" type="line"/>
      <point x="344" y="686" type="line"/>
      <point x="20" y="686" type="line"/>
    </contour>
  </outline>
</glyph>
<glyph name="plusminus" format="2">
  <advance width="594"/>
  <unicode hex="00B1"/>
  <outline>
    <contour>
      <point x="54" y="386" type="line"/>
      <point x="236" y="386" type="line"/>
      <point x="236" y="190" type="line"/>
      <point x="358" y="190" type="line"/>
      <point x="358" y="386" type="line"/>
      <point x="540" y="386" type="line"/>
      <point x="540" y="498" type="line"/>
      <point x="358" y="498" type="line"/>
      <point x="358" y="694" type="line"/>
      <point x="236" y="694" type="line"/>
      <point x="236" y="498" type="line"/>
      <point x="54" y="498" type="line"/>
    </contour>
    <contour>
      <point x="54" y="8" type="line"/>
      <point x="540" y="8" type="line"/>
      <point x="540" y="122" type="line"/>
      <point x="54" y="122" type="line"/>
    </contour>
  </outline>
</glyph>
<glyph name="twosuperior" format="2">
  <advance width="328"/>
  <unicode hex="00B2"/>
  <outline>
    <contour>
      <point x="27" y="324" type="line"/>
      <point x="306" y="324" type="line"/>
      <point x="306" y="404" type="line"/>
      <point x="95" y="404" type="line"/>
      <point x="98" y="367" type="line"/>
      <point x="212" y="461" type="line" smooth="yes"/>
      <point x="278" y="516"/>
      <point x="301" y="547"/>
      <point x="301" y="590" type="curve" smooth="yes"/>
      <point x="301" y="663"/>
      <point x="248" y="709"/>
      <point x="164" y="709" type="curve" smooth="yes"/>
      <point x="96" y="709"/>
      <point x="49" y="677"/>
      <point x="16" y="613" type="curve"/>
      <point x="89" y="576" type="line"/>
      <point x="102" y="613"/>
      <point x="129" y="631"/>
      <point x="162" y="631" type="curve" smooth="yes"/>
      <point x="193" y="631"/>
      <point x="215" y="615"/>
      <point x="215" y="587" type="curve" smooth="yes"/>
      <point x="215" y="566"/>
      <point x="199" y="544"/>
      <point x="168" y="517" type="curve" smooth="yes"/>
      <point x="27" y="397" type="line"/>
    </contour>
  </outline>
</glyph>
<glyph name="threesuperior" format="2">
  <advance width="347"/>
  <unicode hex="00B3"/>
  <outline>
    <contour>
      <point x="176" y="315" type="curve" smooth="yes"/>
      <point x="263" y="315"/>
      <point x="325" y="360"/>
      <point x="325" y="429" type="curve" smooth="yes"/>
      <point x="325" y="477"/>
      <point x="295" y="513"/>
      <point x="244" y="525" type="curve"/>
      <point x="249" y="511" type="line"/>
      <point x="290" y="523"/>
      <point x="316" y="557"/>
      <point x="316" y="601" type="curve" smooth="yes"/>
      <point x="316" y="665"/>
      <point x="260" y="709"/>
      <point x="180" y="709" type="curve" smooth="yes"/>
      <point x="111" y="709"/>
      <point x="58" y="677"/>
      <point x="29" y="616" type="curve"/>
      <point x="102" y="579" type="line"/>
      <point x="115" y="613"/>
      <point x="142" y="631"/>
      <point x="176" y="631" type="curve" smooth="yes"/>
      <point x="208" y="631"/>
      <point x="230" y="615"/>
      <point x="230" y="590" type="curve" smooth="yes"/>
      <point x="230" y="569"/>
      <point x="214" y="555"/>
      <point x="190" y="555" type="curve" smooth="yes"/>
      <point x="118" y="555" type="line"/>
      <point x="118" y="480" type="line"/>
      <point x="191" y="480" type="line" smooth="yes"/>
      <point x="222" y="480"/>
      <point x="239" y="468"/>
      <point x="239" y="444" type="curve" smooth="yes"/>
      <point x="239" y="411"/>
      <point x="209" y="395"/>
      <point x="174" y="395" type="curve" smooth="yes"/>
      <point x="135" y="395"/>
      <point x="106" y="414"/>
      <point x="91" y="456" type="curve"/>
      <point x="16" y="419" type="line"/>
      <point x="45" y="350"/>
      <point x="100" y="315"/>
    </contour>
  </outline>
</glyph>
<glyph name="micro" format="2">
  <advance width="635"/>
  <unicode hex="00B5"/>
  <outline>
    <contour>
      <point x="123" y="67" type="line"/>
      <point x="162" y="13"/>
      <point x="216" y="-14"/>
      <point x="284" y="-14" type="curve" smooth="yes"/>
      <point x="360" y="-14"/>
      <point x="418" y="20"/>
      <point x="449" y="79" type="curve"/>
      <point x="438" y="79" type="line"/>
      <point x="465" y="21"/>
      <point x="513" y="-6"/>
      <point x="588" y="-6" type="curve" smooth="yes"/>
      <point x="615" y="-6" type="line"/>
      <point x="615" y="110" type="line"/>
      <point x="601" y="110" type="line" smooth="yes"/>
      <point x="539" y="110"/>
      <point x="517" y="144"/>
      <point x="517" y="215" type="curve" smooth="yes"/>
      <point x="517" y="500" type="line"/>
      <point x="389" y="500" type="line"/>
      <point x="389" y="217" type="line" smooth="yes"/>
      <point x="389" y="150"/>
      <point x="344" y="104"/>
      <point x="281" y="104" type="curve" smooth="yes"/>
      <point x="220" y="104"/>
      <point x="188" y="147"/>
      <point x="188" y="217" type="curve"/>
    </contour>
    <contour>
      <point x="60" y="-200" type="line"/>
      <point x="188" y="-200" type="line"/>
      <point x="188" y="500" type="line"/>
      <point x="60" y="500" type="line"/>
    </contour>
  </outline>
</glyph>
<glyph name="periodcentered" format="2">
  <advance width="260"/>
  <unicode hex="00B7"/>
  <outline>
    <contour>
      <point x="48" y="289" type="curve" smooth="yes"/>
      <point x="48" y="337"/>
      <point x="84" y="371"/>
      <point x="130" y="371" type="curve" smooth="yes"/>
      <point x="176" y="371"/>
      <point x="212" y="337"/>
      <point x="212" y="289" type="curve" smooth="yes"/>
      <point x="212" y="241"/>
      <point x="176" y="207"/>
      <point x="130" y="207" type="curve" smooth="yes"/>
      <point x="84" y="207"/>
      <point x="48" y="241"/>
    </contour>
  </outline>
</glyph>
<glyph name="cedilla" format="2">
  <advance width="313"/>
  <unicode hex="00B8"/>
  <outline>
    <contour>
      <point x="74" y="-215" type="curve" smooth="yes"/>
      <point x="180" y="-215"/>
      <point x="232" y="-147"/>
      <point x="232" y="-67" type="curve" smooth="yes"/>
      <point x="232" y="-29"/>
      <point x="220" y="2"/>
      <point x="202" y="32" type="curve"/>
      <point x="115" y="10" type="line"/>
      <point x="130" y="-13"/>
      <point x="138" y="-34"/>
      <point x="138" y="-56" type="curve" smooth="yes"/>
      <point x="138" y="-96"/>
      <point x="113" y="-125"/>
      <point x="66" y="-125" type="curve" smooth="yes"/>
      <point x="44" y="-125"/>
      <point x="17" y="-119"/>
      <point x="-10" y="-99" type="curve"/>
      <point x="-45" y="-182" type="line"/>
      <point x="-11" y="-202"/>
      <point x="27" y="-215"/>
    </contour>
  </outline>
</glyph>
<glyph name="onesuperior" format="2">
  <advance width="244"/>
  <unicode hex="00B9"/>
  <outline>
    <contour>
      <point x="104" y="324" type="line"/>
      <point x="188" y="324" type="line"/>
      <point x="188" y="700" type="line"/>
      <point x="108" y="700" type="line"/>
      <point x="2" y="629" type="line"/>
      <point x="41" y="556" type="line"/>
      <point x="129" y="616" type="line"/>
      <point x="104" y="628" type="line"/>
    </contour>
  </outline>
</glyph>
<glyph name="guillemotright" format="2">
  <advance width="615"/>
  <unicode hex="00BB"/>
  <outline>
    <contour>
      <point x="341" y="250" type="line"/>
      <point x="129" y="-15" type="line"/>
      <point x="36" y="53" type="line"/>
      <point x="196" y="250" type="line"/>
      <point x="36" y="447" type="line"/>
      <point x="129" y="515" type="line"/>
    </contour>
    <contour>
      <point x="583" y="250" type="line"/>
      <point x="371" y="-15" type="line"/>
      <point x="278" y="53" type="line"/>
      <point x="438" y="250" type="line"/>
      <point x="278" y="447" type="line"/>
      <point x="371" y="515" type="line"/>
    </contour>
  </outline>
</glyph>
<glyph name="AE" format="2">
  <advance width="1001"/>
  <unicode hex="00C6"/>
  <outline>
    <contour>
      <point x="491" y="0" type="line"/>
      <point x="953" y="0" type="line"/>
      <point x="953" y="130" type="line"/>
      <point x="633" y="130" type="line"/>
      <point x="633" y="298" type="line"/>
      <point x="913" y="298" type="line"/>
      <point x="913" y="428" type="line"/>
      <point x="633" y="428" type="line"/>
      <point x="633" y="570" type="line"/>
      <point x="953" y="570" type="line"/>
      <point x="953" y="700" type="line"/>
      <point x="446" y="700" type="line"/>
      <point x="18" y="0" type="line"/>
      <point x="167" y="0" type="line"/>
      <point x="255" y="150" type="line"/>
      <point x="491" y="150" type="line"/>
    </contour>
    <contour>
      <point x="328" y="274" type="line"/>
      <point x="491" y="550" type="line"/>
      <point x="491" y="274" type="line"/>
    </contour>
  </outline>
</glyph>
<glyph name="Eth" format="2">
  <advance width="779"/>
  <unicode hex="00D0"/>
  <outline>
    <component base="D" xOffset="44"/>
    <contour>
      <point x="32" y="292" type="line"/>
      <point x="377" y="292" type="line"/>
      <point x="377" y="422" type="line"/>
      <point x="32" y="422" type="line"/>
    </contour>
  </outline>
</glyph>
<glyph name="multiply" format="2">
  <advance width="482"/>
  <unicode hex="00D7"/>
  <outline>
    <contour>
      <point x="28" y="494" type="line"/>
      <point x="163" y="365" type="line"/>
      <point x="20" y="227" type="line"/>
      <point x="105" y="142" type="line"/>
      <point x="243" y="284" type="line"/>
      <point x="372" y="150" type="line"/>
      <point x="454" y="232" type="line"/>
      <point x="319" y="361" type="line"/>
      <point x="462" y="499" type="line"/>
      <point x="377" y="584" type="line"/>
      <point x="239" y="442" type="line"/>
      <point x="110" y="576" type="line"/>
    </contour>
  </outline>
</glyph>
<glyph name="Oslash" format="2">
  <advance width="828"/>
  <unicode hex="00D8"/>
  <outline>
    <contour>
      <point x="415" y="-16" type="curve" smooth="yes"/>
      <point x="628" y="-16"/>
      <point x="780" y="140"/>
      <point x="780" y="350" type="curve" smooth="yes"/>
      <point x="780" y="560"/>
      <point x="628" y="716"/>
      <point x="415" y="716" type="curve" smooth="yes"/>
      <point x="200" y="716"/>
      <point x="48" y="560"/>
      <point x="48" y="350" type="curve" smooth="yes"/>
      <point x="48" y="140"/>
      <point x="200" y="-16"/>
    </contour>
    <contour>
      <point x="417" y="118" type="curve" smooth="yes"/>
      <point x="284" y="118"/>
      <point x="194" y="217"/>
      <point x="194" y="352" type="curve" smooth="yes"/>
      <point x="194" y="483"/>
      <point x="284" y="582"/>
      <point x="417" y="582" type="curve" smooth="yes"/>
      <point x="544" y="582"/>
      <point x="634" y="483"/>
      <point x="634" y="352" type="curve" smooth="yes"/>
      <point x="634" y="217"/>
      <point x="544" y="118"/>
    </contour>
    <contour>
      <point x="109" y="-46" type="line"/>
      <point x="244" y="90" type="line"/>
      <point x="266" y="121" type="line"/>
      <point x="664" y="520" type="line"/>
      <point x="679" y="526" type="line"/>
      <point x="808" y="655" type="line"/>
      <point x="717" y="746" type="line"/>
      <point x="592" y="621" type="line"/>
      <point x="575" y="595" type="line"/>
      <point x="178" y="197" type="line"/>
      <point x="156" y="183" type="line"/>
      <point x="18" y="45" type="line"/>
    </contour>
  </outline>
</glyph>
<glyph name="Thorn" format="2">
  <advance width="639"/>
  <unicode hex="00DE"/>
  <outline>
    <contour>
      <point x="78" y="0" type="line"/>
      <point x="216" y="0" type="line"/>
      <point x="216" y="134" type="line"/>
      <point x="360" y="134" type="line" smooth="yes"/>
      <point x="504" y="134"/>
      <point x="603" y="226"/>
      <point x="603" y="367" type="curve" smooth="yes"/>
      <point x="603" y="507"/>
      <point x="504" y="600"/>
      <point x="360" y="600" type="curve" smooth="yes"/>
      <point x="216" y="600" type="line"/>
      <point x="216" y="700" type="line"/>
      <point x="78" y="700" type="line"/>
    </contour>
    <contour>
      <point x="216" y="260" type="line"/>
      <point x="216" y="474" type="line"/>
      <point x="352" y="474" type="line" smooth="yes"/>
      <point x="418" y="474"/>
      <point x="461" y="429"/>
      <point x="461" y="367" type="curve" smooth="yes"/>
      <point x="461" y="305"/>
      <point x="418" y="260"/>
      <point x="352" y="260" type="curve" smooth="yes"/>
    </contour>
  </outline>
</glyph>
<glyph name="ae" format="2">
  <advance width="915"/>
  <unicode hex="00E6"/>
  <outline>
    <contour>
      <point x="32" y="140" type="curve" smooth="yes"/>
      <point x="32" y="50"/>
      <point x="101" y="-14"/>
      <point x="219" y="-14" type="curve" smooth="yes"/>
      <point x="358" y="-14"/>
      <point x="440" y="73"/>
      <point x="442" y="214" type="curve"/>
      <point x="366" y="220" type="line"/>
      <point x="366" y="142"/>
      <point x="312" y="90"/>
      <point x="238" y="90" type="curve" smooth="yes"/>
      <point x="190" y="90"/>
      <point x="158" y="113"/>
      <point x="158" y="149" type="curve" smooth="yes"/>
      <point x="158" y="185"/>
      <point x="188" y="214"/>
      <point x="281" y="218" type="curve" smooth="yes"/>
      <point x="426" y="224" type="line"/>
      <point x="426" y="312" type="line"/>
      <point x="259" y="306" type="line" smooth="yes"/>
      <point x="109" y="301"/>
      <point x="32" y="237"/>
    </contour>
    <contour>
      <point x="366" y="200" type="line"/>
      <point x="480" y="200" type="line"/>
      <point x="480" y="308" type="line" smooth="yes"/>
      <point x="480" y="435"/>
      <point x="398" y="514"/>
      <point x="261" y="514" type="curve" smooth="yes"/>
      <point x="155" y="514"/>
      <point x="82" y="466"/>
      <point x="46" y="387" type="curve"/>
      <point x="146" y="337" type="line"/>
      <point x="168" y="384"/>
      <point x="208" y="410"/>
      <point x="262" y="410" type="curve" smooth="yes"/>
      <point x="327" y="410"/>
      <point x="366" y="371"/>
      <point x="366" y="315" type="curve" smooth="yes"/>
    </contour>
    <contour>
      <point x="640.56" y="-14" type="curve" smooth="yes"/>
      <point x="733" y="-14"/>
      <point x="807" y="24"/>
      <point x="856" y="96" type="curve"/>
      <point x="765" y="168" type="line"/>
      <point x="738" y="122"/>
      <point x="693" y="98"/>
      <point x="637.279" y="98" type="curve" smooth="yes"/>
      <point x="547" y="98"/>
      <point x="490" y="161"/>
      <point x="490" y="252.813" type="curve" smooth="yes"/>
      <point x="490" y="343"/>
      <point x="545" y="406"/>
      <point x="628.581" y="406" type="curve" smooth="yes"/>
      <point x="700" y="406"/>
      <point x="747" y="360"/>
      <point x="751" y="289" type="curve"/>
      <point x="770" y="306" type="line"/>
      <point x="474" y="306" type="line"/>
      <point x="474" y="214" type="line"/>
      <point x="875" y="214" type="line"/>
      <point x="878" y="234"/>
      <point x="879" y="251"/>
      <point x="879" y="266" type="curve" smooth="yes"/>
      <point x="879" y="413"/>
      <point x="782" y="514"/>
      <point x="635.788" y="514" type="curve" smooth="yes"/>
      <point x="486" y="514"/>
      <point x="376" y="408"/>
      <point x="376" y="250.782" type="curve" smooth="yes"/>
      <point x="376" y="95"/>
      <point x="484" y="-14"/>
    </contour>
  </outline>
</glyph>
<glyph name="eth" format="2">
  <advance width="589"/>
  <unicode hex="00F0"/>
  <outline>
    <contour>
      <point x="285" y="-14" type="curve" smooth="yes"/>
      <point x="447" y="-14"/>
      <point x="549" y="100"/>
      <point x="549" y="303" type="curve" smooth="yes"/>
      <point x="549" y="567"/>
      <point x="385" y="712"/>
      <point x="100" y="736" type="curve"/>
      <point x="82" y="621" type="line"/>
      <point x="317" y="596"/>
      <point x="436" y="518"/>
      <point x="436" y="360" type="curve"/>
      <point x="460" y="360" type="line"/>
      <point x="422" y="431"/>
      <point x="357" y="468"/>
      <point x="270" y="468" type="curve" smooth="yes"/>
      <point x="133" y="468"/>
      <point x="36" y="367"/>
      <point x="36" y="228" type="curve" smooth="yes"/>
      <point x="36" y="83"/>
      <point x="139" y="-14"/>
    </contour>
    <contour>
      <point x="287" y="100" type="curve" smooth="yes"/>
      <point x="213" y="100"/>
      <point x="164" y="152"/>
      <point x="164" y="229" type="curve" smooth="yes"/>
      <point x="164" y="305"/>
      <point x="216" y="356"/>
      <point x="288" y="356" type="curve" smooth="yes"/>
      <point x="360" y="356"/>
      <point x="412" y="305"/>
      <point x="412" y="229" type="curve" smooth="yes"/>
      <point x="412" y="152"/>
      <point x="360" y="100"/>
    </contour>
    <contour>
      <point x="126" y="534" type="line"/>
      <point x="186" y="467" type="line"/>
      <point x="460" y="721" type="line"/>
      <point x="400" y="788" type="line"/>
    </contour>
  </outline>
</glyph>
<glyph name="divide" format="2">
  <advance width="572"/>
  <unicode hex="00F7"/>
  <outline>
    <contour>
      <point x="46" y="292" type="line"/>
      <point x="526" y="292" type="line"/>
      <point x="526" y="404" type="line"/>
      <point x="46" y="404" type="line"/>
    </contour>
    <contour>
      <point x="206" y="153" type="curve" smooth="yes"/>
      <point x="206" y="198"/>
      <point x="242" y="232"/>
      <point x="286" y="232" type="curve" smooth="yes"/>
      <point x="330" y="232"/>
      <point x="366" y="198"/>
      <point x="366" y="153" type="curve" smooth="yes"/>
      <point x="366" y="108"/>
      <point x="330" y="74"/>
      <point x="286" y="74" type="curve" smooth="yes"/>
      <point x="242" y="74"/>
      <point x="206" y="108"/>
    </contour>
    <contour>
      <point x="206" y="543" type="curve" smooth="yes"/>
      <point x="206" y="588"/>
      <point x="242" y="622"/>
      <point x="286" y="622" type="curve" smooth="yes"/>
      <point x="330" y="622"/>
      <point x="366" y="588"/>
      <point x="366" y="543" type="curve" smooth="yes"/>
      <point x="366" y="498"/>
      <point x="330" y="464"/>
      <point x="286" y="464" type="curve" smooth="yes"/>
      <point x="242" y="464"/>
      <point x="206" y="498"/>
    </contour>
  </outline>
</glyph>
<glyph name="oslash" format="2">
  <advance width="604"/>
  <unicode hex="00F8"/>
  <outline>
    <component base="o"/>
    <contour>
      <point x="78" y="-42" type="line"/>
      <point x="7" y="29" type="line"/>
      <point x="108" y="130" type="line"/>
      <point x="128" y="136" type="line"/>
      <point x="425" y="433" type="line"/>
      <point x="435" y="453" type="line"/>
      <point x="526" y="544" type="line"/>
      <point x="597" y="473" type="line"/>
      <point x="503" y="379" type="line"/>
      <point x="488" y="377" type="line"/>
      <point x="192" y="81" type="line"/>
      <point x="177" y="57" type="line"/>
    </contour>
  </outline>
</glyph>
<glyph name="thorn" format="2">
  <advance width="622"/>
  <unicode hex="00FE"/>
  <outline>
    <contour>
      <point x="60" y="-200" type="line"/>
      <point x="190" y="-200" type="line"/>
      <point x="190" y="722" type="line"/>
      <point x="60" y="722" type="line"/>
    </contour>
    <contour>
      <point x="353.806" y="-14" type="curve" smooth="yes"/>
      <point x="487" y="-14"/>
      <point x="586" y="94"/>
      <point x="586" y="249.608" type="curve" smooth="yes"/>
      <point x="586" y="406"/>
      <point x="486" y="514"/>
      <point x="352.806" y="514" type="curve" smooth="yes"/>
      <point x="224" y="514"/>
      <point x="139" y="413"/>
      <point x="139" y="250.477" type="curve" smooth="yes"/>
      <point x="139" y="87"/>
      <point x="225" y="-14"/>
    </contour>
    <contour>
      <point x="323" y="106" type="curve" smooth="yes"/>
      <point x="246" y="106"/>
      <point x="190" y="166"/>
      <point x="190" y="250" type="curve" smooth="yes"/>
      <point x="190" y="334"/>
      <point x="246" y="394"/>
      <point x="323" y="394" type="curve" smooth="yes"/>
      <point x="398" y="394"/>
      <point x="454" y="334"/>
      <point x="454" y="250" type="curve" smooth="yes"/>
      <point x="454" y="166"/>
      <point x="398" y="106"/>
    </contour>
  </outline>
</glyph>
<glyph name="dcroat" format="2">
  <advance width="656"/>
  <unicode hex="0111"/>
  <outline>
    <contour>
      <point x="562" y="0" type="line"/>
      <point x="432" y="0" type="line"/>
      <point x="432" y="563" type="line"/>
      <point x="365" y="563" type="line"/>
      <point x="365" y="671" type="line"/>
      <point x="432" y="671" type="line"/>
      <point x="432" y="722" type="line"/>
      <point x="562" y="722" type="line"/>
      <point x="562" y="671" type="line"/>
      <point x="630" y="671" type="line"/>
      <point x="630" y="563" type="line"/>
      <point x="562" y="563" type="line"/>
    </contour>
    <contour>
      <point x="268.194" y="-14" type="curve" smooth="yes"/>
      <point x="135" y="-14"/>
      <point x="36" y="94"/>
      <point x="36" y="249.608" type="curve" smooth="yes"/>
      <point x="36" y="406"/>
      <point x="136" y="514"/>
      <point x="269.194" y="514" type="curve" smooth="yes"/>
      <point x="398" y="514"/>
      <point x="483" y="413"/>
      <point x="483" y="250.477" type="curve" smooth="yes"/>
      <point x="483" y="87"/>
      <point x="397" y="-14"/>
    </contour>
    <contour>
      <point x="299" y="106" type="curve" smooth="yes"/>
      <point x="376" y="106"/>
      <point x="432" y="166"/>
      <point x="432" y="250" type="curve" smooth="yes"/>
      <point x="432" y="334"/>
      <point x="376" y="394"/>
      <point x="299" y="394" type="curve" smooth="yes"/>
      <point x="224" y="394"/>
      <point x="168" y="334"/>
      <point x="168" y="250" type="curve" smooth="yes"/>
      <point x="168" y="166"/>
      <point x="224" y="106"/>
    </contour>
  </outline>
</glyph>
<glyph name="Eogonek" format="2">
  <advance width="588"/>
  <unicode hex="0118"/>
  <outline>
    <component base="E"/>
    <contour>
      <point x="299" y="-117.502" type="curve" smooth="yes"/>
      <point x="299" y="-191"/>
      <point x="355" y="-239"/>
      <point x="440.833" y="-239" type="curve" smooth="yes"/>
      <point x="478" y="-239"/>
      <point x="512" y="-230"/>
      <point x="539" y="-214" type="curve"/>
      <point x="513" y="-130" type="line"/>
      <point x="498" y="-141"/>
      <point x="478" y="-149"/>
      <point x="454.754" y="-149" type="curve" smooth="yes"/>
      <point x="418" y="-149"/>
      <point x="395" y="-129"/>
      <point x="395" y="-95.8547" type="curve" smooth="yes"/>
      <point x="395" y="-58"/>
      <point x="425" y="-30"/>
      <point x="503" y="0" type="curve"/>
      <point x="477" y="59" type="line"/>
      <point x="352" y="7"/>
      <point x="299" y="-46"/>
    </contour>
  </outline>
</glyph>
<glyph name="eogonek" format="2">
  <advance width="578"/>
  <unicode hex="0119"/>
  <outline>
    <component base="e"/>
    <contour>
      <point x="260" y="-103.675" type="curve" smooth="yes"/>
      <point x="260" y="-36"/>
      <point x="306" y="14"/>
      <point x="432" y="89" type="curve"/>
      <point x="458" y="30" type="line"/>
      <point x="379" y="-23"/>
      <point x="356" y="-49"/>
      <point x="356" y="-82.239" type="curve" smooth="yes"/>
      <point x="356" y="-114"/>
      <point x="377" y="-137"/>
      <point x="413.734" y="-137" type="curve" smooth="yes"/>
      <point x="434" y="-137"/>
      <point x="454" y="-130"/>
      <point x="468" y="-120" type="curve"/>
      <point x="494" y="-204" type="line"/>
      <point x="468" y="-220"/>
      <point x="434" y="-229"/>
      <point x="398.744" y="-229" type="curve" smooth="yes"/>
      <point x="314" y="-229"/>
      <point x="260" y="-177"/>
    </contour>
  </outline>
</glyph>
<glyph name="dotlessi" format="2">
  <advance width="250"/>
  <unicode hex="0131"/>
  <anchor x="125" y="500" name="top"/>
  <outline>
    <contour>
      <point x="60" y="0" type="line"/>
      <point x="190" y="0" type="line"/>
      <point x="190" y="500" type="line"/>
      <point x="60" y="500" type="line"/>
    </contour>
  </outline>
</glyph>
<glyph name="Lslash" format="2">
  <advance width="587"/>
  <unicode hex="0141"/>
  <outline>
    <component base="L" xOffset="11"/>
    <contour>
      <point x="6" y="191" type="line"/>
      <point x="429" y="391" type="line"/>
      <point x="429" y="521" type="line"/>
      <point x="6" y="321" type="line"/>
    </contour>
  </outline>
</glyph>
<glyph name="lslash" format="2">
  <advance width="330"/>
  <unicode hex="0142"/>
  <outline>
    <component base="l" xOffset="39"/>
    <contour>
      <point x="12" y="204" type="line"/>
      <point x="318" y="393" type="line"/>
      <point x="318" y="521" type="line"/>
      <point x="12" y="332" type="line"/>
    </contour>
  </outline>
</glyph>
<glyph name="OE" format="2">
  <advance width="1104"/>
  <unicode hex="0152"/>
  <outline>
    <contour>
      <point x="409" y="-16" type="curve" smooth="yes"/>
      <point x="478" y="-16"/>
      <point x="541" y="1"/>
      <point x="594" y="32" type="curve"/>
      <point x="594" y="0" type="line"/>
      <point x="1056" y="0" type="line"/>
      <point x="1056" y="130" type="line"/>
      <point x="736" y="130" type="line"/>
      <point x="736" y="298" type="line"/>
      <point x="1016" y="298" type="line"/>
      <point x="1016" y="428" type="line"/>
      <point x="736" y="428" type="line"/>
      <point x="736" y="570" type="line"/>
      <point x="1056" y="570" type="line"/>
      <point x="1056" y="700" type="line"/>
      <point x="594" y="700" type="line"/>
      <point x="594" y="668" type="line"/>
      <point x="541" y="699"/>
      <point x="478" y="716"/>
      <point x="409" y="716" type="curve" smooth="yes"/>
      <point x="198" y="716"/>
      <point x="48" y="560"/>
      <point x="48" y="350" type="curve" smooth="yes"/>
      <point x="48" y="140"/>
      <point x="198" y="-16"/>
    </contour>
    <contour>
      <point x="417" y="118" type="curve" smooth="yes"/>
      <point x="284" y="118"/>
      <point x="194" y="217"/>
      <point x="194" y="352" type="curve" smooth="yes"/>
      <point x="194" y="483"/>
      <point x="284" y="582"/>
      <point x="417" y="582" type="curve" smooth="yes"/>
      <point x="493" y="582"/>
      <point x="556" y="546"/>
      <point x="594" y="490" type="curve"/>
      <point x="594" y="211" type="line"/>
      <point x="556" y="154"/>
      <point x="493" y="118"/>
    </contour>
  </outline>
</glyph>
<glyph name="oe" format="2">
  <advance width="985"/>
  <unicode hex="0153"/>
  <outline>
    <contour>
      <point x="298" y="-14" type="curve" smooth="yes"/>
      <point x="145" y="-14"/>
      <point x="36" y="98"/>
      <point x="36" y="250" type="curve" smooth="yes"/>
      <point x="36" y="402"/>
      <point x="145" y="514"/>
      <point x="298" y="514" type="curve" smooth="yes"/>
      <point x="451" y="514"/>
      <point x="560" y="402"/>
      <point x="560" y="250" type="curve" smooth="yes"/>
      <point x="560" y="98"/>
      <point x="451" y="-14"/>
    </contour>
    <contour>
      <point x="302" y="106" type="curve" smooth="yes"/>
      <point x="379" y="106"/>
      <point x="436" y="166"/>
      <point x="436" y="250" type="curve" smooth="yes"/>
      <point x="436" y="334"/>
      <point x="379" y="394"/>
      <point x="302" y="394" type="curve" smooth="yes"/>
      <point x="225" y="394"/>
      <point x="168" y="334"/>
      <point x="168" y="250" type="curve" smooth="yes"/>
      <point x="168" y="166"/>
      <point x="225" y="106"/>
    </contour>
    <contour>
      <point x="709" y="-14" type="curve" smooth="yes"/>
      <point x="552" y="-14"/>
      <point x="444" y="95"/>
      <point x="444" y="251" type="curve" smooth="yes"/>
      <point x="444" y="408"/>
      <point x="554" y="514"/>
      <point x="705" y="514" type="curve" smooth="yes"/>
      <point x="852" y="514"/>
      <point x="949" y="413"/>
      <point x="949" y="266" type="curve" smooth="yes"/>
      <point x="949" y="251"/>
      <point x="948" y="234"/>
      <point x="945" y="214" type="curve"/>
      <point x="544" y="214" type="line"/>
      <point x="544" y="306" type="line"/>
      <point x="840" y="306" type="line"/>
      <point x="821" y="289" type="line"/>
      <point x="817" y="360"/>
      <point x="770" y="406"/>
      <point x="699" y="406" type="curve" smooth="yes"/>
      <point x="615" y="406"/>
      <point x="560" y="343"/>
      <point x="560" y="253" type="curve" smooth="yes"/>
      <point x="560" y="161"/>
      <point x="617" y="98"/>
      <point x="707" y="98" type="curve" smooth="yes"/>
      <point x="763" y="98"/>
      <point x="808" y="122"/>
      <point x="835" y="168" type="curve"/>
      <point x="926" y="96" type="line"/>
      <point x="877" y="24"/>
      <point x="802" y="-14"/>
    </contour>
  </outline>
</glyph>
<glyph name="tcaron" format="2">
  <advance width="488"/>
  <unicode hex="0165"/>
  <outline>
    <component base="quoteright" xOffset="242"/>
    <contour>
      <point x="14" y="384" type="line"/>
      <point x="154" y="384" type="line"/>
      <point x="154" y="500" type="line"/>
      <point x="14" y="500" type="line"/>
    </contour>
    <contour>
      <point x="226" y="216" type="curve" smooth="yes"/>
      <point x="226" y="640" type="line"/>
      <point x="98" y="640" type="line"/>
      <point x="98" y="206" type="line" smooth="yes"/>
      <point x="98" y="61"/>
      <point x="164" y="-6"/>
      <point x="307" y="-6" type="curve" smooth="yes"/>
      <point x="388" y="-6" type="line"/>
      <point x="388" y="116" type="line"/>
      <point x="324" y="116" type="line" smooth="yes"/>
      <point x="255" y="116"/>
      <point x="226" y="144"/>
    </contour>
  </outline>
</glyph>
<glyph name="Schwa" format="2">
  <advance width="794"/>
  <unicode hex="018F"/>
  <anchor x="391" y="700" name="top"/>
  <outline>
    <contour>
      <point x="385.648" y="-16" type="curve" smooth="yes"/>
      <point x="602" y="-16"/>
      <point x="746" y="136"/>
      <point x="746" y="349.76" type="curve" smooth="yes"/>
      <point x="746" y="565"/>
      <point x="600" y="716"/>
      <point x="385.588" y="716" type="curve" smooth="yes"/>
      <point x="246" y="716"/>
      <point x="135" y="652"/>
      <point x="75" y="543" type="curve"/>
      <point x="193" y="471" type="line"/>
      <point x="235" y="549"/>
      <point x="301" y="588"/>
      <point x="385.471" y="588" type="curve" smooth="yes"/>
      <point x="518" y="588"/>
      <point x="606" y="492"/>
      <point x="606" y="349.594" type="curve" smooth="yes"/>
      <point x="606" y="208"/>
      <point x="519" y="112"/>
      <point x="386.152" y="112" type="curve" smooth="yes"/>
      <point x="276" y="112"/>
      <point x="199" y="178"/>
      <point x="188" y="281" type="curve"/>
      <point x="171" y="276" type="line"/>
      <point x="661" y="276" type="line"/>
      <point x="661" y="396" type="line"/>
      <point x="46" y="396" type="line"/>
      <point x="43" y="374"/>
      <point x="42" y="354"/>
      <point x="42" y="335.704" type="curve" smooth="yes"/>
      <point x="42" y="120"/>
      <point x="181" y="-16"/>
    </contour>
  </outline>
</glyph>
<glyph name="dotlessj" format="2">
  <advance width="250"/>
  <unicode hex="0237"/>
  <anchor x="125" y="500" name="top"/>
  <outline>
    <contour>
      <point x="60" y="18" type="line" smooth="yes"/>
      <point x="60" y="-50"/>
      <point x="41" y="-84"/>
      <point x="-23" y="-84" type="curve" smooth="yes"/>
      <point x="-43" y="-84" type="line"/>
      <point x="-43" y="-206" type="line"/>
      <point x="-7" y="-206" type="line" smooth="yes"/>
      <point x="120" y="-206"/>
      <point x="190" y="-133"/>
      <point x="190" y="2" type="curve" smooth="yes"/>
      <point x="190" y="500" type="line"/>
      <point x="60" y="500" type="line"/>
    </contour>
  </outline>
</glyph>
<glyph name="schwa" format="2">
  <advance width="581"/>
  <unicode hex="0259"/>
  <anchor x="287" y="500" name="top"/>
  <outline>
    <contour>
      <point x="282.028" y="-14" type="curve" smooth="yes"/>
      <point x="438" y="-14"/>
      <point x="545" y="93"/>
      <point x="545" y="251" type="curve" smooth="yes"/>
      <point x="545" y="409"/>
      <point x="438" y="514"/>
      <point x="281.124" y="514" type="curve" smooth="yes"/>
      <point x="188" y="514"/>
      <point x="113" y="477"/>
      <point x="61" y="406" type="curve"/>
      <point x="155" y="336" type="line"/>
      <point x="185" y="382"/>
      <point x="226" y="404"/>
      <point x="280.031" y="404" type="curve" smooth="yes"/>
      <point x="367" y="404"/>
      <point x="421" y="347"/>
      <point x="420.494" y="250.825" type="curve" smooth="yes"/>
      <point x="420" y="157"/>
      <point x="368" y="96"/>
      <point x="283.103" y="96" type="curve" smooth="yes"/>
      <point x="211" y="96"/>
      <point x="164" y="140"/>
      <point x="159" y="211" type="curve"/>
      <point x="141" y="198" type="line"/>
      <point x="437" y="198" type="line"/>
      <point x="437" y="292" type="line"/>
      <point x="36" y="292" type="line"/>
      <point x="33" y="272"/>
      <point x="32" y="255"/>
      <point x="32" y="239.545" type="curve" smooth="yes"/>
      <point x="32" y="85"/>
      <point x="132" y="-14"/>
    </contour>
  </outline>
</glyph>
<glyph name="circumflex" format="2">
  <advance width="422"/>
  <unicode hex="02C6"/>
  <outline>
    <contour>
      <point x="20" y="582" type="line"/>
      <point x="136" y="582" type="line"/>
      <point x="211" y="663" type="line"/>
      <point x="286" y="582" type="line"/>
      <point x="402" y="582" type="line"/>
      <point x="258" y="750" type="line"/>
      <point x="164" y="750" type="line"/>
    </contour>
  </outline>
</glyph>
<glyph name="macronmod" format="2">
  <advance width="384"/>
  <unicode hex="02C9"/>
  <outline>
    <contour>
      <point x="30" y="624" type="line"/>
      <point x="354" y="624" type="line"/>
      <point x="354" y="725" type="line"/>
      <point x="30" y="725" type="line"/>
    </contour>
  </outline>
</glyph>
<glyph name="breve" format="2">
  <advance width="410"/>
  <unicode hex="02D8"/>
  <outline>
    <contour>
      <point x="204" y="564" type="curve" smooth="yes"/>
      <point x="312" y="564"/>
      <point x="385" y="620"/>
      <point x="398" y="713" type="curve"/>
      <point x="293" y="733" type="line"/>
      <point x="287" y="685"/>
      <point x="254" y="658"/>
      <point x="204" y="658" type="curve" smooth="yes"/>
      <point x="154" y="658"/>
      <point x="122" y="685"/>
      <point x="117" y="733" type="curve"/>
      <point x="12" y="713" type="line"/>
      <point x="25" y="620"/>
      <point x="97" y="564"/>
    </contour>
  </outline>
</glyph>
<glyph name="dotaccent" format="2">
  <advance width="250"/>
  <unicode hex="02D9"/>
  <outline>
    <contour>
      <point x="126" y="573" type="line" smooth="yes"/>
      <point x="170" y="573"/>
      <point x="205" y="607"/>
      <point x="205" y="653" type="curve" smooth="yes"/>
      <point x="205" y="699"/>
      <point x="170" y="733"/>
      <point x="126" y="733" type="curve" smooth="yes"/>
      <point x="124" y="733" type="line" smooth="yes"/>
      <point x="80" y="733"/>
      <point x="45" y="699"/>
      <point x="45" y="653" type="curve" smooth="yes"/>
      <point x="45" y="607"/>
      <point x="80" y="573"/>
      <point x="124" y="573" type="curve" smooth="yes"/>
    </contour>
  </outline>
</glyph>
<glyph name="ring" format="2">
  <advance width="308"/>
  <unicode hex="02DA"/>
  <outline>
    <contour>
      <point x="154" y="576" type="curve" smooth="yes"/>
      <point x="84" y="576"/>
      <point x="30" y="624"/>
      <point x="30" y="696" type="curve" smooth="yes"/>
      <point x="30" y="768"/>
      <point x="84" y="816"/>
      <point x="154" y="816" type="curve" smooth="yes"/>
      <point x="224" y="816"/>
      <point x="278" y="768"/>
      <point x="278" y="696" type="curve" smooth="yes"/>
      <point x="278" y="624"/>
      <point x="224" y="576"/>
    </contour>
    <contour>
      <point x="154" y="648" type="curve" smooth="yes"/>
      <point x="180" y="648"/>
      <point x="200" y="668"/>
      <point x="200" y="696" type="curve" smooth="yes"/>
      <point x="200" y="724"/>
      <point x="180" y="744"/>
      <point x="154" y="744" type="curve" smooth="yes"/>
      <point x="128" y="744"/>
      <point x="108" y="724"/>
      <point x="108" y="696" type="curve" smooth="yes"/>
      <point x="108" y="668"/>
      <point x="128" y="648"/>
    </contour>
  </outline>
</glyph>
<glyph name="ogonek" format="2">
  <advance width="260"/>
  <unicode hex="02DB"/>
  <outline>
    <contour>
      <point x="27" y="-113" type="curve" smooth="yes"/>
      <point x="27" y="-44"/>
      <point x="75" y="5"/>
      <point x="197" y="59" type="curve"/>
      <point x="223" y="0" type="line"/>
      <point x="149" y="-33"/>
      <point x="123" y="-57"/>
      <point x="123" y="-92" type="curve" smooth="yes"/>
      <point x="123" y="-124"/>
      <point x="144" y="-143"/>
      <point x="178" y="-143" type="curve" smooth="yes"/>
      <point x="200" y="-143"/>
      <point x="219" y="-135"/>
      <point x="233" y="-124" type="curve"/>
      <point x="259" y="-208" type="line"/>
      <point x="233" y="-224"/>
      <point x="200" y="-233"/>
      <point x="164" y="-233" type="curve" smooth="yes"/>
      <point x="81" y="-233"/>
      <point x="27" y="-186"/>
    </contour>
  </outline>
</glyph>
<glyph name="tilde" format="2">
  <advance width="391"/>
  <unicode hex="02DC"/>
  <outline>
    <contour>
      <point x="139.535" y="638.805" type="curve" smooth="yes"/>
      <point x="116.646" y="638.805"/>
      <point x="101.789" y="619.304"/>
      <point x="101.789" y="582.16" type="curve"/>
      <point x="20.0718" y="582.16" type="line"/>
      <point x="20.0718" y="694.521"/>
      <point x="77.645" y="728.879"/>
      <point x="132.686" y="728.879" type="curve" smooth="yes"/>
      <point x="203.935" y="728.879"/>
      <point x="213.221" y="671.306"/>
      <point x="251.961" y="671.306" type="curve" smooth="yes"/>
      <point x="274.508" y="671.306"/>
      <point x="288.437" y="690.806"/>
      <point x="288.437" y="728.879" type="curve"/>
      <point x="370.154" y="728.879" type="line"/>
      <point x="370.154" y="617.447"/>
      <point x="316.295" y="581.231"/>
      <point x="259.204" y="581.231" type="curve" smooth="yes"/>
      <point x="187.22" y="581.231"/>
      <point x="178.862" y="638.805"/>
    </contour>
  </outline>
</glyph>
<glyph name="Djecyr" format="2">
  <advance width="803"/>
  <unicode hex="0402"/>
  <outline>
    <contour>
      <point x="38" y="700" type="line"/>
      <point x="38" y="570" type="line"/>
      <point x="614" y="570" type="line"/>
      <point x="614" y="700" type="line"/>
    </contour>
    <contour>
      <point x="176" y="700" type="line"/>
      <point x="176" y="0" type="line"/>
      <point x="318" y="0" type="line"/>
      <point x="318" y="700" type="line"/>
    </contour>
    <contour>
      <point x="291" y="231" type="line"/>
      <point x="329" y="280"/>
      <point x="394" y="310"/>
      <point x="460" y="310" type="curve" smooth="yes"/>
      <point x="555" y="310"/>
      <point x="613" y="248"/>
      <point x="613" y="147" type="curve" smooth="yes"/>
      <point x="613" y="46"/>
      <point x="554" y="-16"/>
      <point x="439" y="-29" type="curve"/>
      <point x="457" y="-168" type="line"/>
      <point x="645" y="-151"/>
      <point x="759" y="-42"/>
      <point x="759" y="148" type="curve" smooth="yes"/>
      <point x="759" y="326"/>
      <point x="659" y="442"/>
      <point x="490" y="442" type="curve" smooth="yes"/>
      <point x="410" y="442"/>
      <point x="333" y="416"/>
      <point x="284" y="371" type="curve"/>
    </contour>
  </outline>
</glyph>
<glyph name="Yukrcyr" format="2">
  <advance width="300"/>
  <unicode hex="0407"/>
  <outline>
    <component base="dieresis.case" xOffset="-77"/>
    <contour>
      <point x="78" y="0" type="line"/>
      <point x="222" y="0" type="line"/>
      <point x="222" y="700" type="line"/>
      <point x="78" y="700" type="line"/>
    </contour>
  </outline>
</glyph>
<glyph name="Ljecyr" format="2">
  <advance width="1051"/>
  <unicode hex="0409"/>
  <outline>
    <contour>
      <point x="20" y="-8" type="line"/>
      <point x="20" y="140" type="line"/>
      <point x="32" y="140" type="line" smooth="yes"/>
      <point x="119" y="140"/>
      <point x="143" y="207"/>
      <point x="143" y="446" type="curve" smooth="yes"/>
      <point x="143" y="700" type="line"/>
      <point x="629" y="700" type="line"/>
      <point x="629" y="478" type="line"/>
      <point x="773" y="478" type="line" smooth="yes"/>
      <point x="918" y="478"/>
      <point x="1015" y="382"/>
      <point x="1015" y="239" type="curve" smooth="yes"/>
      <point x="1015" y="95"/>
      <point x="919" y="0"/>
      <point x="773" y="0" type="curve" smooth="yes"/>
      <point x="491" y="0" type="line"/>
      <point x="491" y="564" type="line"/>
      <point x="281" y="564" type="line"/>
      <point x="281" y="416" type="line" smooth="yes"/>
      <point x="281" y="87"/>
      <point x="212" y="-8"/>
      <point x="40" y="-8" type="curve" smooth="yes"/>
    </contour>
    <contour>
      <point x="629" y="352" type="line"/>
      <point x="629" y="126" type="line"/>
      <point x="761" y="126" type="line" smooth="yes"/>
      <point x="828" y="126"/>
      <point x="873" y="170"/>
      <point x="873" y="239" type="curve" smooth="yes"/>
      <point x="873" y="308"/>
      <point x="828" y="352"/>
      <point x="761" y="352" type="curve" smooth="yes"/>
    </contour>
  </outline>
</glyph>
<glyph name="Njecyr" format="2">
  <advance width="1068"/>
  <unicode hex="040A"/>
  <outline>
    <contour>
      <point x="78" y="0" type="line"/>
      <point x="220" y="0" type="line"/>
      <point x="220" y="332" type="line"/>
      <point x="508" y="332" type="line"/>
      <point x="508" y="0" type="line"/>
      <point x="790" y="0" type="line" smooth="yes"/>
      <point x="936" y="0"/>
      <point x="1032" y="91"/>
      <point x="1032" y="229" type="curve" smooth="yes"/>
      <point x="1032" y="366"/>
      <point x="935" y="458"/>
      <point x="790" y="458" type="curve" smooth="yes"/>
      <point x="650" y="458" type="line"/>
      <point x="650" y="700" type="line"/>
      <point x="508" y="700" type="line"/>
      <point x="508" y="458" type="line"/>
      <point x="220" y="458" type="line"/>
      <point x="220" y="700" type="line"/>
      <point x="78" y="700" type="line"/>
    </contour>
    <contour>
      <point x="650" y="126" type="line"/>
      <point x="650" y="332" type="line"/>
      <point x="776" y="332" type="line" smooth="yes"/>
      <point x="843" y="332"/>
      <point x="888" y="292"/>
      <point x="888" y="229" type="curve" smooth="yes"/>
      <point x="888" y="166"/>
      <point x="843" y="126"/>
      <point x="776" y="126" type="curve" smooth="yes"/>
    </contour>
  </outline>
</glyph>
<glyph name="Tshecyr" format="2">
  <advance width="804"/>
  <unicode hex="040B"/>
  <outline>
    <contour>
      <point x="175" y="0" type="line"/>
      <point x="319" y="0" type="line"/>
      <point x="319" y="568" type="line"/>
      <point x="614" y="568" type="line"/>
      <point x="614" y="700" type="line"/>
      <point x="38" y="700" type="line"/>
      <point x="38" y="568" type="line"/>
      <point x="175" y="568" type="line"/>
    </contour>
    <contour>
      <point x="592" y="0" type="line"/>
      <point x="736" y="0" type="line"/>
      <point x="736" y="194" type="line" smooth="yes"/>
      <point x="736" y="350"/>
      <point x="645" y="442"/>
      <point x="491" y="442" type="curve" smooth="yes"/>
      <point x="403" y="442"/>
      <point x="330" y="412"/>
      <point x="284" y="371" type="curve"/>
      <point x="291" y="231" type="line"/>
      <point x="327" y="277"/>
      <point x="390" y="310"/>
      <point x="460" y="310" type="curve" smooth="yes"/>
      <point x="545" y="310"/>
      <point x="592" y="260"/>
      <point x="592" y="163" type="curve" smooth="yes"/>
    </contour>
  </outline>
</glyph>
<glyph name="Dzhecyr" format="2">
  <advance width="740"/>
  <unicode hex="040F"/>
  <outline>
    <contour>
      <point x="78" y="700" type="line"/>
      <point x="78" y="0" type="line"/>
      <point x="298" y="0" type="line"/>
      <point x="298" y="-142" type="line"/>
      <point x="442" y="-142" type="line"/>
      <point x="442" y="0" type="line"/>
      <point x="662" y="0" type="line"/>
      <point x="662" y="700" type="line"/>
      <point x="518" y="700" type="line"/>
      <point x="518" y="132" type="line"/>
      <point x="222" y="132" type="line"/>
      <point x="222" y="700" type="line"/>
    </contour>
  </outline>
</glyph>
<glyph name="Becyr" format="2">
  <advance width="639"/>
  <unicode hex="0411"/>
  <outline>
    <contour>
      <point x="78" y="700" type="line"/>
      <point x="78" y="0" type="line"/>
      <point x="373" y="0" type="line" smooth="yes"/>
      <point x="512" y="0"/>
      <point x="603" y="86"/>
      <point x="603" y="217" type="curve" smooth="yes"/>
      <point x="603" y="349"/>
      <point x="512" y="434"/>
      <point x="373" y="434" type="curve" smooth="yes"/>
      <point x="218" y="434" type="line"/>
      <point x="218" y="566" type="line"/>
      <point x="535" y="566" type="line"/>
      <point x="535" y="700" type="line"/>
    </contour>
    <contour>
      <point x="218" y="306" type="line"/>
      <point x="361" y="306" type="line" smooth="yes"/>
      <point x="424" y="306"/>
      <point x="460" y="268"/>
      <point x="460" y="217" type="curve" smooth="yes"/>
      <point x="460" y="166"/>
      <point x="424" y="128"/>
      <point x="361" y="128" type="curve" smooth="yes"/>
      <point x="218" y="128" type="line"/>
    </contour>
  </outline>
</glyph>
<glyph name="Gecyr" format="2">
  <advance width="549"/>
  <unicode hex="0413"/>
  <outline>
    <contour>
      <point x="78" y="0" type="line"/>
      <point x="220" y="0" type="line"/>
      <point x="220" y="570" type="line"/>
      <point x="513" y="570" type="line"/>
      <point x="513" y="700" type="line"/>
      <point x="78" y="700" type="line"/>
    </contour>
  </outline>
</glyph>
<glyph name="Decyr" format="2">
  <advance width="792"/>
  <unicode hex="0414"/>
  <outline>
    <contour>
      <point x="34" y="-146" type="line"/>
      <point x="178" y="-146" type="line"/>
      <point x="178" y="0" type="line"/>
      <point x="614" y="0" type="line"/>
      <point x="614" y="-146" type="line"/>
      <point x="758" y="-146" type="line"/>
      <point x="758" y="132" type="line"/>
      <point x="664" y="132" type="line" name=".hr01"/>
      <point x="664" y="701" type="line"/>
      <point x="151" y="701" type="line"/>
      <point x="151" y="500" type="line" smooth="yes"/>
      <point x="151" y="341.408"/>
      <point x="136.797" y="194.189"/>
      <point x="96.4238" y="132" type="curve"/>
      <point x="34" y="132" type="line" name=".hr02"/>
    </contour>
    <contour>
      <point x="248.926" y="132" type="line"/>
      <point x="278.065" y="194.438"/>
      <point x="294" y="322.181" name=".hr03"/>
      <point x="294" y="479" type="curve" smooth="yes"/>
      <point x="294" y="569" type="line"/>
      <point x="518" y="569" type="line"/>
      <point x="518" y="132" type="line"/>
    </contour>
  </outline>
</glyph>
<glyph name="Zhecyr" format="2">
  <advance width="968"/>
  <unicode hex="0416"/>
  <outline>
    <contour>
      <point x="410" y="0" type="line"/>
      <point x="558" y="0" type="line"/>
      <point x="558" y="306" type="line"/>
      <point x="678" y="306" type="line"/>
      <point x="678" y="426" type="line"/>
      <point x="558" y="426" type="line"/>
      <point x="558" y="700" type="line"/>
      <point x="410" y="700" type="line"/>
      <point x="410" y="426" type="line"/>
      <point x="290" y="426" type="line"/>
      <point x="290" y="306" type="line"/>
      <point x="410" y="306" type="line"/>
    </contour>
    <contour>
      <point x="18" y="0" type="line"/>
      <point x="176" y="0" type="line"/>
      <point x="356" y="366" type="line"/>
      <point x="174" y="700" type="line"/>
      <point x="18" y="700" type="line"/>
      <point x="210" y="366" type="line"/>
    </contour>
    <contour>
      <point x="792" y="0" type="line"/>
      <point x="950" y="0" type="line"/>
      <point x="758" y="366" type="line"/>
      <point x="950" y="700" type="line"/>
      <point x="794" y="700" type="line"/>
      <point x="612" y="366" type="line"/>
    </contour>
  </outline>
</glyph>
<glyph name="Zecyr" format="2">
  <advance width="641"/>
  <unicode hex="0417"/>
  <outline>
    <contour>
      <point x="320" y="-16" type="curve" smooth="yes"/>
      <point x="487" y="-16"/>
      <point x="603" y="69"/>
      <point x="603" y="198" type="curve" smooth="yes"/>
      <point x="603" y="283"/>
      <point x="554" y="345"/>
      <point x="468" y="367" type="curve"/>
      <point x="469" y="359" type="line"/>
      <point x="542" y="379"/>
      <point x="585" y="436"/>
      <point x="585" y="514" type="curve" smooth="yes"/>
      <point x="585" y="638"/>
      <point x="479" y="716"/>
      <point x="323" y="716" type="curve" smooth="yes"/>
      <point x="191" y="716"/>
      <point x="98" y="661"/>
      <point x="42" y="555" type="curve"/>
      <point x="160" y="491" type="line"/>
      <point x="192" y="556"/>
      <point x="245" y="588"/>
      <point x="318" y="588" type="curve" smooth="yes"/>
      <point x="393" y="588"/>
      <point x="443" y="554"/>
      <point x="443" y="500" type="curve" smooth="yes"/>
      <point x="443" y="454"/>
      <point x="405" y="423"/>
      <point x="346" y="423" type="curve" smooth="yes"/>
      <point x="216" y="423" type="line"/>
      <point x="216" y="297" type="line"/>
      <point x="348" y="297" type="line" smooth="yes"/>
      <point x="420" y="297"/>
      <point x="459" y="268" name=".hr01"/>
      <point x="459" y="216" type="curve" smooth="yes"/>
      <point x="459" y="155"/>
      <point x="403" y="116"/>
      <point x="320" y="116" type="curve" smooth="yes"/>
      <point x="234" y="116"/>
      <point x="175" y="155"/>
      <point x="142" y="232" type="curve"/>
      <point x="20" y="167" type="line"/>
      <point x="74" y="47"/>
      <point x="174" y="-16"/>
    </contour>
  </outline>
</glyph>
<glyph name="Icyr" format="2">
  <advance width="751"/>
  <unicode hex="0418"/>
  <outline>
    <contour>
      <point x="673" y="0" type="line"/>
      <point x="673" y="700" type="line"/>
      <point x="517" y="700" type="line"/>
      <point x="220" y="216" type="line"/>
      <point x="220" y="700" type="line"/>
      <point x="78" y="700" type="line"/>
      <point x="78" y="0" type="line"/>
      <point x="234" y="0" type="line"/>
      <point x="531" y="484" type="line"/>
      <point x="531" y="0" type="line"/>
    </contour>
  </outline>
</glyph>
<glyph name="Kacyr" format="2">
  <advance width="675"/>
  <unicode hex="041A"/>
  <outline>
    <contour>
      <point x="78" y="0" type="line"/>
      <point x="222" y="0" type="line"/>
      <point x="222" y="304" type="line"/>
      <point x="356" y="304" type="line"/>
      <point x="356" y="428" type="line"/>
      <point x="222" y="428" type="line"/>
      <point x="222" y="700" type="line"/>
      <point x="78" y="700" type="line"/>
    </contour>
    <contour>
      <point x="434" y="368" type="line"/>
      <point x="653" y="700" type="line"/>
      <point x="493" y="700" type="line"/>
      <point x="276" y="366" type="line"/>
      <point x="489" y="0" type="line"/>
      <point x="653" y="0" type="line"/>
    </contour>
  </outline>
</glyph>
<glyph name="Elcyr" format="2">
  <advance width="719"/>
  <unicode hex="041B"/>
  <outline>
    <contour>
      <point x="18" y="-8" type="line"/>
      <point x="38" y="-8" type="line" smooth="yes"/>
      <point x="212" y="-8"/>
      <point x="283" y="87"/>
      <point x="283" y="416" type="curve" smooth="yes"/>
      <point x="283" y="568" type="line"/>
      <point x="499" y="568" type="line"/>
      <point x="499" y="0" type="line"/>
      <point x="643" y="0" type="line"/>
      <point x="643" y="700" type="line"/>
      <point x="140" y="700" type="line"/>
      <point x="140" y="446" type="line" smooth="yes"/>
      <point x="140" y="207"/>
      <point x="116" y="140"/>
      <point x="30" y="140" type="curve" smooth="yes"/>
      <point x="18" y="140" type="line"/>
    </contour>
  </outline>
</glyph>
<glyph name="Encyr" format="2">
  <advance width="736"/>
  <unicode hex="041D"/>
  <outline>
    <contour>
      <point x="78" y="0" type="line"/>
      <point x="222" y="0" type="line"/>
      <point x="222" y="305" type="line"/>
      <point x="514" y="305" type="line"/>
      <point x="514" y="0" type="line"/>
      <point x="658" y="0" type="line"/>
      <point x="658" y="700" type="line"/>
      <point x="514" y="700" type="line"/>
      <point x="514" y="437" type="line"/>
      <point x="222" y="437" type="line"/>
      <point x="222" y="700" type="line"/>
      <point x="78" y="700" type="line"/>
    </contour>
  </outline>
</glyph>
<glyph name="Pecyr" format="2">
  <advance width="746"/>
  <unicode hex="041F"/>
  <outline>
    <contour>
      <point x="78" y="0" type="line"/>
      <point x="220" y="0" type="line"/>
      <point x="220" y="570" type="line"/>
      <point x="526" y="570" type="line"/>
      <point x="526" y="0" type="line"/>
      <point x="668" y="0" type="line"/>
      <point x="668" y="700" type="line"/>
      <point x="78" y="700" type="line"/>
    </contour>
  </outline>
</glyph>
<glyph name="Ucyr" format="2">
  <advance width="634"/>
  <unicode hex="0423"/>
  <outline>
    <contour>
      <point x="166" y="0" type="line"/>
      <point x="309" y="0" type="line"/>
      <point x="616" y="700" type="line"/>
      <point x="466" y="700" type="line"/>
      <point x="307" y="309" type="line"/>
      <point x="293" y="285" type="line"/>
    </contour>
    <contour>
      <point x="263" y="191" type="line"/>
      <point x="328" y="342" type="line"/>
      <point x="172" y="700" type="line"/>
      <point x="18" y="700" type="line"/>
    </contour>
  </outline>
</glyph>
<glyph name="Efcyr" format="2">
  <advance width="892"/>
  <unicode hex="0424"/>
  <outline>
    <contour>
      <point x="377" y="-18" type="line"/>
      <point x="515" y="-18" type="line"/>
      <point x="515" y="718" type="line"/>
      <point x="377" y="718" type="line"/>
    </contour>
    <contour>
      <point x="489" y="47" type="line"/>
      <point x="507" y="47" type="line" smooth="yes"/>
      <point x="709" y="47"/>
      <point x="844" y="167"/>
      <point x="844" y="350" type="curve" smooth="yes"/>
      <point x="844" y="533"/>
      <point x="709" y="653"/>
      <point x="507" y="653" type="curve" smooth="yes"/>
      <point x="489" y="653" type="line"/>
      <point x="489" y="523" type="line"/>
      <point x="511" y="523" type="line" smooth="yes"/>
      <point x="625" y="523"/>
      <point x="702" y="453"/>
      <point x="702" y="350" type="curve" smooth="yes"/>
      <point x="702" y="247"/>
      <point x="625" y="177"/>
      <point x="511" y="177" type="curve" smooth="yes"/>
      <point x="489" y="177" type="line"/>
    </contour>
    <contour>
      <point x="403" y="47" type="line"/>
      <point x="403" y="177" type="line"/>
      <point x="381" y="177" type="line" smooth="yes"/>
      <point x="267" y="177"/>
      <point x="190" y="247"/>
      <point x="190" y="350" type="curve" smooth="yes"/>
      <point x="190" y="453"/>
      <point x="267" y="523"/>
      <point x="381" y="523" type="curve" smooth="yes"/>
      <point x="403" y="523" type="line"/>
      <point x="403" y="653" type="line"/>
      <point x="385" y="653" type="line" smooth="yes"/>
      <point x="183" y="653"/>
      <point x="48" y="533"/>
      <point x="48" y="350" type="curve" smooth="yes"/>
      <point x="48" y="167"/>
      <point x="183" y="47"/>
      <point x="385" y="47" type="curve" smooth="yes"/>
    </contour>
  </outline>
</glyph>
<glyph name="Tsecyr" format="2">
  <advance width="790"/>
  <unicode hex="0426"/>
  <outline>
    <contour>
      <point x="78" y="700" type="line"/>
      <point x="78" y="0" type="line"/>
      <point x="612" y="0" type="line"/>
      <point x="612" y="-142" type="line"/>
      <point x="756" y="-142" type="line"/>
      <point x="756" y="132" type="line"/>
      <point x="662" y="132" type="line"/>
      <point x="662" y="700" type="line"/>
      <point x="518" y="700" type="line"/>
      <point x="518" y="132" type="line"/>
      <point x="222" y="132" type="line"/>
      <point x="222" y="700" type="line"/>
    </contour>
  </outline>
</glyph>
<glyph name="Checyr" format="2">
  <advance width="724"/>
  <unicode hex="0427"/>
  <outline>
    <contour>
      <point x="527" y="449" type="line"/>
      <point x="493" y="402"/>
      <point x="424" y="370"/>
      <point x="352" y="370" type="curve" smooth="yes"/>
      <point x="263" y="370"/>
      <point x="212" y="415"/>
      <point x="212" y="503" type="curve" smooth="yes"/>
      <point x="212" y="700" type="line"/>
      <point x="68" y="700" type="line"/>
      <point x="68" y="490" type="line" smooth="yes"/>
      <point x="68" y="324"/>
      <point x="162" y="232"/>
      <point x="322" y="232" type="curve" smooth="yes"/>
      <point x="413" y="232"/>
      <point x="491" y="262"/>
      <point x="538" y="305" type="curve"/>
    </contour>
    <contour>
      <point x="646" y="0" type="line"/>
      <point x="646" y="700" type="line"/>
      <point x="502" y="700" type="line"/>
      <point x="502" y="0" type="line"/>
    </contour>
  </outline>
</glyph>
<glyph name="Shacyr" format="2">
  <advance width="954"/>
  <unicode hex="0428"/>
  <outline>
    <contour>
      <point x="78" y="0" type="line"/>
      <point x="876" y="0" type="line"/>
      <point x="876" y="700" type="line"/>
      <point x="734" y="700" type="line"/>
      <point x="734" y="130" type="line"/>
      <point x="548" y="130" type="line"/>
      <point x="548" y="700" type="line"/>
      <point x="406" y="700" type="line"/>
      <point x="406" y="130" type="line"/>
      <point x="220" y="130" type="line"/>
      <point x="220" y="700" type="line"/>
      <point x="78" y="700" type="line"/>
    </contour>
  </outline>
</glyph>
<glyph name="Shchacyr" format="2">
  <advance width="1026"/>
  <unicode hex="0429"/>
  <outline>
    <contour>
      <point x="78" y="0" type="line"/>
      <point x="850" y="0" type="line"/>
      <point x="850" y="-148" type="line"/>
      <point x="992" y="-148" type="line"/>
      <point x="992" y="132" type="line"/>
      <point x="898" y="132" type="line"/>
      <point x="898" y="700" type="line"/>
      <point x="754" y="700" type="line"/>
      <point x="754" y="132" type="line"/>
      <point x="560" y="132" type="line"/>
      <point x="560" y="700" type="line"/>
      <point x="416" y="700" type="line"/>
      <point x="416" y="132" type="line"/>
      <point x="222" y="132" type="line"/>
      <point x="222" y="700" type="line"/>
      <point x="78" y="700" type="line"/>
    </contour>
  </outline>
</glyph>
<glyph name="Hardcyr" format="2">
  <advance width="750"/>
  <unicode hex="042A"/>
  <outline>
    <contour>
      <point x="183" y="0" type="line"/>
      <point x="183" y="568" type="line"/>
      <point x="36" y="568" type="line"/>
      <point x="36" y="700" type="line"/>
      <point x="323" y="700" type="line"/>
      <point x="323" y="470" type="line"/>
      <point x="473" y="470" type="line" smooth="yes"/>
      <point x="617" y="470"/>
      <point x="714" y="376"/>
      <point x="714" y="235" type="curve" smooth="yes"/>
      <point x="714" y="93"/>
      <point x="618" y="0"/>
      <point x="472" y="0" type="curve" smooth="yes"/>
    </contour>
    <contour>
      <point x="323" y="129" type="line"/>
      <point x="459" y="129" type="line" smooth="yes"/>
      <point x="526" y="129"/>
      <point x="571" y="170"/>
      <point x="571" y="235" type="curve" smooth="yes"/>
      <point x="571" y="300"/>
      <point x="526" y="341"/>
      <point x="459" y="341" type="curve" smooth="yes"/>
      <point x="323" y="341" type="line"/>
    </contour>
  </outline>
</glyph>
<glyph name="Ylongcyr" format="2">
  <advance width="906"/>
  <unicode hex="042B"/>
  <anchor x="453" y="700" name="top"/>
  <outline>
    <contour>
      <point x="828" y="700" type="line"/>
      <point x="828" y="0" type="line"/>
      <point x="684" y="0" type="line"/>
      <point x="684" y="700" type="line"/>
    </contour>
    <contour>
      <point x="78" y="0" type="line"/>
      <point x="78" y="700" type="line"/>
      <point x="220" y="700" type="line"/>
      <point x="220" y="470" type="line"/>
      <point x="365" y="470" type="line" smooth="yes"/>
      <point x="509" y="470"/>
      <point x="606" y="376"/>
      <point x="606" y="235" type="curve" smooth="yes"/>
      <point x="606" y="93"/>
      <point x="510" y="0"/>
      <point x="364" y="0" type="curve" smooth="yes"/>
    </contour>
    <contour>
      <point x="220" y="128" type="line"/>
      <point x="350" y="128" type="line" smooth="yes"/>
      <point x="417" y="128"/>
      <point x="462" y="170"/>
      <point x="462" y="235" type="curve" smooth="yes"/>
      <point x="462" y="300"/>
      <point x="417" y="342"/>
      <point x="350" y="342" type="curve" smooth="yes"/>
      <point x="220" y="342" type="line"/>
    </contour>
  </outline>
</glyph>
<glyph name="Softcyr" format="2">
  <advance width="645"/>
  <unicode hex="042C"/>
  <outline>
    <contour>
      <point x="78" y="0" type="line"/>
      <point x="78" y="700" type="line"/>
      <point x="220" y="700" type="line"/>
      <point x="220" y="470" type="line"/>
      <point x="368" y="470" type="line" smooth="yes"/>
      <point x="512" y="470"/>
      <point x="609" y="376"/>
      <point x="609" y="235" type="curve" smooth="yes"/>
      <point x="609" y="93"/>
      <point x="513" y="0"/>
      <point x="367" y="0" type="curve" smooth="yes"/>
    </contour>
    <contour>
      <point x="220" y="128" type="line"/>
      <point x="353" y="128" type="line" smooth="yes"/>
      <point x="420" y="128"/>
      <point x="465" y="170"/>
      <point x="465" y="235" type="curve" smooth="yes"/>
      <point x="465" y="300"/>
      <point x="420" y="342"/>
      <point x="353" y="342" type="curve" smooth="yes"/>
      <point x="220" y="342" type="line"/>
    </contour>
  </outline>
</glyph>
<glyph name="Ereversedcyr" format="2">
  <advance width="760"/>
  <unicode hex="042D"/>
  <outline>
    <contour>
      <point x="263" y="289" type="line"/>
      <point x="645" y="289" type="line"/>
      <point x="645" y="419" type="line"/>
      <point x="263" y="419" type="line"/>
    </contour>
    <contour>
      <point x="347" y="-16" type="curve" smooth="yes"/>
      <point x="562" y="-16"/>
      <point x="712" y="140"/>
      <point x="712" y="350" type="curve" smooth="yes"/>
      <point x="712" y="560"/>
      <point x="562" y="716"/>
      <point x="347" y="716" type="curve" smooth="yes"/>
      <point x="198" y="716"/>
      <point x="81" y="641"/>
      <point x="28" y="515" type="curve"/>
      <point x="156" y="453" type="line"/>
      <point x="192" y="536"/>
      <point x="261" y="582"/>
      <point x="349" y="582" type="curve" smooth="yes"/>
      <point x="478" y="582"/>
      <point x="566" y="483"/>
      <point x="566" y="350" type="curve" smooth="yes"/>
      <point x="566" y="217"/>
      <point x="478" y="118"/>
      <point x="349" y="118" type="curve" smooth="yes"/>
      <point x="261" y="118"/>
      <point x="192" y="164"/>
      <point x="156" y="247" type="curve"/>
      <point x="28" y="185" type="line"/>
      <point x="81" y="59"/>
      <point x="198" y="-16"/>
    </contour>
  </outline>
</glyph>
<glyph name="Yucyr" format="2">
  <advance width="1123"/>
  <unicode hex="042E"/>
  <outline>
    <contour>
      <point x="78" y="0" type="line"/>
      <point x="222" y="0" type="line"/>
      <point x="222" y="302" type="line"/>
      <point x="440" y="302" type="line"/>
      <point x="440" y="434" type="line"/>
      <point x="222" y="434" type="line"/>
      <point x="222" y="700" type="line"/>
      <point x="78" y="700" type="line"/>
    </contour>
    <contour>
      <point x="718" y="-16" type="curve" smooth="yes"/>
      <point x="926" y="-16"/>
      <point x="1075" y="140"/>
      <point x="1075" y="350" type="curve" smooth="yes"/>
      <point x="1075" y="560"/>
      <point x="926" y="716"/>
      <point x="718" y="716" type="curve" smooth="yes"/>
      <point x="508" y="716"/>
      <point x="359" y="560"/>
      <point x="359" y="350" type="curve" smooth="yes"/>
      <point x="359" y="140"/>
      <point x="508" y="-16"/>
    </contour>
    <contour>
      <point x="720" y="118" type="curve" smooth="yes"/>
      <point x="592" y="118"/>
      <point x="505" y="217"/>
      <point x="505" y="352" type="curve" smooth="yes"/>
      <point x="505" y="483"/>
      <point x="592" y="582"/>
      <point x="720" y="582" type="curve" smooth="yes"/>
      <point x="842" y="582"/>
      <point x="929" y="483"/>
      <point x="929" y="352" type="curve" smooth="yes"/>
      <point x="929" y="217"/>
      <point x="842" y="118"/>
    </contour>
  </outline>
</glyph>
<glyph name="Yacyr" format="2">
  <advance width="662"/>
  <unicode hex="042F"/>
  <outline>
    <contour>
      <point x="335" y="263" type="line"/>
      <point x="229" y="329" type="line"/>
      <point x="18" y="0" type="line"/>
      <point x="170" y="0" type="line"/>
    </contour>
    <contour>
      <point x="584" y="0" type="line"/>
      <point x="584" y="700" type="line"/>
      <point x="302" y="700" type="line" smooth="yes"/>
      <point x="158" y="700"/>
      <point x="59" y="607"/>
      <point x="59" y="467" type="curve" smooth="yes"/>
      <point x="59" y="326"/>
      <point x="158" y="234"/>
      <point x="302" y="234" type="curve" smooth="yes"/>
      <point x="446" y="234" type="line"/>
      <point x="446" y="0" type="line"/>
    </contour>
    <contour>
      <point x="446" y="360" type="line"/>
      <point x="310" y="360" type="line" smooth="yes"/>
      <point x="244" y="360"/>
      <point x="201" y="405"/>
      <point x="201" y="467" type="curve" smooth="yes"/>
      <point x="201" y="529"/>
      <point x="244" y="574"/>
      <point x="310" y="574" type="curve" smooth="yes"/>
      <point x="446" y="574" type="line"/>
    </contour>
  </outline>
</glyph>
<glyph name="becyr" format="2">
  <advance width="617"/>
  <unicode hex="0431"/>
  <outline>
    <contour>
      <point x="320.091" y="-14" type="curve" smooth="yes"/>
      <point x="475" y="-14"/>
      <point x="581" y="90"/>
      <point x="581" y="242.433" type="curve" smooth="yes"/>
      <point x="581" y="389"/>
      <point x="483" y="492"/>
      <point x="341.597" y="492" type="curve" smooth="yes"/>
      <point x="258" y="492"/>
      <point x="193" y="456"/>
      <point x="154" y="387" type="curve"/>
      <point x="166" y="387" type="line"/>
      <point x="166" y="522"/>
      <point x="225" y="580"/>
      <point x="374" y="590" type="curve" smooth="yes"/>
      <point x="540" y="601" type="line"/>
      <point x="534" y="727" type="line"/>
      <point x="368" y="714" type="line" smooth="yes"/>
      <point x="141" y="696"/>
      <point x="46" y="584"/>
      <point x="46" y="337" type="curve" smooth="yes"/>
      <point x="46" y="307" type="line" smooth="yes"/>
      <point x="46" y="107"/>
      <point x="153" y="-14"/>
    </contour>
    <contour>
      <point x="318" y="104" type="curve" smooth="yes"/>
      <point x="241" y="104"/>
      <point x="187" y="159"/>
      <point x="187" y="241.5" type="curve" smooth="yes"/>
      <point x="187" y="324"/>
      <point x="241" y="378"/>
      <point x="318" y="378" type="curve" smooth="yes"/>
      <point x="395" y="378"/>
      <point x="450" y="324"/>
      <point x="450" y="241.5" type="curve" smooth="yes"/>
      <point x="450" y="159"/>
      <point x="395" y="104"/>
    </contour>
  </outline>
</glyph>
<glyph name="vecyr" format="2">
  <advance width="517"/>
  <unicode hex="0432"/>
  <outline>
    <contour>
      <point x="60" y="0" type="line"/>
      <point x="315" y="0" type="line" smooth="yes"/>
      <point x="419" y="0"/>
      <point x="483" y="55"/>
      <point x="483" y="139.739" type="curve" smooth="yes"/>
      <point x="483" y="210"/>
      <point x="439" y="258"/>
      <point x="364" y="273" type="curve"/>
      <point x="364" y="259" type="line"/>
      <point x="426" y="271"/>
      <point x="463" y="315"/>
      <point x="463" y="374.822" type="curve" smooth="yes"/>
      <point x="463" y="451"/>
      <point x="403" y="500"/>
      <point x="304" y="500" type="curve" smooth="yes"/>
      <point x="60" y="500" type="line"/>
    </contour>
    <contour>
      <point x="180" y="306" type="line"/>
      <point x="180" y="400" type="line"/>
      <point x="284" y="400" type="line" smooth="yes"/>
      <point x="322" y="400"/>
      <point x="341" y="379"/>
      <point x="341" y="354" type="curve" smooth="yes"/>
      <point x="341" y="329"/>
      <point x="322" y="306"/>
      <point x="284" y="306" type="curve" smooth="yes"/>
    </contour>
    <contour>
      <point x="180" y="100" type="line"/>
      <point x="180" y="208" type="line"/>
      <point x="299" y="208" type="line" smooth="yes"/>
      <point x="340" y="208"/>
      <point x="361" y="185"/>
      <point x="361" y="154" type="curve" smooth="yes"/>
      <point x="361" y="123"/>
      <point x="340" y="100"/>
      <point x="299" y="100" type="curve" smooth="yes"/>
    </contour>
  </outline>
</glyph>
<glyph name="gecyr" format="2">
  <advance width="414"/>
  <unicode hex="0433"/>
  <anchor x="240" y="500" name="top"/>
  <outline>
    <contour>
      <point x="60" y="0" type="line"/>
      <point x="190" y="0" type="line"/>
      <point x="190" y="382" type="line"/>
      <point x="396" y="382" type="line"/>
      <point x="396" y="500" type="line"/>
      <point x="60" y="500" type="line"/>
    </contour>
  </outline>
</glyph>
<glyph name="decyr" format="2">
  <advance width="625"/>
  <unicode hex="0434"/>
  <outline>
    <contour>
      <point x="26" y="-124" type="line"/>
      <point x="154" y="-124" type="line"/>
      <point x="154" y="0" type="line" name=".hr01"/>
      <point x="471" y="0" type="line"/>
      <point x="471" y="-124" type="line" name=".hr02"/>
      <point x="599" y="-124" type="line"/>
      <point x="599" y="118" type="line"/>
      <point x="521" y="118" type="line" name=".hr03"/>
      <point x="521" y="500" type="line"/>
      <point x="115" y="500" type="line"/>
      <point x="115" y="388" type="line" smooth="yes"/>
      <point x="115" y="210"/>
      <point x="99" y="158"/>
      <point x="74" y="118" type="curve"/>
      <point x="26" y="118" type="line" name=".hr04"/>
    </contour>
    <contour>
      <point x="208" y="118" type="line"/>
      <point x="229" y="170"/>
      <point x="239" y="220"/>
      <point x="239" y="345" type="curve" smooth="yes"/>
      <point x="239" y="382" type="line"/>
      <point x="391" y="382" type="line"/>
      <point x="391" y="118" type="line"/>
    </contour>
  </outline>
</glyph>
<glyph name="zhecyr" format="2">
  <advance width="766"/>
  <unicode hex="0436"/>
  <outline>
    <contour>
      <point x="319" y="0" type="line"/>
      <point x="447" y="0" type="line"/>
      <point x="447" y="205" type="line"/>
      <point x="541" y="205" type="line"/>
      <point x="541" y="313" type="line"/>
      <point x="447" y="313" type="line"/>
      <point x="447" y="500" type="line"/>
      <point x="319" y="500" type="line"/>
      <point x="319" y="313" type="line"/>
      <point x="225" y="313" type="line"/>
      <point x="225" y="205" type="line"/>
      <point x="319" y="205" type="line"/>
    </contour>
    <contour>
      <point x="466" y="258" type="line"/>
      <point x="612" y="0" type="line"/>
      <point x="750" y="0" type="line"/>
      <point x="597" y="261" type="line"/>
      <point x="745" y="500" type="line"/>
      <point x="613" y="500" type="line"/>
    </contour>
    <contour>
      <point x="300" y="258" type="line"/>
      <point x="153" y="500" type="line"/>
      <point x="21" y="500" type="line"/>
      <point x="169" y="261" type="line"/>
      <point x="16" y="0" type="line"/>
      <point x="154" y="0" type="line"/>
    </contour>
  </outline>
</glyph>
<glyph name="zecyr" format="2">
  <advance width="491"/>
  <unicode hex="0437"/>
  <outline>
    <contour>
      <point x="239.736" y="-14" type="curve" smooth="yes"/>
      <point x="367" y="-14"/>
      <point x="457" y="46"/>
      <point x="457" y="138.264" type="curve" smooth="yes"/>
      <point x="457" y="199"/>
      <point x="418" y="240"/>
      <point x="342" y="256" type="curve"/>
      <point x="344" y="244" type="line"/>
      <point x="415" y="270"/>
      <point x="447" y="307" name=".hr01"/>
      <point x="447" y="363.906" type="curve" smooth="yes"/>
      <point x="447" y="455"/>
      <point x="365" y="514"/>
      <point x="244.345" y="514" type="curve" smooth="yes"/>
      <point x="145" y="514"/>
      <point x="71" y="474"/>
      <point x="30" y="399" type="curve"/>
      <point x="126" y="341" type="line"/>
      <point x="149" y="388"/>
      <point x="187" y="410"/>
      <point x="238.917" y="410" type="curve" smooth="yes"/>
      <point x="292" y="410"/>
      <point x="326" y="387"/>
      <point x="326" y="352.764" type="curve" smooth="yes"/>
      <point x="326" y="324"/>
      <point x="302" y="306"/>
      <point x="262" y="306" type="curve" smooth="yes"/>
      <point x="162" y="306" type="line"/>
      <point x="162" y="201" type="line"/>
      <point x="260" y="201" type="line" smooth="yes"/>
      <point x="307" y="201"/>
      <point x="335" y="182" name=".hr02"/>
      <point x="335" y="152.334" type="curve" smooth="yes"/>
      <point x="335" y="116"/>
      <point x="293" y="92"/>
      <point x="236.404" y="92" type="curve" smooth="yes"/>
      <point x="181" y="92"/>
      <point x="139" y="115"/>
      <point x="112" y="169" type="curve"/>
      <point x="15" y="112" type="line"/>
      <point x="59" y="29"/>
      <point x="132" y="-14"/>
    </contour>
  </outline>
</glyph>
<glyph name="icyr" format="2">
  <advance width="580"/>
  <unicode hex="0438"/>
  <outline>
    <contour>
      <point x="190" y="500" type="line"/>
      <point x="190" y="188" type="line"/>
      <point x="391" y="500" type="line"/>
      <point x="520" y="500" type="line"/>
      <point x="520" y="0" type="line"/>
      <point x="390" y="0" type="line"/>
      <point x="390" y="312" type="line"/>
      <point x="189" y="0" type="line"/>
      <point x="60" y="0" type="line"/>
      <point x="60" y="500" type="line"/>
    </contour>
  </outline>
</glyph>
<glyph name="ishortcyr" format="2">
  <advance width="586"/>
  <unicode hex="0439"/>
  <outline>
    <component base="icyr"/>
    <contour>
      <point x="292" y="584" type="curve" smooth="yes"/>
      <point x="186" y="584"/>
      <point x="116" y="646"/>
      <point x="108" y="747" type="curve"/>
      <point x="214" y="747" type="line"/>
      <point x="218" y="702"/>
      <point x="250" y="676"/>
      <point x="292" y="676" type="curve" smooth="yes"/>
      <point x="334" y="676"/>
      <point x="367" y="702"/>
      <point x="372" y="747" type="curve"/>
      <point x="478" y="747" type="line"/>
      <point x="470" y="646"/>
      <point x="398" y="584"/>
    </contour>
  </outline>
</glyph>
<glyph name="kacyr" format="2">
  <advance width="548"/>
  <unicode hex="043A"/>
  <outline>
    <contour>
      <point x="190" y="500" type="line"/>
      <point x="60" y="500" type="line"/>
      <point x="60" y="0" type="line"/>
      <point x="190" y="0" type="line"/>
      <point x="190" y="202" type="line"/>
      <point x="284" y="202" type="line"/>
      <point x="284" y="316" type="line"/>
      <point x="190" y="316" type="line"/>
    </contour>
    <contour>
      <point x="215" y="259" type="line"/>
      <point x="389" y="0" type="line"/>
      <point x="532" y="0" type="line"/>
      <point x="350" y="262" type="line"/>
      <point x="527" y="500" type="line"/>
      <point x="389" y="500" type="line"/>
    </contour>
  </outline>
</glyph>
<glyph name="elcyr" format="2">
  <advance width="567"/>
  <unicode hex="043B"/>
  <outline>
    <contour>
      <point x="20" y="-4" type="line"/>
      <point x="35" y="-4" type="line" smooth="yes"/>
      <point x="193" y="-4"/>
      <point x="233" y="84"/>
      <point x="233" y="296" type="curve" smooth="yes"/>
      <point x="233" y="382" type="line"/>
      <point x="379" y="382" type="line"/>
      <point x="379" y="0" type="line"/>
      <point x="509" y="0" type="line"/>
      <point x="509" y="500" type="line"/>
      <point x="107" y="500" type="line"/>
      <point x="107" y="315" type="line" smooth="yes"/>
      <point x="107" y="155"/>
      <point x="92" y="120"/>
      <point x="26" y="120" type="curve" smooth="yes"/>
      <point x="20" y="120" type="line"/>
    </contour>
  </outline>
</glyph>
<glyph name="emcyr" format="2">
  <advance width="688"/>
  <unicode hex="043C"/>
  <outline>
    <contour>
      <point x="349" y="216" type="line"/>
      <point x="212" y="500" type="line"/>
      <point x="60" y="500" type="line"/>
      <point x="60" y="0" type="line"/>
      <point x="178" y="0" type="line"/>
      <point x="178" y="343" type="line"/>
      <point x="175" y="342" type="line"/>
      <point x="310" y="73" type="line"/>
      <point x="378" y="73" type="line"/>
      <point x="513" y="342" type="line"/>
      <point x="510" y="343" type="line"/>
      <point x="510" y="0" type="line"/>
      <point x="628" y="0" type="line"/>
      <point x="628" y="500" type="line"/>
      <point x="478" y="500" type="line"/>
      <point x="341" y="216" type="line"/>
    </contour>
  </outline>
</glyph>
<glyph name="encyr" format="2">
  <advance width="580"/>
  <unicode hex="043D"/>
  <outline>
    <contour>
      <point x="520" y="500" type="line"/>
      <point x="520" y="0" type="line"/>
      <point x="392" y="0" type="line"/>
      <point x="392" y="206" type="line"/>
      <point x="188" y="206" type="line"/>
      <point x="188" y="0" type="line"/>
      <point x="60" y="0" type="line"/>
      <point x="60" y="500" type="line"/>
      <point x="188" y="500" type="line"/>
      <point x="188" y="322" type="line"/>
      <point x="392" y="322" type="line"/>
      <point x="392" y="500" type="line"/>
    </contour>
  </outline>
  <guideline angle="90" x="-3067" y="0"/>
</glyph>
<glyph name="pecyr" format="2">
  <advance width="572"/>
  <unicode hex="043F"/>
  <outline>
    <contour>
      <point x="60" y="500" type="line"/>
      <point x="512" y="500" type="line"/>
      <point x="512" y="0" type="line"/>
      <point x="384" y="0" type="line"/>
      <point x="384" y="384" type="line"/>
      <point x="188" y="384" type="line"/>
      <point x="188" y="0" type="line"/>
      <point x="60" y="0" type="line"/>
    </contour>
  </outline>
</glyph>
<glyph name="tecyr" format="2">
  <advance width="468"/>
  <unicode hex="0442"/>
  <outline>
    <contour>
      <point x="450" y="500" type="line"/>
      <point x="450" y="382" type="line"/>
      <point x="299" y="382" type="line"/>
      <point x="299" y="0" type="line"/>
      <point x="169" y="0" type="line"/>
      <point x="169" y="382" type="line"/>
      <point x="18" y="382" type="line"/>
      <point x="18" y="500" type="line"/>
    </contour>
  </outline>
</glyph>
<glyph name="efcyr" format="2">
  <advance width="724"/>
  <unicode hex="0444"/>
  <outline>
    <contour>
      <point x="300" y="722" type="line"/>
      <point x="424" y="722" type="line"/>
      <point x="424" y="513" type="line"/>
      <point x="582" y="503"/>
      <point x="688" y="399"/>
      <point x="688" y="250" type="curve" smooth="yes"/>
      <point x="688" y="101"/>
      <point x="582" y="-3"/>
      <point x="424" y="-13" type="curve"/>
      <point x="424" y="-200" type="line"/>
      <point x="300" y="-200" type="line"/>
      <point x="300" y="-13" type="line"/>
      <point x="142" y="-3"/>
      <point x="36" y="101"/>
      <point x="36" y="250" type="curve" smooth="yes"/>
      <point x="36" y="399"/>
      <point x="142" y="503"/>
      <point x="300" y="513" type="curve"/>
    </contour>
    <contour>
      <point x="424" y="103" type="line"/>
      <point x="504" y="109"/>
      <point x="560" y="168"/>
      <point x="560" y="250" type="curve" smooth="yes"/>
      <point x="560" y="332"/>
      <point x="504" y="391"/>
      <point x="424" y="397" type="curve"/>
    </contour>
    <contour>
      <point x="300" y="103" type="curve"/>
      <point x="300" y="397" type="line"/>
      <point x="220" y="391"/>
      <point x="164" y="332"/>
      <point x="164" y="250" type="curve" smooth="yes"/>
      <point x="164" y="168"/>
      <point x="220" y="109"/>
    </contour>
  </outline>
</glyph>
<glyph name="tsecyr" format="2">
  <advance width="616"/>
  <unicode hex="0446"/>
  <outline>
    <contour>
      <point x="60" y="0" type="line"/>
      <point x="60" y="500" type="line"/>
      <point x="190" y="500" type="line"/>
      <point x="190" y="118" type="line"/>
      <point x="382" y="118" type="line"/>
      <point x="382" y="500" type="line"/>
      <point x="512" y="500" type="line"/>
      <point x="512" y="118" type="line"/>
      <point x="590" y="118" type="line"/>
      <point x="590" y="-124" type="line"/>
      <point x="462" y="-124" type="line"/>
      <point x="462" y="0" type="line"/>
    </contour>
  </outline>
</glyph>
<glyph name="checyr" format="2">
  <advance width="551"/>
  <unicode hex="0447"/>
  <outline>
    <contour>
      <point x="393" y="334" type="line"/>
      <point x="371" y="303"/>
      <point x="322" y="279"/>
      <point x="267" y="279" type="curve" smooth="yes"/>
      <point x="197" y="279"/>
      <point x="170" y="318"/>
      <point x="170" y="388" type="curve" smooth="yes"/>
      <point x="170" y="500" type="line"/>
      <point x="42" y="500" type="line"/>
      <point x="42" y="356" type="line" smooth="yes"/>
      <point x="42" y="230"/>
      <point x="118" y="163"/>
      <point x="233" y="163" type="curve" smooth="yes"/>
      <point x="298" y="163"/>
      <point x="363" y="184"/>
      <point x="401" y="217" type="curve"/>
    </contour>
    <contour>
      <point x="491" y="0" type="line"/>
      <point x="491" y="500" type="line"/>
      <point x="363" y="500" type="line"/>
      <point x="363" y="0" type="line"/>
    </contour>
  </outline>
</glyph>
<glyph name="shacyr" format="2">
  <advance width="774"/>
  <unicode hex="0448"/>
  <outline>
    <contour>
      <point x="60" y="0" type="line"/>
      <point x="60" y="500" type="line"/>
      <point x="190" y="500" type="line"/>
      <point x="190" y="118" type="line"/>
      <point x="322" y="118" type="line"/>
      <point x="322" y="500" type="line"/>
      <point x="452" y="500" type="line"/>
      <point x="452" y="118" type="line"/>
      <point x="584" y="118" type="line"/>
      <point x="584" y="500" type="line"/>
      <point x="714" y="500" type="line"/>
      <point x="714" y="0" type="line"/>
    </contour>
  </outline>
</glyph>
<glyph name="shchacyr" format="2">
  <advance width="814"/>
  <unicode hex="0449"/>
  <outline>
    <contour>
      <point x="60" y="0" type="line"/>
      <point x="60" y="500" type="line"/>
      <point x="190" y="500" type="line"/>
      <point x="190" y="117" type="line"/>
      <point x="322" y="117" type="line"/>
      <point x="322" y="500" type="line"/>
      <point x="452" y="500" type="line"/>
      <point x="452" y="117" type="line"/>
      <point x="584" y="117" type="line"/>
      <point x="584" y="500" type="line"/>
      <point x="714" y="500" type="line"/>
      <point x="714" y="117" type="line"/>
      <point x="788" y="117" type="line" name=".hr01"/>
      <point x="788" y="-124" type="line"/>
      <point x="660" y="-124" type="line"/>
      <point x="660" y="0" type="line" name=".hr02"/>
    </contour>
  </outline>
</glyph>
<glyph name="hardcyr" format="2">
  <advance width="592"/>
  <unicode hex="044A"/>
  <outline>
    <contour>
      <point x="259" y="500" type="line"/>
      <point x="259" y="354" type="line"/>
      <point x="383" y="354" type="line" smooth="yes"/>
      <point x="492" y="354"/>
      <point x="564" y="279"/>
      <point x="564" y="177" type="curve" smooth="yes"/>
      <point x="564" y="75"/>
      <point x="492" y="0"/>
      <point x="383" y="0" type="curve" smooth="yes"/>
      <point x="139" y="0" type="line"/>
      <point x="139" y="382" type="line"/>
      <point x="18" y="382" type="line" name=".hr01"/>
      <point x="18" y="500" type="line"/>
    </contour>
    <contour>
      <point x="259" y="108" type="line"/>
      <point x="367" y="108" type="line" smooth="yes"/>
      <point x="414" y="108"/>
      <point x="442" y="136"/>
      <point x="442" y="177" type="curve" smooth="yes"/>
      <point x="442" y="218"/>
      <point x="414" y="246"/>
      <point x="367" y="246" type="curve" smooth="yes"/>
      <point x="259" y="246" type="line"/>
    </contour>
  </outline>
</glyph>
<glyph name="ylongcyr" format="2">
  <advance width="741"/>
  <unicode hex="044B"/>
  <outline>
    <contour>
      <point x="553" y="500" type="line"/>
      <point x="681" y="500" type="line"/>
      <point x="681" y="0" type="line"/>
      <point x="553" y="0" type="line"/>
    </contour>
    <contour>
      <point x="180" y="108" type="line"/>
      <point x="291" y="108" type="line" smooth="yes"/>
      <point x="338" y="108"/>
      <point x="366" y="136"/>
      <point x="366" y="177" type="curve" smooth="yes"/>
      <point x="366" y="218"/>
      <point x="338" y="246"/>
      <point x="291" y="246" type="curve" smooth="yes"/>
      <point x="180" y="246" type="line"/>
    </contour>
    <contour>
      <point x="307" y="0" type="curve" smooth="yes"/>
      <point x="60" y="0" type="line"/>
      <point x="60" y="500" type="line"/>
      <point x="180" y="500" type="line"/>
      <point x="180" y="354" type="line"/>
      <point x="307" y="354" type="line" smooth="yes"/>
      <point x="416" y="354"/>
      <point x="488" y="279"/>
      <point x="488" y="177" type="curve" smooth="yes"/>
      <point x="488" y="75"/>
      <point x="416" y="0"/>
    </contour>
  </outline>
</glyph>
<glyph name="softcyr" format="2">
  <advance width="513"/>
  <unicode hex="044C"/>
  <outline>
    <contour>
      <point x="180" y="108" type="line"/>
      <point x="288" y="108" type="line" smooth="yes"/>
      <point x="335" y="108"/>
      <point x="363" y="136"/>
      <point x="363" y="177" type="curve" smooth="yes"/>
      <point x="363" y="218"/>
      <point x="335" y="246"/>
      <point x="288" y="246" type="curve" smooth="yes"/>
      <point x="180" y="246" type="line"/>
    </contour>
    <contour>
      <point x="304" y="0" type="curve" smooth="yes"/>
      <point x="60" y="0" type="line"/>
      <point x="60" y="500" type="line"/>
      <point x="180" y="500" type="line"/>
      <point x="180" y="354" type="line"/>
      <point x="304" y="354" type="line" smooth="yes"/>
      <point x="413" y="354"/>
      <point x="485" y="279"/>
      <point x="485" y="177" type="curve" smooth="yes"/>
      <point x="485" y="75"/>
      <point x="413" y="0"/>
    </contour>
  </outline>
</glyph>
<glyph name="ereversedcyr" format="2">
  <advance width="566"/>
  <unicode hex="044D"/>
  <outline>
    <contour>
      <point x="193" y="199" type="line"/>
      <point x="446" y="199" type="line"/>
      <point x="446" y="305" type="line"/>
      <point x="193" y="305" type="line"/>
    </contour>
    <contour>
      <point x="530" y="250" type="curve" smooth="yes"/>
      <point x="530" y="404"/>
      <point x="419" y="514"/>
      <point x="263.177" y="514" type="curve" smooth="yes"/>
      <point x="154" y="514"/>
      <point x="68" y="460"/>
      <point x="30" y="369" type="curve"/>
      <point x="140" y="317" type="line"/>
      <point x="163" y="372"/>
      <point x="208" y="400"/>
      <point x="265" y="400" type="curve" smooth="yes"/>
      <point x="346" y="400"/>
      <point x="404" y="338"/>
      <point x="404" y="250" type="curve" smooth="yes"/>
      <point x="404" y="162"/>
      <point x="346" y="100"/>
      <point x="264.048" y="100" type="curve" smooth="yes"/>
      <point x="208" y="100"/>
      <point x="162" y="129"/>
      <point x="140" y="187" type="curve"/>
      <point x="29" y="137" type="line"/>
      <point x="66" y="42"/>
      <point x="153" y="-14"/>
      <point x="263.763" y="-14" type="curve" smooth="yes"/>
      <point x="419" y="-14"/>
      <point x="530" y="96"/>
    </contour>
  </outline>
</glyph>
<glyph name="yucyr" format="2">
  <advance width="832"/>
  <unicode hex="044E"/>
  <outline>
    <contour>
      <point x="354" y="192" type="line"/>
      <point x="188" y="192" type="line"/>
      <point x="188" y="0" type="line"/>
      <point x="60" y="0" type="line"/>
      <point x="60" y="500" type="line"/>
      <point x="188" y="500" type="line"/>
      <point x="188" y="310" type="line"/>
      <point x="354" y="310" type="line"/>
    </contour>
    <contour>
      <point x="536" y="-14" type="curve" smooth="yes"/>
      <point x="383" y="-14"/>
      <point x="275" y="98"/>
      <point x="275" y="250" type="curve" smooth="yes"/>
      <point x="275" y="402"/>
      <point x="383" y="514"/>
      <point x="536" y="514" type="curve" smooth="yes"/>
      <point x="688" y="514"/>
      <point x="796" y="402"/>
      <point x="796" y="250" type="curve" smooth="yes"/>
      <point x="796" y="98"/>
      <point x="688" y="-14"/>
    </contour>
    <contour>
      <point x="533" y="106" type="curve" smooth="yes"/>
      <point x="608" y="106"/>
      <point x="664" y="167"/>
      <point x="664" y="251" type="curve" smooth="yes"/>
      <point x="664" y="335"/>
      <point x="608" y="394"/>
      <point x="533" y="394" type="curve" smooth="yes"/>
      <point x="458" y="394"/>
      <point x="402" y="335"/>
      <point x="402" y="251" type="curve" smooth="yes"/>
      <point x="402" y="167"/>
      <point x="458" y="106"/>
    </contour>
  </outline>
</glyph>
<glyph name="yacyr" format="2">
  <advance width="532"/>
  <unicode hex="044F"/>
  <outline>
    <contour>
      <point x="264" y="177" type="line"/>
      <point x="163" y="0" type="line"/>
      <point x="20" y="0" type="line"/>
      <point x="149" y="207" type="line"/>
    </contour>
    <contour>
      <point x="349" y="392" type="line"/>
      <point x="242" y="392" type="line" smooth="yes"/>
      <point x="195" y="392"/>
      <point x="167" y="366"/>
      <point x="167" y="327" type="curve" smooth="yes"/>
      <point x="167" y="288"/>
      <point x="195" y="262"/>
      <point x="242" y="262" type="curve" smooth="yes"/>
      <point x="349" y="262" type="line"/>
    </contour>
    <contour>
      <point x="225" y="500" type="curve" smooth="yes"/>
      <point x="472" y="500" type="line"/>
      <point x="472" y="0" type="line"/>
      <point x="349" y="0" type="line"/>
      <point x="349" y="154" type="line"/>
      <point x="225" y="154" type="line" smooth="yes"/>
      <point x="116" y="154"/>
      <point x="44" y="227"/>
      <point x="44" y="327" type="curve" smooth="yes"/>
      <point x="44" y="427"/>
      <point x="116" y="500"/>
    </contour>
  </outline>
</glyph>
<glyph name="djecyr" format="2">
  <advance width="615"/>
  <unicode hex="0452"/>
  <outline>
    <contour>
      <point x="100" y="0" type="line"/>
      <point x="228" y="0" type="line"/>
      <point x="228" y="700" type="line"/>
      <point x="100" y="700" type="line"/>
    </contour>
    <contour>
      <point x="429" y="19" type="line" smooth="yes"/>
      <point x="429" y="-49"/>
      <point x="409" y="-84"/>
      <point x="345" y="-84" type="curve" smooth="yes"/>
      <point x="325" y="-84" type="line"/>
      <point x="325" y="-206" type="line"/>
      <point x="361" y="-206" type="line" smooth="yes"/>
      <point x="488" y="-206"/>
      <point x="557" y="-132"/>
      <point x="557" y="3" type="curve" smooth="yes"/>
      <point x="557" y="279" type="line" smooth="yes"/>
      <point x="557" y="395"/>
      <point x="482" y="474"/>
      <point x="372" y="474" type="curve" smooth="yes"/>
      <point x="297" y="474"/>
      <point x="244" y="438"/>
      <point x="215" y="367" type="curve"/>
      <point x="228" y="245" type="line"/>
      <point x="228" y="312"/>
      <point x="273" y="358"/>
      <point x="336" y="358" type="curve" smooth="yes"/>
      <point x="397" y="358"/>
      <point x="429" y="315"/>
      <point x="429" y="245" type="curve" smooth="yes"/>
    </contour>
    <contour>
      <point x="26" y="621" type="line"/>
      <point x="26" y="517" type="line"/>
      <point x="380" y="517" type="line"/>
      <point x="380" y="621" type="line"/>
    </contour>
  </outline>
</glyph>
<glyph name="yukrcyr" format="2">
  <advance width="250"/>
  <unicode hex="0457"/>
  <outline>
    <contour>
      <point x="60" y="500" type="line"/>
      <point x="190" y="500" type="line"/>
      <point x="190" y="0" type="line"/>
      <point x="60" y="0" type="line"/>
    </contour>
    <contour>
      <point x="-46" y="661" type="curve" smooth="yes"/>
      <point x="-46" y="704"/>
      <point x="-13" y="737"/>
      <point x="30" y="737" type="curve" smooth="yes"/>
      <point x="73" y="737"/>
      <point x="106" y="704"/>
      <point x="106" y="661" type="curve" smooth="yes"/>
      <point x="106" y="618"/>
      <point x="73" y="585"/>
      <point x="30" y="585" type="curve" smooth="yes"/>
      <point x="-13" y="585"/>
      <point x="-46" y="618"/>
    </contour>
    <contour>
      <point x="144" y="661" type="curve" smooth="yes"/>
      <point x="144" y="704"/>
      <point x="177" y="737"/>
      <point x="220" y="737" type="curve" smooth="yes"/>
      <point x="263" y="737"/>
      <point x="296" y="704"/>
      <point x="296" y="661" type="curve" smooth="yes"/>
      <point x="296" y="618"/>
      <point x="263" y="585"/>
      <point x="220" y="585" type="curve" smooth="yes"/>
      <point x="177" y="585"/>
      <point x="144" y="618"/>
    </contour>
  </outline>
</glyph>
<glyph name="ljecyr" format="2">
  <advance width="822"/>
  <unicode hex="0459"/>
  <outline>
    <contour>
      <point x="20" y="-6" type="line"/>
      <point x="35" y="-6" type="line" smooth="yes"/>
      <point x="189" y="-6"/>
      <point x="227" y="82"/>
      <point x="227" y="296" type="curve" smooth="yes"/>
      <point x="227" y="384" type="line"/>
      <point x="367" y="384" type="line"/>
      <point x="367" y="0" type="line"/>
      <point x="601" y="0" type="line" smooth="yes"/>
      <point x="710" y="0"/>
      <point x="782" y="75"/>
      <point x="782" y="177" type="curve" smooth="yes"/>
      <point x="782" y="279"/>
      <point x="710" y="354"/>
      <point x="601" y="354" type="curve" smooth="yes"/>
      <point x="487" y="354" type="line"/>
      <point x="487" y="500" type="line"/>
      <point x="109" y="500" type="line"/>
      <point x="109" y="315" type="line" smooth="yes"/>
      <point x="109" y="155"/>
      <point x="92" y="118"/>
      <point x="26" y="118" type="curve" smooth="yes"/>
      <point x="20" y="118" type="line"/>
    </contour>
    <contour>
      <point x="487" y="108" type="line"/>
      <point x="487" y="246" type="line"/>
      <point x="585" y="246" type="line" smooth="yes"/>
      <point x="632" y="246"/>
      <point x="660" y="218"/>
      <point x="660" y="177" type="curve" smooth="yes"/>
      <point x="660" y="136"/>
      <point x="632" y="108"/>
      <point x="585" y="108" type="curve" smooth="yes"/>
    </contour>
  </outline>
</glyph>
<glyph name="njecyr" format="2">
  <advance width="853"/>
  <unicode hex="045A"/>
  <outline>
    <contour>
      <point x="398" y="500" type="line"/>
      <point x="518" y="500" type="line"/>
      <point x="518" y="341" type="line"/>
      <point x="640" y="341" type="line" smooth="yes"/>
      <point x="744" y="341"/>
      <point x="813" y="269"/>
      <point x="813" y="171" type="curve" smooth="yes"/>
      <point x="813" y="72"/>
      <point x="744" y="0"/>
      <point x="640" y="0" type="curve" smooth="yes"/>
      <point x="398" y="0" type="line"/>
      <point x="398" y="233" type="line"/>
      <point x="194" y="233" type="line"/>
      <point x="194" y="0" type="line"/>
      <point x="66" y="0" type="line"/>
      <point x="66" y="500" type="line"/>
      <point x="194" y="500" type="line"/>
      <point x="194" y="341" type="line"/>
      <point x="398" y="341" type="line"/>
    </contour>
    <contour>
      <point x="518" y="108" type="line"/>
      <point x="624" y="108" type="line" smooth="yes"/>
      <point x="664" y="108"/>
      <point x="691" y="133"/>
      <point x="691" y="171" type="curve" smooth="yes"/>
      <point x="691" y="209"/>
      <point x="664" y="233"/>
      <point x="624" y="233" type="curve" smooth="yes"/>
      <point x="518" y="233" type="line"/>
    </contour>
  </outline>
</glyph>
<glyph name="tshecyr" format="2">
  <advance width="621"/>
  <unicode hex="045B"/>
  <outline>
    <contour>
      <point x="102" y="0" type="line"/>
      <point x="230" y="0" type="line"/>
      <point x="230" y="700" type="line"/>
      <point x="102" y="700" type="line"/>
    </contour>
    <contour>
      <point x="431" y="0" type="line"/>
      <point x="559" y="0" type="line"/>
      <point x="559" y="279" type="line" smooth="yes"/>
      <point x="559" y="395"/>
      <point x="484" y="474"/>
      <point x="374" y="474" type="curve" smooth="yes"/>
      <point x="299" y="474"/>
      <point x="246" y="438"/>
      <point x="217" y="367" type="curve"/>
      <point x="230" y="245" type="line"/>
      <point x="230" y="312"/>
      <point x="275" y="358"/>
      <point x="338" y="358" type="curve" smooth="yes"/>
      <point x="399" y="358"/>
      <point x="431" y="315"/>
      <point x="431" y="245" type="curve" smooth="yes"/>
    </contour>
    <contour>
      <point x="28" y="621" type="line"/>
      <point x="28" y="517" type="line"/>
      <point x="382" y="517" type="line"/>
      <point x="382" y="621" type="line"/>
    </contour>
  </outline>
</glyph>
<glyph name="dzhecyr" format="2">
  <advance width="576"/>
  <unicode hex="045F"/>
  <outline>
    <contour>
      <point x="60" y="0" type="line"/>
      <point x="60" y="500" type="line"/>
      <point x="190" y="500" type="line"/>
      <point x="190" y="118" type="line"/>
      <point x="386" y="118" type="line"/>
      <point x="386" y="500" type="line"/>
      <point x="516" y="500" type="line"/>
      <point x="516" y="0" type="line"/>
      <point x="352" y="0" type="line"/>
      <point x="352" y="-120" type="line"/>
      <point x="224" y="-120" type="line"/>
      <point x="224" y="0" type="line"/>
    </contour>
  </outline>
</glyph>
<glyph name="Geupcyr" format="2">
  <advance width="559"/>
  <unicode hex="0490"/>
  <outline>
    <contour>
      <point x="86" y="0" type="line"/>
      <point x="228" y="0" type="line"/>
      <point x="228" y="570" type="line"/>
      <point x="521" y="570" type="line"/>
      <point x="521" y="838" type="line"/>
      <point x="381" y="838" type="line"/>
      <point x="381" y="700" type="line"/>
      <point x="86" y="700" type="line"/>
    </contour>
  </outline>
</glyph>
